<svg width="1847" height="2462" viewBox="0 0 1847 2462" fill="none" xmlns="http://www.w3.org/2000/svg">
<path d="M794.774 17.2288C586.56 17.2584 378.347 17.4329 170.155 17.9329C127.595 37.4401 81.5683 57.9724 52.9283 96.9729C24.4611 132.413 9.46259 178.508 11.9159 223.917C12.0098 908.333 11.9287 1592.77 11.9554 2277.14C8.92871 2309.7 6.22246 2344.46 21.2491 2374.73C41.503 2420.76 92.0352 2452.52 142.529 2448.04C706.956 2447.9 1271.38 2448.12 1835.86 2447.93C1836.12 1637.79 1836.05 827.558 1835.89 17.4241C1488.87 17.5158 1141.83 17.1644 794.812 17.2137L794.774 17.2288Z" fill="#219453"/>
<path d="M794.8 17.2293C586.667 17.2586 378.4 17.4333 170.133 17.9333C127.573 37.44 81.5467 57.9733 52.9067 96.9733C24.44 132.413 9.4413 178.508 11.8946 223.921C11.988 908.335 11.908 1592.72 11.9347 2277.12C8.90801 2309.68 6.20162 2344.44 21.2283 2374.71C41.4816 2420.74 92.0136 2452.5 142.507 2448.02C706.934 2447.88 1271.37 2448.1 1835.84 2447.91C1836.09 1637.76 1836.03 827.509 1835.87 17.376C1488.85 17.4676 1141.81 17.1162 794.787 17.1656L794.8 17.2293ZM1690.27 33C1692.96 33.0971 1695.67 33.9312 1694.05 36.8396C1678.01 100.853 1662.39 164.986 1645.89 228.866C1200.04 229.906 754.132 229.12 308.292 229.254C304.852 348.24 307.145 468.294 307.159 587.6C722.772 588.654 1138.44 587.493 1554.07 588.173C1556.89 587.72 1555.52 591.253 1555.27 592.707C1471.53 928.387 1387.77 1264.08 1303.85 1599.71C972.532 1603.81 639.759 1599.67 308.265 1601.72C304.905 1719.03 307.106 1839.73 307.159 1958.27C608.239 1959.27 909.359 1958.25 1210.44 1958.77C1214.16 1958.05 1213.41 1962.54 1212.91 1964.86C1193.89 2037.58 1176.8 2110.86 1157.81 2183.56C832.454 2184.67 507.027 2183.56 181.654 2184.11C179.014 2179.09 180.533 2173.04 179.96 2167.77C180.28 1456.31 179.893 744.841 180.12 33.3745C682.214 33.1878 1184.32 33.3487 1686.39 33.2954C1687.05 33.1104 1688.65 32.9037 1690.27 32.962L1690.27 33ZM164.4 38.8792C163.613 108.839 164.268 178.826 164.081 248.786C148.548 257.266 133.066 265.985 116.96 273.345C100.493 282.451 83.2798 295.358 67.8665 307.905C63.6398 234.945 58.9081 146.865 116.374 91.8378C116.214 82.3445 115.72 72.8525 116.066 63.3592C132.306 55.6525 147.92 45.2378 164.4 38.8778L164.4 38.8792ZM1641.47 246.586C1643.67 246.639 1648.08 246.745 1650.28 246.798C1651.12 355.158 1650.65 463.572 1650.53 571.932C1207.95 572.025 765.36 572.078 322.773 571.905C323.587 464.038 320.773 352.251 324.107 246.745C763.227 246.505 1202.35 246.826 1641.47 246.586ZM164.267 268.106C163.613 381.626 163.921 495.146 164.121 608.653C148.547 617.173 132.907 625.826 116.761 633.186C101.014 643.026 82.8141 654.131 68.8675 668.038C52.6275 684.345 38.9355 704.358 28.9221 725.598C26.7355 628.718 28.3345 529.891 28.1345 432.278C31.0812 397.491 44.4279 359.586 68.0279 335.119C79.7879 318.546 96.8813 301.665 116.095 293.731C130.015 283.785 147.975 275.185 164.268 268.105L164.267 268.106ZM163.8 628.173C164.027 953.706 164.027 1279.27 163.787 1604.79C147.293 1611.68 132.387 1623.08 115.56 1628.54C99.4667 1637.93 83.7185 1652.4 67.5719 1661.04C68.6519 1339.25 67.1986 1017.44 68.3053 695.665C80.4119 678.545 96.9733 662.571 116.187 653.731C129.84 643.531 147.905 635.958 163.799 628.171L163.8 628.173ZM1003.09 829.972C993.417 829.908 983.728 830.375 974.072 831.393C830.165 841.513 710.805 978.913 722.352 1123.03C725.818 1203.93 767.06 1282.21 832.1 1330.5C907.54 1389.61 1014.82 1403.43 1103.37 1367.42C1204.65 1328.81 1277.23 1225.74 1278.7 1117.27C1281.61 1047.99 1256.45 978.435 1211.06 926.208C1159.77 866.228 1081.88 830.499 1003.09 829.975L1003.09 829.972ZM1004.2 846.351C1083.46 846.363 1161.48 886.314 1209.08 949.514C1269.53 1026.9 1280.35 1139.65 1234.65 1226.73C1190.48 1317.55 1089.4 1377.23 988.388 1370.35C866.828 1368.46 756.747 1268.34 741.134 1148.13C730.014 1083.01 746.841 1014.34 784.041 960.1C829.494 893.26 907.241 849.089 988.334 846.889C993.621 846.529 998.91 846.352 1004.19 846.353L1004.2 846.351ZM1300.07 1617.07C1416.93 1617.92 1533.83 1617.03 1650.69 1617.51C1650.75 1725.9 1650.93 1834.3 1650.6 1942.67C1506.61 1942.78 1362.63 1942.79 1218.65 1942.67C920.48 1942.75 622.293 1942.84 324.12 1942.62C321.933 1837.74 321.705 1722.5 324.171 1617.48C649.465 1617.08 974.771 1617.9 1300.06 1617.07L1300.07 1617.07ZM164.546 1622.88C163.426 1736.86 164.533 1850.86 163.986 1964.82C147.679 1971.71 132.212 1983.54 115.852 1988.7C99.9325 1998.5 83.7725 2010.35 69.0258 2022.74C53.6258 2040.11 38.1844 2059.49 28.9044 2081.53C27.1311 1984.91 28.3719 1885.89 28.2919 1788.35C31.0386 1753.09 44.504 1715.09 68.304 1689.89C80.0773 1672.83 97.5986 1657.75 116.412 1648.62C131.492 1639.14 148.492 1631.22 164.545 1622.89L164.546 1622.88ZM164.546 1982.92C163.413 2049.94 164.586 2116.98 163.946 2184C149.786 2184.22 135.531 2183.32 121.505 2185.79C102.051 2185.96 85.2115 2197.91 67.3982 2202.24C65.9449 2159.72 67.212 2117.12 66.692 2074.59C59.4387 2042.08 93.3986 2022.27 116.425 2008.76C131.225 1998.75 148.359 1990.96 164.546 1982.92ZM1796.01 2199.99C1804.27 2200.36 1813.13 2199.11 1821.09 2202.14C1821.62 2279.19 1821.37 2356.28 1821.22 2433.34C1257.81 2433.34 694.372 2433.67 130.958 2433.16C59.4783 2431.12 3.46625 2348.46 33.1329 2282.5C46.9462 2236.27 92.0662 2201.18 140.573 2200.56C692.186 2199.4 1244.23 2200.47 1796.04 2199.99H1796.01Z" fill="#36363E"/>
<path d="M1690.27 33C1688.65 32.9417 1687.05 33.1483 1686.39 33.3333C1184.29 33.3866 682.185 33.2258 180.119 33.4125C179.892 744.866 180.278 1456.35 179.958 2167.81C180.532 2173.08 179.012 2179.13 181.652 2184.15C507.025 2183.6 832.452 2184.71 1157.81 2183.6C1176.8 2110.89 1193.89 2037.61 1212.9 1964.89C1213.41 1962.57 1214.16 1958.09 1210.44 1958.81C909.357 1958.29 608.237 1959.31 307.157 1958.31C307.104 1839.77 304.904 1719.07 308.264 1601.76C639.757 1599.71 972.53 1603.85 1303.85 1599.74C1387.77 1264.12 1471.53 928.425 1555.26 592.745C1555.52 591.291 1556.89 587.758 1554.06 588.211C1138.44 587.531 722.77 588.692 307.157 587.638C307.143 468.332 304.85 348.278 308.29 229.292C754.157 229.158 1200.06 229.944 1645.89 228.904C1662.38 165.024 1678.01 100.891 1694.05 36.8775C1695.67 33.9692 1692.96 33.1351 1690.26 33.0379L1690.27 33ZM116.266 91.84C58.7998 146.867 63.5318 234.947 67.7585 307.907C83.1718 295.36 100.385 282.453 116.852 273.347C114.905 212.893 116.186 152.333 116.266 91.84ZM116.266 653.733C97.0531 662.573 80.4918 678.547 68.3851 695.667C67.2785 1017.44 68.7319 1339.25 67.6519 1661.04C83.7986 1652.4 99.5465 1637.93 115.64 1628.55C116.68 1303.61 115.426 978.667 116.266 653.733ZM1003.17 829.973C1081.96 830.497 1159.85 866.227 1211.15 926.207C1256.53 978.433 1281.69 1047.99 1278.79 1117.27C1277.32 1225.74 1204.73 1328.81 1103.45 1367.42C1014.91 1403.43 907.626 1389.61 832.186 1330.5C767.146 1282.21 725.905 1203.93 722.439 1123.03C710.839 978.912 830.305 841.512 974.172 831.392C983.827 830.374 993.517 829.907 1003.19 829.971L1003.17 829.973ZM324.093 1617.41C321.626 1722.43 321.854 1837.67 324.041 1942.55C324.028 1834.16 323.933 1725.79 324.093 1617.41ZM116.227 2008.61C93.1999 2022.12 59.2399 2041.93 66.4932 2074.44C67.0132 2116.97 65.7461 2159.57 67.1994 2202.09C85.0128 2197.76 101.853 2185.81 121.306 2185.64C117.88 2185.08 111.988 2185.19 116.014 2178.35C115.908 2121.76 115.547 2065.17 116.227 2008.61ZM1795.83 2199.84C1244.05 2200.32 692.013 2199.25 140.36 2200.41C91.8532 2201.03 46.7331 2236.12 32.9198 2282.35C3.25313 2348.31 59.2652 2430.97 130.745 2433.01C694.145 2433.52 1257.59 2433.19 1821.01 2433.19C1821.16 2356.13 1821.41 2279.04 1820.88 2201.99C1812.92 2198.96 1804.05 2200.21 1795.8 2199.84H1795.83ZM1805.37 2209.62C1813.48 2209.32 1810.13 2220.78 1811.05 2227.63C1809.69 2282.36 1811.03 2337.16 1810.41 2391.92C1810.65 2402.08 1810.84 2412.29 1810.39 2422.52C1252.67 2422.69 694.945 2422.51 137.185 2422.61C84.0121 2422.15 37.1841 2372.77 39.7974 2319.6C34.3174 2265.26 80.1693 2212.41 134.809 2210.8C690.236 2210.26 1245.68 2210.81 1801.08 2210.52C1802.75 2209.95 1804.14 2209.67 1805.3 2209.62L1805.37 2209.62Z" fill="#404048"/>
<path d="M164.4 38.8786C147.92 45.2386 132.307 55.6533 116.067 63.36C115.72 72.8533 116.215 82.3453 116.375 91.8386C116.295 152.332 115.014 212.892 116.96 273.345C133.067 265.985 148.548 257.267 164.082 248.787C164.268 178.827 163.614 108.84 164.4 38.88L164.4 38.8786ZM163.867 628.172C147.973 635.959 129.908 643.532 116.255 653.732C115.415 978.665 116.668 1303.61 115.628 1628.55C132.454 1623.08 147.361 1611.68 163.854 1604.79C164.094 1279.27 164.093 953.707 163.868 628.173L163.867 628.172ZM164.454 1982.84C148.267 1990.88 131.133 1998.67 116.333 2008.68C115.653 2065.24 116.014 2121.83 116.12 2178.41C112.094 2185.25 117.985 2185.15 121.412 2185.71C135.439 2183.24 149.693 2184.13 163.853 2183.92C164.493 2116.89 163.321 2049.85 164.454 1982.84Z" fill="#7B7A80"/>
<path d="M1641.47 246.587C1615.09 354.653 1587.44 462.44 1560.87 570.453C1148.67 570.88 736.4 570.666 324.173 570.56C323.853 462.626 324.04 354.68 324.107 246.746C320.773 352.253 323.587 464.04 322.773 571.906C765.36 572.08 1207.95 572.027 1650.53 571.933C1650.65 463.573 1651.12 355.16 1650.28 246.8C1648.08 246.747 1643.67 246.64 1641.47 246.587ZM1300 1616.99C1271.97 1725.27 1244.89 1833.85 1218.59 1942.59C1362.56 1942.71 1506.55 1942.69 1650.53 1942.59C1650.87 1834.21 1650.68 1725.81 1650.63 1617.43C1533.76 1616.95 1416.87 1617.84 1300 1616.99L1300 1616.99Z" fill="#D5AA27"/>
<path d="M1641.47 246.587C1202.35 246.827 763.227 246.505 324.107 246.745C324.04 354.678 323.853 462.625 324.173 570.558C736.4 570.665 1148.67 570.879 1560.87 570.452C1587.44 462.439 1615.09 354.653 1641.47 246.587ZM1300 1616.99C974.707 1617.81 649.4 1617 324.107 1617.4C323.947 1725.77 324.041 1834.15 324.055 1942.53C622.228 1942.76 920.415 1942.67 1218.59 1942.59C1244.89 1833.85 1271.97 1725.27 1300 1616.99Z" fill="#F6BB3C"/>
<path d="M164.267 268.107C147.973 275.187 130.013 283.787 116.093 293.733C116.267 406.88 114.933 520.08 116.76 633.187C132.907 625.827 148.547 617.173 164.12 608.653C163.92 495.147 163.613 381.627 164.267 268.107ZM988.333 846.893C907.24 849.093 829.493 893.265 784.04 960.105C746.84 1014.35 730.013 1083.01 741.133 1148.13C756.747 1268.35 866.828 1368.47 988.387 1370.36C894.987 1346.79 817.72 1269.6 794.533 1176.05C775.24 1101.8 789.36 1019.09 833.36 956.105C869.64 902.612 925.8 863.173 988.333 846.893ZM164.387 1622.81C148.333 1631.15 131.333 1639.07 116.253 1648.55C115.333 1761.89 116.48 1875.28 115.693 1988.63C132.053 1983.47 147.52 1971.64 163.826 1964.75C164.373 1850.79 163.267 1736.79 164.387 1622.81Z" fill="#20E080"/>
<path d="M116.133 293.733C96.92 301.667 79.8268 318.548 68.0668 335.121C68.4668 446.081 66.7997 557.108 68.9063 668.041C82.853 654.135 101.053 643.029 116.8 633.189C114.973 520.083 116.306 406.883 116.133 293.736L116.133 293.733ZM1004.24 846.36C998.956 846.359 993.666 846.536 988.38 846.895C925.847 863.175 869.687 902.614 833.407 956.107C789.407 1019.09 775.287 1101.8 794.58 1176.05C817.767 1269.6 895.035 1346.79 988.433 1370.36C1089.45 1377.24 1190.53 1317.56 1234.7 1226.73C1280.39 1139.65 1269.58 1026.91 1209.13 949.521C1161.53 886.321 1083.5 846.37 1004.25 846.358L1004.24 846.36ZM116.307 1648.55C97.4934 1657.68 79.9721 1672.76 68.1988 1689.81C68.3055 1800.75 66.8928 1911.76 68.9195 2022.67C83.6662 2010.28 99.8262 1998.43 115.746 1988.63C116.533 1875.28 115.387 1761.89 116.307 1648.55Z" fill="#27AE61"/>
<path d="M39.9999 2319.73C34.5199 2265.4 80.3732 2212.55 135.013 2210.93C690.44 2210.4 1245.88 2210.95 1801.28 2210.65C1814.65 2206.09 1810.13 2219.93 1811.19 2227.76L1811.17 2228.92C1250.65 2230.05 690.093 2228.99 129.573 2229.45C86.9066 2234.61 45.9732 2270.25 43.1198 2314.29C52.7598 2364.19 105.053 2399.16 154.933 2392.31C706.8 2391.72 1258.68 2392.21 1810.53 2392.05C1810.77 2402.21 1810.96 2412.43 1810.51 2422.65C1252.79 2422.83 695.067 2422.64 137.307 2422.75C84.1332 2422.28 37.3065 2372.91 39.9198 2319.73H39.9999Z" fill="#C8CCCD"/>
<path d="M129.6 2229.33C690.133 2228.87 1250.69 2229.93 1811.2 2228.8L1811.21 2227.64C1809.85 2282.37 1811.19 2337.17 1810.57 2391.93C1258.69 2392.09 706.813 2391.6 154.973 2392.19C105.093 2399.04 52.7999 2364.07 43.1599 2314.17C46.0132 2270.13 86.9465 2234.49 129.613 2229.33H129.6Z" fill="#ECF0F1"/>
<rect x="677" y="804" width="642" height="620" fill="#404048"/>
<g clip-path="url(#clip0_7889_191)">
<path d="M1091.49 804.776L935.096 982.866C931.056 987.492 931.512 994.53 936.138 998.635L1114.29 1155.03C1118.92 1159.07 1125.96 1158.61 1130.06 1153.98L1286.46 975.893C1290.5 971.267 1290.04 964.229 1285.41 960.124L1107.26 803.734C1102.63 799.694 1095.59 800.15 1091.49 804.776ZM1082.56 1009.19C1067.18 994.66 1065.55 970.029 1078.91 953.608C1093.64 935.427 1120.49 933.277 1137.88 948.59C1154.89 963.512 1156.65 989.447 1141.66 1006.45C1126.35 1023.85 1099.57 1025.22 1082.63 1009.19H1082.56Z" fill="#F6BB3C"/>
<path d="M1347.9 694.586C1356.05 691.85 1364.13 698.887 1362.43 707.358L1340.86 815.594L1319.29 923.831C1317.6 932.237 1307.43 935.69 1300.98 930.021L1218.03 857.234L1135.08 784.446C1128.63 778.777 1130.71 768.221 1138.86 765.484L1243.38 730.1L1347.9 694.586Z" fill="#FF515C"/>
<path d="M760.458 1250.16C793.365 1213.8 848.884 1209.69 885.766 1242.02C886.548 1242.67 887.265 1243.38 888.047 1244.04C947.476 1299.88 900.884 1402.25 820.343 1389.41C819.626 1389.28 818.844 1389.15 818.062 1389.02C782.287 1382.64 764.172 1401.6 757.656 1420.17C754.789 1428.31 743.45 1429.16 739.606 1421.47C730.548 1403.36 725.27 1374.56 750.032 1338.78C755.31 1331.16 748.142 1321.12 739.28 1323.79C739.215 1323.79 739.149 1323.79 739.084 1323.86C731.265 1326.27 724.032 1318.97 726.768 1311.22C733.545 1292.26 744.558 1267.69 760.393 1250.16H760.458Z" fill="#FF515C"/>
<path d="M1053.5 1260.07C1058.58 1258.83 1063.6 1261.89 1065.16 1266.91C1080.8 1316.56 1074.35 1372.47 1042.87 1418.93C1010.94 1466.05 960.246 1492.83 907.399 1496.09C899.449 1496.54 894.236 1487.94 898.276 1481.16L969.109 1361.33C970.673 1358.66 970.933 1355.47 969.76 1352.6L937.113 1272.12C934.051 1264.56 940.958 1256.75 948.843 1258.9C983.379 1268.21 1019.41 1268.41 1053.43 1260.13L1053.5 1260.07Z" fill="#20E080"/>
<path d="M844.061 1081.78C844.517 1076.57 840.672 1072.07 835.525 1071.29C784.046 1063.6 729.831 1078.72 688.844 1117.04C647.271 1156 628.765 1210.29 633.847 1262.94C634.629 1270.82 643.947 1274.67 650.073 1269.65L757.33 1180.96C759.741 1179.01 762.869 1178.22 765.866 1178.94L850.447 1198.56C858.397 1200.38 865.043 1192.37 861.72 1184.94C847.124 1152.29 841.259 1116.71 844.126 1081.85L844.061 1081.78Z" fill="#20E080"/>
<path d="M914.436 1027.24C909.549 1022.94 901.924 1023.66 898.08 1028.94C859.112 1082.5 866.736 1157.89 917.499 1202.47C968.261 1247.04 1044.05 1244.82 1092.07 1199.27C1096.76 1194.78 1096.5 1187.15 1091.62 1182.85L914.371 1027.24H914.436Z" fill="#3E7AFF"/>
</g>
<defs>
<clipPath id="clip0_7889_191">
<rect width="729.692" height="802.09" fill="white" transform="translate(633 694)"/>
</clipPath>
</defs>
</svg>
