<svg width="24" height="24" viewBox="0 0 24 24" fill="none" xmlns="http://www.w3.org/2000/svg">
<path d="M22.0815 20.3393C22.0767 20.1455 22.0716 19.9516 22.0664 19.7578C22.0664 19.7573 22.0663 19.7569 22.0663 19.7564C22.047 19.0289 22.0263 18.3015 22.0128 17.574C21.9863 16.1443 21.9697 14.7144 21.9425 13.2847C21.942 13.2573 21.9415 13.2299 21.941 13.2025C21.9405 13.1758 21.94 13.1491 21.9394 13.1224C21.9331 12.7985 21.9039 12.4745 21.8677 12.1513C21.8404 11.9083 21.7456 11.846 21.3754 11.8135C21.2125 11.7992 21.048 11.7874 20.8834 11.7807C20.7857 11.7768 20.6878 11.7747 20.5902 11.775C20.59 11.775 20.5897 11.775 20.5895 11.775C20.4879 11.7753 20.3863 11.7758 20.2847 11.7763C20.2657 11.7764 20.2467 11.7765 20.2278 11.7766C20.1288 11.7771 20.0298 11.7777 19.9308 11.7784C19.916 11.7785 19.9012 11.7786 19.8865 11.7787C19.0234 11.7847 18.1603 11.7947 17.2972 11.7973C15.8907 11.8016 14.4843 11.7967 13.0778 11.799C12.14 11.8006 11.2022 11.8066 10.2645 11.8129C9.94461 11.815 9.62478 11.8298 9.305 11.8288C8.63042 11.8265 7.95584 11.8188 7.28131 11.8111C6.7212 11.8047 6.16118 11.7889 5.60108 11.7885C5.51703 11.7885 5.43298 11.7885 5.34893 11.7886C5.34889 11.7886 5.34884 11.7886 5.34875 11.7886C5.22162 11.7889 5.09445 11.7894 4.96728 11.7903C4.96222 11.7903 4.95715 11.7903 4.95209 11.7904C4.89204 11.7908 4.832 11.7913 4.77195 11.7919C4.76497 11.792 4.75798 11.7921 4.75095 11.7922C4.69039 11.7928 4.62983 11.7935 4.56926 11.7943C4.56678 11.7944 4.56425 11.7944 4.56176 11.7944C4.50242 11.7952 4.44303 11.7961 4.38368 11.7972C4.37801 11.7973 4.37239 11.7974 4.36672 11.7974C4.30883 11.7985 4.25098 11.7996 4.19314 11.8009C4.18287 11.8011 4.17265 11.8013 4.16239 11.8015C4.10548 11.8028 4.04858 11.8042 3.99167 11.8056C3.98253 11.8058 3.97339 11.8061 3.9642 11.8064C3.90481 11.808 3.84542 11.8096 3.78603 11.8115C3.674 11.815 3.56197 11.8282 3.45078 11.8459C3.33959 11.8636 3.22929 11.8857 3.12073 11.9069C3.05108 11.9205 2.99201 11.9402 2.9442 11.966C2.93984 11.9683 2.93562 11.9707 2.93145 11.9731C2.91064 11.9854 2.89217 11.9988 2.87609 12.0136C2.87286 12.0165 2.86976 12.0195 2.86672 12.0226C2.85462 12.0348 2.84408 12.0478 2.83508 12.0616C2.82833 12.0719 2.82247 12.0828 2.8175 12.094C2.80592 12.1203 2.79922 12.1491 2.79758 12.1803C2.79593 12.2109 2.79383 12.2415 2.79134 12.272C2.78637 12.3332 2.78 12.3943 2.77348 12.4554C2.7702 12.486 2.76692 12.5166 2.76368 12.5471C2.7605 12.5777 2.7574 12.6082 2.75454 12.6388C2.74606 12.7305 2.73992 12.8222 2.74025 12.9139C2.74039 12.9542 2.74067 12.9946 2.74104 13.035C2.74114 13.0448 2.74128 13.0548 2.74137 13.0647C2.7417 13.0961 2.74208 13.1275 2.74254 13.1589C2.74268 13.1676 2.74283 13.1763 2.74297 13.185C2.74348 13.2189 2.74404 13.2527 2.7447 13.2866C2.74479 13.2917 2.74489 13.2967 2.74498 13.3019C2.75403 13.7704 2.77273 14.2389 2.77465 14.7074C2.7807 16.1801 2.78234 17.6529 2.78436 19.1256V19.1266C2.78497 19.5699 2.78562 20.0133 2.78642 20.4567C2.78647 20.4882 2.78783 20.5177 2.79059 20.5453C2.79153 20.5545 2.79261 20.5634 2.79387 20.5722C2.79767 20.5985 2.80301 20.6228 2.81004 20.6454C2.81712 20.6681 2.82589 20.6889 2.83662 20.7082C2.84018 20.7146 2.84398 20.7209 2.84797 20.7269C2.84998 20.7299 2.85204 20.7329 2.85415 20.7359C2.85837 20.7418 2.86283 20.7475 2.86751 20.753C2.88392 20.7724 2.90314 20.7898 2.9255 20.8053C2.93511 20.812 2.94523 20.8183 2.95601 20.8243C2.96679 20.8303 2.97814 20.836 2.99014 20.8414C3.00612 20.8485 3.02323 20.8552 3.04151 20.8613C3.04611 20.8628 3.05075 20.8643 3.05543 20.8658C3.15453 20.8967 3.28629 20.9141 3.45912 20.9239C3.47618 20.9249 3.49329 20.9252 3.5105 20.9254C3.52765 20.9256 3.54486 20.9256 3.56201 20.9257C3.56276 20.9257 3.56356 20.9257 3.56431 20.9258C3.62942 20.9265 3.69458 20.9274 3.75968 20.9282C3.78237 20.9285 3.80506 20.9288 3.82775 20.9291C3.87073 20.9296 3.91367 20.9302 3.95665 20.9308C3.9844 20.9311 4.0122 20.9315 4.03995 20.9319C4.0684 20.9323 4.0969 20.9327 4.12536 20.9331C4.52089 20.9385 4.91642 20.9444 5.31195 20.9489H5.31204C5.60918 20.9521 5.90633 20.9546 6.20347 20.9552C8.18211 20.9597 10.1607 20.9566 12.1394 20.9566C12.1394 20.9558 12.1394 20.955 12.1394 20.9542C12.8372 20.9542 13.5351 20.9602 14.2327 20.9531C15.9212 20.9358 17.6097 20.9159 19.298 20.8941C19.2988 20.8941 19.2995 20.8941 19.3002 20.894C19.6121 20.89 19.9239 20.8859 20.2356 20.8817C20.3441 20.8802 20.4526 20.8781 20.5611 20.8753C20.6153 20.8739 20.6696 20.8724 20.7238 20.8707C20.995 20.8623 21.2659 20.8502 21.5362 20.8355C21.5434 20.8351 21.5506 20.8346 21.5576 20.8342C21.5594 20.8341 21.5612 20.8339 21.563 20.8338C21.5695 20.8333 21.5759 20.8328 21.5823 20.8323C21.5828 20.8323 21.5833 20.8322 21.5839 20.8322C21.5907 20.8316 21.5975 20.831 21.6042 20.8304C21.6057 20.8303 21.6073 20.8301 21.6088 20.83C21.6148 20.8294 21.6209 20.8288 21.6268 20.8281C21.6275 20.828 21.6282 20.828 21.6288 20.8279C21.6355 20.8271 21.642 20.8263 21.6484 20.8255C21.6496 20.8254 21.6507 20.8252 21.6518 20.8251C21.6577 20.8244 21.6636 20.8236 21.6694 20.8227C21.67 20.8226 21.6706 20.8225 21.6712 20.8224C21.6777 20.8215 21.684 20.8205 21.6903 20.8195C21.6909 20.8194 21.6915 20.8193 21.6921 20.8192C21.698 20.8182 21.7039 20.8172 21.7097 20.8161C21.7101 20.816 21.7106 20.816 21.711 20.8159C21.7173 20.8147 21.7235 20.8135 21.7296 20.8123C21.7297 20.8123 21.7297 20.8122 21.7298 20.8122C21.7359 20.811 21.7418 20.8097 21.7476 20.8084C21.7479 20.8083 21.7482 20.8082 21.7485 20.8082C21.7605 20.8055 21.7721 20.8026 21.7833 20.7995C21.7834 20.7995 21.7835 20.7994 21.7837 20.7994C21.795 20.7962 21.8059 20.7929 21.8165 20.7894C21.8165 20.7894 21.8166 20.7894 21.8166 20.7894C21.9743 20.737 22.0518 20.6406 22.0763 20.4901C22.0848 20.4404 22.0827 20.3896 22.0815 20.3393Z" fill="#66CC99"/>
<path d="M19.3935 19.3972C19.5028 19.1879 19.6518 19.0142 19.8436 18.8765C20.0338 18.7401 20.2444 18.6497 20.4754 18.6199C20.6313 18.5998 20.7903 18.5962 20.9478 18.5977C20.9797 18.598 21.0112 18.5998 21.0425 18.6029C21.0305 18.1898 21.0193 17.7768 21.011 17.3638C20.9893 16.286 20.9751 15.2082 20.9543 14.1305C20.8308 14.133 20.7073 14.1275 20.5843 14.1069C20.2981 14.059 20.0519 13.9296 19.8325 13.7421C19.6017 13.545 19.4261 13.3089 19.3213 13.0241C19.2654 12.872 19.2326 12.7209 19.2234 12.5712C18.413 12.576 17.6027 12.5849 16.7922 12.5872C15.534 12.5908 14.2758 12.5868 13.0175 12.5887C12.1786 12.59 11.3396 12.5949 10.5007 12.6001C10.2145 12.6019 9.92839 12.6142 9.64231 12.6133C9.0388 12.6114 8.43533 12.6051 7.83191 12.5986C7.33081 12.5933 6.82981 12.5803 6.32877 12.5799C6.01616 12.5797 5.70341 12.581 5.3908 12.585C5.38522 12.6687 5.37205 12.7527 5.35147 12.8369C5.3285 12.9308 5.29836 13.023 5.27145 13.1159C5.15848 13.3714 5.02527 13.6116 4.81438 13.7999C4.60531 13.9866 4.36194 14.0991 4.08106 14.1202C3.98122 14.1278 3.88119 14.1324 3.78125 14.1307C3.78941 14.4183 3.79897 14.7059 3.80023 14.9936C3.80558 16.1949 3.80703 17.3962 3.80881 18.5975C3.82967 18.5975 3.85048 18.5976 3.87125 18.5978C4.08312 18.5999 4.28122 18.6665 4.472 18.7548C4.54269 18.7875 4.61169 18.8238 4.68158 18.8583C4.80547 18.9194 4.91788 18.9965 5.00839 19.1018C5.04252 19.1415 5.07477 19.1841 5.10083 19.2294C5.16997 19.3498 5.2483 19.4672 5.29934 19.5952C5.37102 19.7749 5.40088 19.9596 5.39234 20.1464C5.88411 20.1528 6.37587 20.1588 6.86769 20.1598C8.63778 20.1635 10.4079 20.1609 12.1781 20.1609C12.1781 20.1603 12.1781 20.1596 12.1781 20.159C12.8023 20.159 13.4267 20.1639 14.0508 20.158C15.7743 20.1417 17.4977 20.1226 19.221 20.1014C19.2167 19.863 19.273 19.6282 19.3935 19.3972Z" fill="#339966"/>
<path d="M7.32885 16.641C7.27209 16.7693 7.20515 16.89 7.09926 16.9846C6.99421 17.0784 6.87196 17.1349 6.73087 17.1455C6.63487 17.1527 6.53849 17.1548 6.44287 17.1389C6.2991 17.1148 6.17545 17.0498 6.06515 16.9556C5.94918 16.8565 5.86101 16.7379 5.80837 16.5948C5.73173 16.3864 5.74101 16.182 5.84455 15.9835C5.89945 15.8783 5.9743 15.7911 6.07068 15.7219C6.16621 15.6534 6.27201 15.608 6.38807 15.593C6.4664 15.5829 6.54627 15.5811 6.6254 15.5819C6.73185 15.5829 6.83137 15.6164 6.92718 15.6608C6.96271 15.6772 6.99735 15.6954 7.03246 15.7127C7.09471 15.7434 7.15115 15.7822 7.19666 15.8351C7.21382 15.855 7.23004 15.8764 7.24307 15.8992C7.2778 15.9596 7.31713 16.0186 7.34277 16.083C7.39668 16.2182 7.40362 16.359 7.36893 16.5008C7.35749 16.548 7.34235 16.5943 7.32885 16.641Z" fill="#66CC99"/>
<path d="M19.0046 16.641C18.9479 16.7693 18.881 16.89 18.775 16.9846C18.67 17.0784 18.5477 17.1349 18.4066 17.1455C18.3106 17.1527 18.2143 17.1548 18.1186 17.1389C17.9749 17.1148 17.8512 17.0498 17.7409 16.9556C17.625 16.8565 17.5368 16.7379 17.4841 16.5948C17.4075 16.3864 17.4168 16.182 17.5203 15.9835C17.5752 15.8783 17.6501 15.7911 17.7465 15.7219C17.842 15.6534 17.9478 15.608 18.0639 15.593C18.1422 15.5829 18.2221 15.5811 18.3012 15.5819C18.4076 15.5829 18.5071 15.6164 18.603 15.6608C18.6385 15.6772 18.6731 15.6954 18.7082 15.7127C18.7705 15.7434 18.8269 15.7822 18.8724 15.8351C18.8896 15.855 18.9058 15.8764 18.9189 15.8992C18.9536 15.9596 18.993 16.0186 19.0186 16.083C19.0726 16.2182 19.0794 16.359 19.0448 16.5008C19.0333 16.548 19.0181 16.5943 19.0046 16.641Z" fill="#66CC99"/>
<path d="M15.4173 17.4984C15.2144 18.0225 14.8786 18.4976 14.4221 18.8543C13.3143 19.7198 11.6658 19.7619 10.5265 18.9316C10.4937 18.9076 10.4613 18.883 10.4294 18.8579C8.75111 17.532 8.69683 14.722 10.6547 13.6264C11.9254 12.9153 13.7405 13.108 14.7825 14.1448C15.6782 15.036 15.8507 16.3791 15.4173 17.4984Z" fill="#66CC99"/>
<path d="M12.6912 18.2573C12.6912 18.3672 12.6918 18.4905 12.691 18.6139C12.6903 18.7151 12.6772 18.7319 12.5744 18.7318C12.4365 18.7317 12.2986 18.7258 12.1609 18.7189C12.079 18.7148 12.0578 18.6903 12.0567 18.605C12.0551 18.4922 12.0563 18.3795 12.0563 18.2605C12.0081 18.2488 11.9681 18.238 11.9277 18.2294C11.6083 18.1612 11.3717 17.979 11.2017 17.7042C11.1276 17.5844 11.1034 17.4473 11.0679 17.3146C11.05 17.2475 11.0767 17.2087 11.145 17.1856C11.1779 17.1745 11.2139 17.1676 11.2486 17.1673C11.3829 17.1657 11.5172 17.1683 11.6515 17.1679C11.7141 17.1677 11.7453 17.1995 11.7664 17.2567C11.798 17.3425 11.8338 17.4276 11.8757 17.5088C11.9526 17.658 12.0892 17.722 12.2469 17.7396C12.4227 17.7593 12.5996 17.7339 12.7518 17.6489C13.1157 17.4455 13.1522 17.084 12.8653 16.7943C12.7421 16.67 12.5769 16.6063 12.4134 16.5458C12.1185 16.4368 11.8211 16.3313 11.5541 16.1614C11.4566 16.0994 11.3644 16.0245 11.2834 15.942C11.099 15.7543 11.0544 15.5235 11.118 15.2738C11.2194 14.8753 11.4749 14.6251 11.8704 14.5169C11.9213 14.503 11.9732 14.4927 12.0356 14.4781C12.0376 14.4241 12.0405 14.3689 12.0413 14.3137C12.0423 14.2465 12.0409 14.1793 12.0416 14.1121C12.0424 14.038 12.0606 14.0088 12.1292 14.006C12.2773 13.9999 12.4257 14.001 12.5739 14.0011C12.6326 14.0012 12.6652 14.038 12.6746 14.092C12.6848 14.151 12.6916 14.211 12.6946 14.2709C12.698 14.3376 12.6954 14.4045 12.6954 14.4752C12.7462 14.4899 12.7858 14.5019 12.8258 14.5128C13.2993 14.6423 13.4912 14.9857 13.6211 15.4243C13.6406 15.4902 13.614 15.534 13.5477 15.5551C13.5114 15.5667 13.4715 15.5715 13.4333 15.5714C13.3414 15.5712 13.2495 15.5643 13.1576 15.564C13.0817 15.5637 13.0355 15.5348 13.0049 15.4605C12.9758 15.3899 12.9295 15.3255 12.8852 15.2622C12.6783 14.9667 12.1757 15.0131 11.9653 15.2544C11.861 15.3739 11.8552 15.5498 11.9567 15.6731C12.0257 15.7568 12.1132 15.8171 12.2155 15.8514C12.3292 15.8895 12.4455 15.9195 12.5601 15.9551C12.7151 16.0033 12.8723 16.0462 13.0237 16.1043C13.4601 16.272 13.7724 16.7174 13.7584 17.1612C13.7522 17.3569 13.6987 17.5385 13.5828 17.6972C13.4643 17.8594 13.3184 17.9925 13.1328 18.0747C12.9945 18.1358 12.8534 18.1905 12.6912 18.2573Z" fill="white"/>
<path d="M22.0153 17.0603C21.7161 15.4026 21.6849 14.6901 21.319 13.0449C21.2756 12.8989 21.1766 12.8709 20.8038 12.8909C20.5421 12.9048 20.2767 12.9231 20.0152 12.9517C14.9299 13.509 9.84658 14.0883 4.75652 14.5984C4.12441 14.6749 2.78083 13.6857 2.64719 13.1641C2.16297 11.2743 2.22597 14.9242 2.21875 15.5684C2.40573 16.8314 2.53061 18.1017 2.67119 19.3702C2.70095 19.642 2.73077 19.9139 2.76072 20.1856C2.76334 20.2997 2.85667 20.3861 2.99003 20.3995C3.22005 20.4345 3.56805 20.3887 3.83439 20.3632C4.33019 20.314 4.82603 20.2656 5.32173 20.2158C7.60131 19.9818 9.87906 19.7297 12.1578 19.4866C12.1577 19.4862 12.1577 19.4857 12.1576 19.4852C14.5476 19.2358 16.9308 18.8807 19.3181 18.6079C20.0643 18.522 21.212 18.3947 21.6042 18.2548C22.5098 17.9318 22.0933 17.2974 22.0153 17.0603Z" fill="#2B8958"/>
<path d="M22.2711 17.3496C22.2419 17.1539 22.2123 16.9583 22.1827 16.7626C22.1826 16.7622 22.1825 16.7617 22.1824 16.7612C22.0713 16.027 21.9588 15.2929 21.8536 14.5579C21.6468 13.1133 21.45 11.6674 21.2425 10.2229C21.2386 10.1953 21.2346 10.1676 21.2306 10.1399C21.2268 10.1129 21.2229 10.0859 21.219 10.0589C21.1719 9.73173 21.1015 9.40726 21.0241 9.08457C20.9659 8.84185 20.8621 8.79071 20.483 8.80449C20.3163 8.81054 20.1483 8.8193 19.9808 8.83327C19.8813 8.84162 19.7819 8.85179 19.6832 8.8644C19.6829 8.86444 19.6826 8.86444 19.6824 8.86449C19.5795 8.87762 19.4767 8.89088 19.3739 8.90424C19.3547 8.90673 19.3354 8.90921 19.3162 8.91169C19.216 8.92473 19.1158 8.9378 19.0157 8.95093C19.0007 8.9529 18.9858 8.95487 18.9708 8.95684C18.0975 9.07159 17.2248 9.19051 16.351 9.30188C14.9273 9.48338 13.5023 9.65574 12.0783 9.83527C11.1288 9.95499 10.1799 10.0792 9.23097 10.2037C8.9073 10.2462 8.58527 10.3014 8.26131 10.3407C7.57788 10.4234 6.89378 10.5006 6.20969 10.5778C5.64166 10.6419 5.07255 10.6965 4.50527 10.7666C4.42014 10.7771 4.33506 10.7877 4.24994 10.7985C4.24994 10.7985 4.24985 10.7985 4.24975 10.7985C4.12103 10.8148 3.99231 10.8313 3.86364 10.8482C3.85853 10.8489 3.85342 10.8496 3.84827 10.8503C3.78752 10.8583 3.72677 10.8663 3.66602 10.8745C3.65894 10.8755 3.65186 10.8765 3.64478 10.8774C3.58352 10.8856 3.52225 10.894 3.46103 10.9025C3.4585 10.9028 3.45597 10.9032 3.45344 10.9036C3.39344 10.9119 3.33344 10.9203 3.27344 10.9288C3.26772 10.9296 3.262 10.9304 3.25633 10.9313C3.19783 10.9396 3.13938 10.948 3.08097 10.9566C3.07061 10.9581 3.06025 10.9596 3.04989 10.9611C2.99242 10.9696 2.93496 10.9781 2.87753 10.9868C2.8683 10.9882 2.85906 10.9896 2.84983 10.991C2.78988 11.0001 2.72997 11.0093 2.67006 11.0186C2.55705 11.0363 2.44525 11.0638 2.33491 11.0957C2.22452 11.1277 2.11558 11.1639 2.00833 11.1991C1.93952 11.2216 1.88219 11.249 1.837 11.2811C1.83288 11.284 1.82889 11.287 1.825 11.29C1.80546 11.305 1.78849 11.321 1.77405 11.3379C1.77114 11.3413 1.76838 11.3447 1.76571 11.3482C1.75502 11.362 1.74592 11.3765 1.73856 11.3917C1.73303 11.403 1.72849 11.4147 1.72488 11.4267C1.71644 11.4548 1.7133 11.4848 1.71555 11.5166C1.71775 11.5478 1.71944 11.579 1.72075 11.6103C1.72342 11.6729 1.72469 11.7356 1.72577 11.7983C1.72628 11.8297 1.7268 11.861 1.72741 11.8924C1.72802 11.9237 1.72872 11.9551 1.72971 11.9864C1.73266 12.0803 1.73796 12.1739 1.74981 12.2667C1.75502 12.3076 1.76041 12.3484 1.76589 12.3893C1.76725 12.3993 1.76861 12.4093 1.76997 12.4193C1.77428 12.4511 1.7786 12.4828 1.783 12.5146C1.78422 12.5234 1.78549 12.5322 1.78671 12.541C1.79149 12.5753 1.79631 12.6094 1.80124 12.6436C1.80199 12.6488 1.80274 12.6539 1.80344 12.659C1.87155 13.1324 1.94946 13.6044 2.01039 14.0787C2.20188 15.5694 2.38886 17.0606 2.57627 18.5518C2.57631 18.5521 2.57636 18.5524 2.57641 18.5528C2.63285 19.0017 2.68928 19.4506 2.74591 19.8995C2.74994 19.9314 2.755 19.9611 2.76128 19.9887C2.76339 19.9979 2.76564 20.0068 2.76799 20.0155C2.77516 20.0416 2.7836 20.0656 2.79363 20.0877C2.80361 20.1097 2.81514 20.1297 2.82841 20.1479C2.83281 20.1539 2.83746 20.1598 2.84228 20.1654C2.84467 20.1682 2.84716 20.171 2.84964 20.1737C2.85466 20.1791 2.85991 20.1843 2.86535 20.1894C2.88438 20.207 2.90603 20.2222 2.93064 20.2351C2.94119 20.2406 2.9523 20.2457 2.96392 20.2504C2.9756 20.2552 2.98783 20.2595 3.00063 20.2634C3.01774 20.2687 3.03588 20.2732 3.05519 20.2771C3.06002 20.2781 3.06489 20.279 3.06986 20.2799C3.17411 20.2987 3.30972 20.2997 3.48597 20.2879C3.50336 20.2867 3.52075 20.2849 3.53819 20.283C3.55558 20.281 3.57302 20.2788 3.59041 20.2769C3.59121 20.2768 3.59196 20.2767 3.59275 20.2766C3.6588 20.2691 3.72485 20.2618 3.79089 20.2544C3.81391 20.2518 3.83692 20.2493 3.85994 20.2467C3.90353 20.2419 3.94708 20.237 3.99067 20.2322C4.01885 20.2291 4.04702 20.226 4.07514 20.2228C4.10402 20.2196 4.13289 20.2164 4.16177 20.2133C4.56302 20.169 4.96431 20.1251 5.36542 20.0798H5.36552C5.66683 20.0456 5.96805 20.0107 6.26903 19.9739C8.27336 19.7292 10.2768 19.4768 12.2805 19.2275C12.2804 19.2267 12.2803 19.2259 12.2802 19.2251C12.9869 19.1372 13.6944 19.0553 14.4 18.9602C16.1078 18.7299 17.8151 18.4971 19.5222 18.2622C19.523 18.2621 19.5237 18.262 19.5244 18.2619C19.8397 18.2185 20.155 18.175 20.4702 18.1315C20.5799 18.1164 20.6895 18.1006 20.799 18.0841C20.8537 18.0759 20.9085 18.0675 20.9632 18.0589C21.2367 18.0162 21.5096 17.9699 21.7815 17.9209C21.7887 17.9196 21.7959 17.9182 21.8029 17.9169C21.8047 17.9165 21.8065 17.9161 21.8083 17.9158C21.8148 17.9146 21.8213 17.9132 21.8277 17.9119C21.8282 17.9118 21.8288 17.9117 21.8293 17.9116C21.8362 17.9101 21.843 17.9087 21.8497 17.9072C21.8512 17.9069 21.8528 17.9065 21.8543 17.9062C21.8603 17.9049 21.8664 17.9035 21.8723 17.9021C21.8729 17.9019 21.8736 17.9018 21.8743 17.9016C21.8809 17.9 21.8875 17.8984 21.8939 17.8968C21.895 17.8965 21.8961 17.8962 21.8973 17.8959C21.9032 17.8944 21.909 17.8929 21.9147 17.8913C21.9153 17.8911 21.9159 17.8909 21.9165 17.8907C21.9229 17.889 21.9293 17.8872 21.9355 17.8854C21.9361 17.8852 21.9367 17.885 21.9373 17.8848C21.9432 17.8831 21.949 17.8813 21.9547 17.8795C21.9551 17.8794 21.9556 17.8792 21.956 17.8791C21.9623 17.8771 21.9684 17.8751 21.9744 17.8731C21.9745 17.873 21.9745 17.873 21.9746 17.873C21.9806 17.871 21.9864 17.8689 21.9922 17.8669C21.9925 17.8668 21.9927 17.8667 21.9931 17.8666C22.0048 17.8623 22.0162 17.8579 22.0271 17.8534C22.0273 17.8533 22.0274 17.8532 22.0276 17.8532C22.0386 17.8486 22.0493 17.8439 22.0595 17.839L22.0597 17.8389C22.2128 17.766 22.279 17.6586 22.285 17.5031C22.2872 17.4517 22.2787 17.4005 22.2711 17.3496Z" fill="#66CC99"/>
<path d="M19.4302 16.7343C19.5145 16.5085 19.6436 16.3139 19.8205 16.1503C19.996 15.9881 20.1979 15.8701 20.428 15.8108C20.5834 15.7708 20.744 15.7471 20.9037 15.7288C20.936 15.7251 20.9681 15.7229 21.0002 15.7221C20.9362 15.3053 20.8727 14.8884 20.8123 14.4712C20.6548 13.3825 20.5047 12.2928 20.3481 11.204C20.2232 11.2221 20.0975 11.2321 19.9704 11.2268C19.6745 11.2143 19.4089 11.1143 19.1631 10.9521C18.9045 10.7815 18.697 10.5645 18.5551 10.2893C18.4793 10.1423 18.427 9.99347 18.399 9.84296C17.5789 9.94988 16.7594 10.0611 15.939 10.1655C14.6652 10.3276 13.3905 10.4821 12.1165 10.6426C11.267 10.7495 10.418 10.8603 9.56913 10.9712C9.27953 11.0091 8.99134 11.0575 8.70152 11.0927C8.09012 11.1668 7.47817 11.2365 6.86627 11.306C6.35814 11.3638 5.84912 11.4137 5.34166 11.4765C5.02506 11.5156 4.70847 11.5564 4.39244 11.5998C4.39731 11.6852 4.39455 11.772 4.38428 11.8598C4.37284 11.9578 4.35391 12.0549 4.33839 12.1525C4.25612 12.4253 4.15145 12.6855 3.96161 12.9027C3.77336 13.1182 3.54109 13.2627 3.25933 13.3195C3.15916 13.3397 3.05842 13.3571 2.95703 13.3679C3.00152 13.6582 3.04736 13.9482 3.08486 14.2394C3.24147 15.4553 3.39414 16.6716 3.54714 17.8879C3.56823 17.8853 3.58933 17.8828 3.61042 17.8804C3.82525 17.8558 4.03427 17.8983 4.23855 17.9637C4.31425 17.9879 4.38869 18.016 4.46378 18.0421C4.59695 18.0884 4.72047 18.1523 4.82542 18.2476C4.86498 18.2835 4.903 18.3225 4.93506 18.3651C5.02023 18.4783 5.11431 18.5873 5.18214 18.7105C5.27734 18.8835 5.33083 19.0667 5.34569 19.257C5.84448 19.2015 6.34328 19.1455 6.84147 19.0846C8.63453 18.8654 10.4268 18.6398 12.2194 18.4168C12.2193 18.4161 12.2192 18.4155 12.2192 18.4148C12.8514 18.3361 13.4843 18.2625 14.1156 18.1779C15.8589 17.9442 17.6018 17.7077 19.3443 17.4691C19.3098 17.2283 19.3373 16.9834 19.4302 16.7343Z" fill="#339966"/>
<path d="M6.86476 15.4631C6.82342 15.6001 6.77087 15.7308 6.67548 15.8399C6.58094 15.9482 6.46422 16.0208 6.32265 16.0493C6.22633 16.0687 6.12901 16.083 6.0302 16.0789C5.88156 16.0726 5.74815 16.0223 5.62464 15.9409C5.49475 15.8552 5.3905 15.7462 5.3192 15.6079C5.21533 15.4064 5.19901 15.1984 5.27894 14.9843C5.32126 14.8709 5.38614 14.7731 5.47501 14.6909C5.56314 14.6094 5.66458 14.5501 5.78022 14.5204C5.85826 14.5003 5.93894 14.4884 6.01914 14.4792C6.12709 14.4668 6.23205 14.4882 6.3347 14.521C6.37272 14.5332 6.41012 14.5473 6.44786 14.5604C6.51475 14.5837 6.57681 14.6158 6.62954 14.6636C6.64942 14.6817 6.66854 14.7013 6.68462 14.7227C6.72742 14.7795 6.77467 14.8343 6.80875 14.8962C6.88037 15.0264 6.90508 15.1681 6.88783 15.3161C6.88206 15.3653 6.87254 15.4141 6.86476 15.4631Z" fill="#66CC99"/>
<path d="M18.689 13.9921C18.6476 14.1292 18.5951 14.2599 18.4997 14.369C18.4052 14.4773 18.2884 14.5499 18.1469 14.5784C18.0506 14.5978 17.9533 14.6121 17.8544 14.6079C17.7058 14.6017 17.5724 14.5514 17.4489 14.4699C17.319 14.3843 17.2147 14.2752 17.1434 14.137C17.0395 13.9355 17.0232 13.7274 17.1032 13.5134C17.1455 13.3999 17.2104 13.3021 17.2992 13.22C17.3874 13.1385 17.4888 13.0792 17.6044 13.0494C17.6825 13.0293 17.7632 13.0174 17.8434 13.0082C17.9513 12.9959 18.0563 13.0172 18.1589 13.0501C18.1969 13.0622 18.2343 13.0764 18.2721 13.0895C18.339 13.1127 18.401 13.1448 18.4538 13.1927C18.4736 13.2107 18.4928 13.2303 18.5088 13.2518C18.5516 13.3086 18.5989 13.3634 18.633 13.4253C18.7046 13.5555 18.7293 13.6972 18.712 13.8451C18.7063 13.8944 18.6968 13.9432 18.689 13.9921Z" fill="#66CC99"/>
<path d="M15.1649 15.3123C15.0253 15.8686 14.7451 16.392 14.3277 16.8107C13.3148 17.8268 11.6506 18.0771 10.3923 17.3798C10.3561 17.3596 10.3203 17.3388 10.2847 17.3174C8.41821 16.1861 8.00955 13.3472 9.85441 11.9911C11.0518 11.1109 12.9141 11.0774 14.0999 11.996C15.1191 12.7857 15.4629 14.1241 15.1649 15.3123Z" fill="#66CC99"/>
<path d="M12.4995 16.4242C12.5133 16.5354 12.5295 16.6603 12.5442 16.7853C12.5562 16.8878 12.5451 16.9065 12.4409 16.9194C12.3013 16.9366 12.1609 16.948 12.0206 16.9584C11.9372 16.9646 11.9126 16.9424 11.9007 16.8562C11.8849 16.7422 11.8719 16.6278 11.857 16.5074C11.8067 16.5015 11.7648 16.4957 11.7228 16.492C11.3908 16.4632 11.1283 16.3085 10.9215 16.0516C10.8314 15.9397 10.7896 15.8039 10.7371 15.674C10.7104 15.6083 10.7326 15.5656 10.7989 15.5336C10.8308 15.5182 10.8664 15.5068 10.9015 15.502C11.0373 15.4836 11.1736 15.4692 11.3096 15.4519C11.373 15.4439 11.4086 15.4722 11.4371 15.5274C11.48 15.6104 11.5269 15.6919 11.5796 15.7689C11.6763 15.9103 11.8227 15.9579 11.9845 15.9559C12.1651 15.9536 12.3411 15.9057 12.4844 15.8004C12.8273 15.5485 12.8188 15.1778 12.4918 14.9207C12.3514 14.8103 12.1761 14.7666 12.003 14.726C11.6905 14.6527 11.3761 14.5833 11.0843 14.4449C10.9778 14.3944 10.875 14.3302 10.7826 14.2569C10.5721 14.09 10.498 13.8619 10.5309 13.601C10.5835 13.1847 10.8107 12.8991 11.1976 12.7397C11.2474 12.7192 11.2986 12.7022 11.3601 12.6795C11.3552 12.6246 11.3513 12.5684 11.3452 12.5124C11.3377 12.4442 11.3278 12.3763 11.3201 12.3082C11.3116 12.2331 11.3263 12.2012 11.3955 12.1897C11.5446 12.1649 11.695 12.1474 11.8452 12.1288C11.9046 12.1214 11.9423 12.1546 11.9586 12.2081C11.9764 12.2666 11.9908 12.3265 12.0014 12.3867C12.0132 12.4538 12.0189 12.522 12.0278 12.5935C12.0811 12.602 12.1228 12.6091 12.1646 12.6151C12.6605 12.6866 12.898 13.0102 13.0848 13.438C13.1129 13.5023 13.0914 13.55 13.0269 13.5797C12.9916 13.596 12.9518 13.6059 12.9131 13.6106C12.82 13.622 12.7261 13.6266 12.633 13.6378C12.5561 13.6471 12.5056 13.6237 12.4653 13.5523C12.427 13.4844 12.372 13.425 12.3192 13.3665C12.0724 13.0934 11.5693 13.2037 11.3866 13.4745C11.296 13.6087 11.3122 13.7876 11.4306 13.8996C11.511 13.9757 11.6072 14.0257 11.7151 14.0476C11.8351 14.0719 11.9566 14.0876 12.0771 14.1092C12.2402 14.1385 12.4048 14.1621 12.5654 14.2019C13.0284 14.3167 13.4008 14.7285 13.4425 15.1797C13.4609 15.3787 13.4296 15.5692 13.3321 15.7447C13.2325 15.9239 13.1015 16.0769 12.9239 16.1835C12.7914 16.2629 12.6554 16.3361 12.4995 16.4242Z" fill="white"/>
<path d="M21.0557 5.53392C20.9501 5.8778 20.8162 6.20541 20.5751 6.47836C20.336 6.74902 20.0418 6.92991 19.6858 6.99975C19.4435 7.04728 19.1989 7.08178 18.9505 7.07002C18.5771 7.0523 18.2426 6.92419 17.9333 6.7178C17.6081 6.50077 17.3476 6.22542 17.1704 5.87705C16.9121 5.36949 16.8739 4.84645 17.0775 4.30955C17.1855 4.02506 17.3497 3.78024 17.5742 3.57492C17.7967 3.37144 18.0524 3.22383 18.3433 3.15052C18.5397 3.10106 18.7425 3.07214 18.9443 3.05016C19.2156 3.02058 19.4791 3.0757 19.7366 3.15956C19.832 3.19064 19.9258 3.22659 20.0204 3.26006C20.1882 3.31941 20.3437 3.40092 20.4755 3.52186C20.5252 3.56747 20.5729 3.61692 20.6131 3.67097C20.7198 3.81445 20.8379 3.95274 20.9227 4.10874C21.1009 4.43677 21.1611 4.79316 21.1157 5.16478C21.1005 5.28844 21.076 5.41092 21.0557 5.53392Z" fill="#FFCC66"/>
<path d="M19.7366 3.15967C19.7068 3.14996 19.6769 3.14063 19.6468 3.13177C19.597 3.15596 19.5472 3.1802 19.4974 3.20452C19.405 3.24971 19.3125 3.29467 19.2215 3.34267C19.174 3.36774 19.1618 3.40098 19.1798 3.4336C19.1965 3.46374 19.2272 3.47124 19.2723 3.45071C19.4598 3.36545 19.6471 3.27976 19.8339 3.1929C19.8016 3.18146 19.7692 3.17026 19.7366 3.15967Z" fill="#FFBB43"/>
<path d="M18.4087 3.13509C18.3039 3.25481 18.1997 3.3749 18.0955 3.49509C18.0815 3.51126 18.0679 3.52917 18.0597 3.54867C18.0455 3.58237 18.0627 3.61626 18.0952 3.62653C18.1301 3.63839 18.1498 3.61875 18.1711 3.59493C18.3214 3.42726 18.4725 3.26034 18.6235 3.09328C18.5514 3.10514 18.4797 3.11887 18.4087 3.13509Z" fill="#FFBB43"/>
<path d="M20.308 3.39506C20.2594 3.36501 20.2089 3.33839 20.1567 3.31467C19.9987 3.37664 19.841 3.43964 19.6833 3.50254C19.6637 3.51037 19.6433 3.52167 19.6293 3.53685C19.5978 3.57089 19.6142 3.62385 19.6664 3.6359C19.6785 3.63201 19.699 3.62639 19.7187 3.61893C19.9133 3.5452 20.1079 3.47118 20.3023 3.39717C20.3042 3.39642 20.3061 3.39576 20.308 3.39506Z" fill="#FFBB43"/>
<path d="M19.2747 3.05269C19.204 3.04458 19.1329 3.04092 19.0612 3.04266C18.9383 3.12999 18.8155 3.2175 18.6929 3.3053C18.6756 3.31772 18.6586 3.33267 18.6466 3.35002C18.6294 3.37491 18.6298 3.40585 18.6551 3.42277C18.6721 3.43421 18.6989 3.43308 18.7215 3.43336C18.7303 3.43346 18.7392 3.42197 18.7481 3.41583C18.918 3.29888 19.0882 3.1823 19.2577 3.06478C19.2634 3.06085 19.269 3.05677 19.2747 3.05269Z" fill="#FFBB43"/>
<path d="M20.7469 3.84506C20.6578 3.86883 20.5688 3.89283 20.4801 3.91748C20.4306 3.93122 20.382 3.94922 20.3347 3.96928C20.2936 3.98677 20.2776 4.02033 20.2885 4.05244C20.2993 4.08464 20.33 4.09406 20.3771 4.08141C20.5284 4.04086 20.6797 4.00069 20.831 3.96023C20.804 3.92128 20.7756 3.88298 20.7469 3.84506Z" fill="#FFBB43"/>
<path d="M20.6178 5.42377C20.6001 5.42916 20.5783 5.44617 20.5736 5.46249C20.5688 5.47908 20.5779 5.50477 20.5895 5.51963C20.5997 5.53266 20.6213 5.53885 20.639 5.54363C20.7331 5.56899 20.9247 5.60663 20.926 5.60128C20.9595 5.60996 20.9928 5.61877 21.0263 5.62749C21.0364 5.59646 21.0463 5.56524 21.0559 5.53392C21.0576 5.52366 21.0594 5.51335 21.0611 5.50308C20.9348 5.47753 20.8084 5.45203 20.682 5.42691C20.6609 5.42274 20.6372 5.41791 20.6178 5.42377Z" fill="#FFBB43"/>
<path d="M20.5329 6.525C20.4011 6.4328 20.2692 6.34083 20.1373 6.24877C20.1262 6.24104 20.116 6.2319 20.1043 6.22515C20.0772 6.20935 20.0519 6.21432 20.0308 6.23625C20.0077 6.26016 20.0137 6.28604 20.0305 6.31027C20.0381 6.32129 20.0486 6.33029 20.0582 6.33994C20.1696 6.45282 20.2977 6.54249 20.4312 6.62457C20.4662 6.59307 20.5001 6.55988 20.5329 6.525Z" fill="#FFBB43"/>
<path d="M20.7762 6.2003C20.684 6.14222 20.5906 6.08616 20.4969 6.03038C20.4599 6.00835 20.4196 5.99204 20.3868 5.9761C20.3416 5.96452 20.3102 5.97671 20.2979 6.00633C20.285 6.03722 20.2976 6.06361 20.3336 6.08621C20.4563 6.16308 20.5787 6.24019 20.7011 6.3173C20.7277 6.2791 20.7526 6.24005 20.7762 6.2003Z" fill="#FFBB43"/>
<path d="M18.9453 7.04518C18.9004 6.94669 18.855 6.84835 18.8106 6.74963C18.7964 6.71799 18.773 6.70144 18.7399 6.71119C18.7077 6.72066 18.6932 6.74668 18.6982 6.78085C18.7002 6.79411 18.7029 6.80771 18.7082 6.81994C18.7422 6.89935 18.7762 6.97875 18.8104 7.05811C18.8563 7.06379 18.9028 7.06782 18.95 7.07002C18.9523 7.07011 18.9546 7.07021 18.9568 7.0703C18.953 7.06196 18.9491 7.05357 18.9453 7.04518Z" fill="#FFBB43"/>
<path d="M20.9993 4.26994C20.8958 4.29526 20.7924 4.32066 20.6891 4.34658C20.6659 4.3524 20.6404 4.36004 20.6231 4.37508C20.6095 4.3869 20.5996 4.41244 20.6019 4.43007C20.6041 4.44741 20.6238 4.46251 20.6344 4.47661C20.6588 4.4746 20.6752 4.47511 20.6907 4.47165C20.8088 4.44544 20.9269 4.41901 21.0449 4.39229C21.0314 4.35113 21.0161 4.3104 20.9993 4.26994Z" fill="#FFBB43"/>
<path d="M20.9423 5.85816C20.8657 5.82825 20.7892 5.79877 20.7132 5.76928C20.6896 5.76014 20.6652 5.75292 20.6404 5.74833C20.6314 5.74669 20.6225 5.74542 20.6136 5.74514C20.5756 5.74402 20.5458 5.76713 20.5416 5.79703C20.5371 5.82905 20.5572 5.85375 20.5965 5.86523C20.6222 5.87278 20.6483 5.87925 20.6731 5.88919C20.7459 5.91848 20.8187 5.94806 20.8913 5.97773C20.9092 5.93836 20.9262 5.89847 20.9423 5.85816Z" fill="#FFBB43"/>
<path d="M18.4166 6.6421C18.414 6.63165 18.4144 6.61726 18.4076 6.61154C18.3904 6.59696 18.3698 6.57638 18.3508 6.57671C18.3319 6.57699 18.3134 6.59982 18.2987 6.60994C18.2982 6.63348 18.2952 6.64763 18.2981 6.66038C18.3198 6.75483 18.3409 6.84943 18.3628 6.94379C18.4102 6.96226 18.4582 6.9789 18.5069 6.99357C18.4766 6.87643 18.4467 6.75924 18.4166 6.6421Z" fill="#FFBB43"/>
<path d="M20.4957 3.54112C20.3929 3.57497 20.2901 3.60904 20.1876 3.64378C20.1338 3.66201 20.1168 3.68831 20.1285 3.72422C20.1399 3.75914 20.1694 3.76959 20.2239 3.75778C20.2345 3.75548 20.2449 3.75244 20.2553 3.74929C20.3681 3.71503 20.4809 3.6809 20.5936 3.64631C20.5636 3.60914 20.5304 3.57412 20.4957 3.54112Z" fill="#FFBB43"/>
<path d="M19.9686 6.49758C19.9471 6.47522 19.9245 6.46627 19.8966 6.48117C19.8656 6.49777 19.8551 6.52556 19.8699 6.5565C19.885 6.58786 19.902 6.6202 19.9255 6.64514C19.9894 6.71283 20.0543 6.77949 20.1196 6.84581C20.1599 6.82411 20.1992 6.80058 20.2374 6.77536C20.1478 6.68278 20.0579 6.59049 19.9686 6.49758Z" fill="#FFBB43"/>
<path d="M21.1213 4.74956C21.1168 4.70559 21.1107 4.6619 21.1029 4.61859C20.9986 4.63448 20.8944 4.65075 20.7902 4.66687C20.7527 4.67269 20.7149 4.67643 20.6781 4.68515C20.6498 4.6919 20.6261 4.71248 20.6345 4.74328C20.6407 4.76583 20.6619 4.78425 20.6735 4.80042C20.7036 4.79915 20.7227 4.79967 20.7413 4.79733C20.8681 4.78167 20.9947 4.76578 21.1213 4.74956Z" fill="#FFBB43"/>
<path d="M19.8406 6.96118C19.7692 6.87291 19.697 6.78521 19.6252 6.69727C19.6184 6.68897 19.6121 6.67613 19.6036 6.67411C19.5818 6.66905 19.5562 6.6616 19.537 6.66863C19.5084 6.67908 19.5031 6.70871 19.5114 6.73726C19.515 6.74982 19.5227 6.76187 19.5308 6.77237C19.5883 6.84704 19.6458 6.92161 19.7035 6.9961C19.7502 6.98635 19.796 6.97472 19.8406 6.96118Z" fill="#FFBB43"/>
<path d="M19.2842 6.73712C19.2739 6.71973 19.2562 6.70674 19.2488 6.69891C19.2004 6.68921 19.1645 6.71912 19.1706 6.7569C19.1747 6.78277 19.1868 6.80827 19.1994 6.8318C19.2394 6.90708 19.28 6.98213 19.3206 7.05713H19.3207C19.3312 7.05601 19.3417 7.05483 19.3521 7.05357C19.3544 7.05329 19.3567 7.05305 19.3589 7.05277C19.3695 7.05151 19.3801 7.05019 19.3906 7.04883C19.3908 7.04883 19.3909 7.04879 19.3911 7.04879C19.4018 7.04743 19.4125 7.04598 19.4231 7.04448C19.4247 7.04424 19.4262 7.04405 19.4278 7.04382C19.4388 7.04227 19.4498 7.04073 19.4607 7.03909C19.4028 6.93793 19.3437 6.83743 19.2842 6.73712Z" fill="#FFBB43"/>
<path d="M18.1139 6.82776C18.0894 6.70533 18.0642 6.58303 18.0388 6.46078C18.0258 6.39811 18.0047 6.37594 17.9664 6.38179C17.9263 6.38789 17.9132 6.41465 17.9194 6.47779C17.92 6.48318 17.9201 6.48867 17.921 6.49397C17.9357 6.57562 17.9504 6.65733 17.9652 6.73898C18.0141 6.77058 18.0636 6.8002 18.1139 6.82776Z" fill="#FFBB43"/>
<path d="M21.124 5.02528C21.0069 5.02538 20.8898 5.02556 20.7727 5.02566C20.733 5.02571 20.7064 5.03967 20.7017 5.07492C20.6973 5.10839 20.7207 5.1308 20.7753 5.14458C20.7842 5.14603 20.797 5.14964 20.8095 5.15002C20.912 5.15269 21.0144 5.15531 21.1168 5.15775C21.121 5.11346 21.1234 5.0693 21.124 5.02528Z" fill="#FFBB43"/>
<path d="M17.7577 6.24976C17.7563 6.20026 17.7422 6.17283 17.7092 6.16852C17.6759 6.16416 17.6478 6.18891 17.6362 6.23649C17.629 6.31435 17.622 6.3938 17.6232 6.47382C17.6705 6.51769 17.7198 6.55969 17.7711 6.60001C17.7665 6.48324 17.7612 6.36652 17.7577 6.24976Z" fill="#FFBB43"/>
<path d="M20.7373 5.45372C20.64 5.77045 20.5166 6.07219 20.2946 6.32362C20.0744 6.5729 19.8034 6.73955 19.4755 6.80386C19.2523 6.84764 19.027 6.87942 18.7983 6.86859C18.4543 6.85228 18.1462 6.7343 17.8614 6.54422C17.5618 6.34434 17.3219 6.09075 17.1586 5.76984C16.9207 5.30231 16.8856 4.82058 17.0731 4.32609C17.1725 4.06406 17.3238 3.83859 17.5306 3.6495C17.7355 3.46205 17.971 3.32611 18.239 3.25861C18.4199 3.21305 18.6067 3.18642 18.7925 3.16617C19.0424 3.13894 19.2851 3.1897 19.5223 3.2669C19.6101 3.2955 19.6965 3.32864 19.7837 3.35948C19.9382 3.41414 20.0814 3.48923 20.2028 3.60061C20.2486 3.64261 20.2926 3.68817 20.3296 3.73795C20.4279 3.87009 20.5366 3.99745 20.6147 4.14112C20.7788 4.44323 20.8343 4.77155 20.7925 5.11378C20.7785 5.22759 20.7559 5.34042 20.7373 5.45372Z" fill="#FFBB43"/>
<path d="M20.5771 5.41602C20.4881 5.70595 20.3751 5.98213 20.1719 6.21229C19.9703 6.44048 19.7223 6.59301 19.4221 6.65184C19.2179 6.69192 19.0116 6.72102 18.8022 6.71109C18.4874 6.69618 18.2054 6.58813 17.9446 6.41413C17.6705 6.23118 17.4509 5.99906 17.3014 5.70534C17.0836 5.27742 17.0514 4.83646 17.2231 4.38379C17.3141 4.14393 17.4526 3.93754 17.6419 3.76443C17.8295 3.59287 18.045 3.46842 18.2903 3.40663C18.4559 3.36492 18.6269 3.34059 18.797 3.32203C19.0258 3.29709 19.2479 3.34354 19.465 3.41423C19.5454 3.44043 19.6245 3.47076 19.7042 3.49898C19.8457 3.54899 19.9768 3.61776 20.0879 3.71971C20.1298 3.75815 20.1701 3.79987 20.2039 3.84543C20.2939 3.96642 20.3934 4.08299 20.4649 4.21448C20.6151 4.49104 20.6659 4.79151 20.6276 5.10482C20.6149 5.20907 20.5942 5.31229 20.5771 5.41602Z" fill="#FFCC66"/>
<path d="M18.7586 6.02052C18.7439 6.07719 18.7278 6.14085 18.7109 6.20437C18.6971 6.25649 18.6881 6.26338 18.635 6.2496C18.564 6.23113 18.4937 6.20966 18.4235 6.18773C18.3819 6.17469 18.3742 6.15918 18.385 6.11502C18.3992 6.05666 18.4149 5.99868 18.4307 5.93732C18.4074 5.92485 18.3882 5.91393 18.3685 5.90408C18.2129 5.82627 18.1151 5.70069 18.0641 5.53626C18.0419 5.46458 18.0477 5.39066 18.0471 5.31749C18.0469 5.28046 18.0658 5.26401 18.1041 5.26124C18.1226 5.25988 18.1421 5.26119 18.16 5.2656C18.2295 5.28276 18.2984 5.30198 18.3678 5.31974C18.4001 5.32799 18.4119 5.34857 18.4151 5.38091C18.42 5.42943 18.4271 5.47804 18.4379 5.52552C18.4577 5.61271 18.5196 5.66399 18.5985 5.69413C18.6866 5.72774 18.7812 5.73833 18.871 5.7148C19.0858 5.65851 19.1529 5.47691 19.0436 5.28923C18.9966 5.20865 18.9199 5.15376 18.8437 5.10074C18.7061 5.00507 18.5668 4.91094 18.4518 4.78771C18.4098 4.74271 18.3722 4.69176 18.3414 4.63841C18.2713 4.51691 18.2792 4.39199 18.3453 4.27166C18.4507 4.07966 18.6159 3.98474 18.8343 3.98179C18.8624 3.98141 18.8906 3.98301 18.9247 3.98385C18.9329 3.95629 18.9418 3.92821 18.9496 3.89985C18.9591 3.86535 18.9673 3.83048 18.9767 3.79593C18.9869 3.75782 19.0002 3.74521 19.036 3.7529C19.1132 3.76954 19.1895 3.78998 19.266 3.8098C19.2963 3.81763 19.3081 3.84102 19.3058 3.87013C19.3032 3.90196 19.2987 3.93379 19.2922 3.96505C19.2851 3.99988 19.2748 4.03405 19.2654 4.07052C19.2896 4.08487 19.3084 4.09635 19.3276 4.10732C19.5545 4.2373 19.6077 4.44008 19.6162 4.68365C19.6174 4.72026 19.5979 4.73929 19.5609 4.7413C19.5406 4.74243 19.5194 4.73957 19.4997 4.73441C19.4524 4.72204 19.4059 4.70619 19.3585 4.69377C19.3194 4.68351 19.2994 4.66241 19.2935 4.61999C19.288 4.57968 19.2727 4.54026 19.2583 4.50173C19.191 4.32168 18.9256 4.27851 18.7849 4.37484C18.7151 4.42255 18.6886 4.51251 18.7246 4.58962C18.749 4.64202 18.7861 4.68482 18.8343 4.71618C18.8878 4.75101 18.9438 4.78199 18.9981 4.81565C19.0717 4.86121 19.1471 4.90433 19.2173 4.95454C19.42 5.09933 19.5217 5.37074 19.4553 5.59776C19.426 5.69788 19.3742 5.78437 19.2932 5.85079C19.2104 5.91862 19.1174 5.96774 19.0107 5.98532C18.9313 5.9984 18.8512 6.00777 18.7586 6.02052Z" fill="#FFB031"/>
<path d="M19.2662 4.07043C19.2756 4.03401 19.2858 3.99979 19.293 3.96496C19.2994 3.9337 19.304 3.90187 19.3066 3.87004C19.3089 3.84093 19.297 3.81759 19.2668 3.80971C19.1903 3.78989 19.114 3.76945 19.0368 3.75281C19.001 3.74507 18.9878 3.75773 18.9775 3.79584C18.9681 3.83039 18.9599 3.86526 18.9504 3.89976C18.9426 3.92812 18.9337 3.9562 18.9255 3.98376C18.8913 3.98292 18.8632 3.98132 18.8351 3.9817C18.6167 3.9847 18.4516 4.07962 18.346 4.27157C18.28 4.3919 18.2721 4.51682 18.3422 4.63832C18.373 4.69167 18.4105 4.74262 18.4525 4.78762C18.5676 4.91085 18.7069 5.00503 18.8445 5.10065C18.8627 5.11331 18.8809 5.1261 18.8988 5.13932L19.0644 4.8555C19.0426 4.84223 19.0207 4.82896 18.9989 4.81551C18.9446 4.78185 18.8886 4.75087 18.835 4.71604C18.7869 4.68468 18.7498 4.64189 18.7254 4.58948C18.6894 4.51237 18.7159 4.42237 18.7856 4.3747C18.9264 4.27837 19.1918 4.32159 19.2591 4.50159C19.2606 4.50571 19.2622 4.50984 19.2637 4.51396L19.4485 4.19732C19.4152 4.16432 19.3756 4.13414 19.3284 4.10714C19.3092 4.09626 19.2903 4.08478 19.2662 4.07043Z" fill="#FFBB43"/>
<path d="M18.579 5.68611C18.5095 5.65518 18.456 5.60544 18.4379 5.52557C18.4271 5.47803 18.42 5.42943 18.4152 5.38096C18.4119 5.34866 18.4001 5.32808 18.3678 5.31978C18.2984 5.30202 18.2295 5.2828 18.16 5.26564C18.1421 5.26124 18.1226 5.25993 18.1041 5.26128C18.0658 5.26405 18.0469 5.2805 18.0471 5.31753C18.0478 5.39071 18.0419 5.46463 18.0642 5.5363C18.1152 5.70074 18.2129 5.82632 18.3685 5.90413C18.3882 5.91397 18.4074 5.92485 18.4307 5.93736C18.4303 5.9391 18.4298 5.94083 18.4294 5.94257L18.579 5.68611Z" fill="#FFBB43"/>
<path d="M15.9305 8.55624C15.9143 8.91563 15.8667 9.26635 15.7017 9.59105C15.5381 9.91304 15.2985 10.1619 14.9714 10.3187C14.7487 10.4255 14.5205 10.5203 14.2772 10.5711C13.9113 10.6476 13.5553 10.6074 13.2042 10.4852C12.835 10.3566 12.5139 10.1554 12.255 9.86255C11.8779 9.43594 11.7099 8.93916 11.7726 8.36832C11.8058 8.06583 11.9035 7.78768 12.0694 7.53263C12.2338 7.27983 12.4444 7.07283 12.7077 6.92897C12.8855 6.83185 13.0745 6.75301 13.2643 6.68119C13.5196 6.58454 13.7885 6.57183 14.0588 6.58843C14.1589 6.59457 14.2587 6.60591 14.3587 6.61458C14.536 6.62996 14.7069 6.6699 14.8648 6.75394C14.9244 6.78563 14.983 6.82158 15.0354 6.86377C15.1747 6.97594 15.3236 7.08019 15.4447 7.20994C15.6995 7.4828 15.847 7.81276 15.8961 8.18386C15.9124 8.30733 15.9193 8.43207 15.9305 8.55624Z" fill="#FFCC66"/>
<path d="M14.0591 6.58842C14.0277 6.5865 13.9964 6.585 13.9651 6.58392C13.9229 6.61983 13.8808 6.65578 13.8387 6.69178C13.7606 6.75867 13.6822 6.82542 13.6062 6.8947C13.5665 6.93094 13.563 6.96614 13.5886 6.99319C13.6123 7.01817 13.6438 7.01775 13.6824 6.98658C13.8425 6.85702 14.0024 6.72713 14.1615 6.5962C14.1274 6.59325 14.0933 6.59053 14.0591 6.58842Z" fill="#FFBB43"/>
<path d="M12.7662 6.8977C12.6948 7.03983 12.624 7.18228 12.5532 7.32474C12.5437 7.34386 12.535 7.36467 12.532 7.38553C12.5267 7.42172 12.5518 7.45022 12.5859 7.452C12.6226 7.45477 12.6367 7.43081 12.6514 7.40241C12.7549 7.20239 12.8594 7.00289 12.9637 6.80334C12.8969 6.83292 12.8309 6.86424 12.7662 6.8977Z" fill="#FFBB43"/>
<path d="M14.67 6.67327C14.6155 6.65635 14.5599 6.64322 14.5034 6.63333C14.3659 6.73294 14.229 6.83349 14.0921 6.93394C14.0751 6.94641 14.0582 6.96249 14.0484 6.98072C14.0264 7.02155 14.0556 7.06871 14.1092 7.0673C14.1199 7.0605 14.1383 7.04996 14.1555 7.03777C14.3255 6.91758 14.4952 6.79716 14.665 6.67674C14.6667 6.67552 14.6683 6.67439 14.67 6.67327Z" fill="#FFBB43"/>
<path d="M13.5828 6.60094C13.5124 6.61083 13.4426 6.62508 13.3737 6.64472C13.2765 6.76008 13.1796 6.87562 13.0828 6.99131C13.0691 7.00767 13.0565 7.02642 13.0493 7.0462C13.0388 7.07466 13.047 7.10442 13.0756 7.11455C13.095 7.12134 13.1207 7.11356 13.1426 7.10817C13.1511 7.10606 13.1569 7.0927 13.164 7.08455C13.2991 6.92873 13.4347 6.7732 13.5694 6.61692C13.5739 6.61162 13.5783 6.60633 13.5828 6.60094Z" fill="#FFBB43"/>
<path d="M15.2064 6.9989C15.1262 7.04423 15.046 7.08975 14.9663 7.13592C14.9218 7.1616 14.8793 7.19123 14.8386 7.2225C14.8032 7.24973 14.7961 7.28625 14.8146 7.3146C14.8333 7.34306 14.8653 7.34446 14.9077 7.32042C15.044 7.24321 15.1804 7.16639 15.3167 7.08932C15.2808 7.05839 15.2438 7.02843 15.2064 6.9989Z" fill="#FFBB43"/>
<path d="M15.4785 8.55943C15.4626 8.56908 15.4458 8.59102 15.4453 8.60799C15.4448 8.62524 15.46 8.64783 15.4751 8.65932C15.4883 8.6694 15.5107 8.66996 15.529 8.67015C15.6265 8.67108 15.8214 8.65955 15.8214 8.65402C15.8559 8.65402 15.8904 8.65416 15.925 8.65426C15.927 8.62168 15.9287 8.58896 15.9302 8.55624C15.9293 8.54588 15.9284 8.53548 15.9275 8.52512C15.7988 8.53205 15.6701 8.53904 15.5414 8.5464C15.5199 8.54762 15.4957 8.54888 15.4785 8.55943Z" fill="#FFBB43"/>
<path d="M15.6714 9.64688C15.5207 9.59063 15.3699 9.53471 15.2192 9.4786C15.2065 9.47387 15.1944 9.46763 15.1814 9.46398C15.1512 9.45549 15.128 9.46665 15.113 9.49318C15.0966 9.5221 15.1089 9.54563 15.1312 9.5649C15.1413 9.57366 15.1539 9.57971 15.1655 9.58669C15.3016 9.66807 15.4481 9.72273 15.5979 9.76871C15.6238 9.72948 15.6483 9.68888 15.6714 9.64688Z" fill="#FFBB43"/>
<path d="M15.8269 9.27135C15.723 9.23826 15.6185 9.20742 15.5139 9.1769C15.4726 9.16485 15.4294 9.15918 15.3937 9.15192C15.347 9.15206 15.3197 9.1717 15.3152 9.20348C15.3104 9.23657 15.3293 9.25903 15.3698 9.27182C15.5077 9.31551 15.6456 9.35943 15.7834 9.4034C15.7996 9.35981 15.814 9.31574 15.8269 9.27135Z" fill="#FFBB43"/>
<path d="M14.2669 10.5482C14.1987 10.4641 14.1303 10.3803 14.0625 10.2959C14.0408 10.2688 14.014 10.2587 13.9844 10.2764C13.9556 10.2937 13.9481 10.3224 13.9615 10.3543C13.9667 10.3667 13.9728 10.3792 13.9809 10.3897C14.0337 10.458 14.0865 10.5264 14.1395 10.5946C14.1854 10.5886 14.2315 10.5809 14.2776 10.5712C14.2799 10.5707 14.2821 10.5702 14.2844 10.5698C14.2785 10.5625 14.2727 10.5554 14.2669 10.5482Z" fill="#FFBB43"/>
<path d="M15.5591 7.34662C15.4653 7.39706 15.3715 7.44759 15.278 7.49859C15.2569 7.51007 15.2342 7.52381 15.2212 7.54274C15.211 7.55756 15.2078 7.58479 15.2144 7.60129C15.2209 7.61751 15.2438 7.62717 15.2576 7.63818C15.2807 7.63007 15.2967 7.62646 15.3108 7.61929C15.4186 7.56431 15.5263 7.50909 15.6338 7.45368C15.6105 7.41717 15.5855 7.38154 15.5591 7.34662Z" fill="#FFBB43"/>
<path d="M15.9016 8.89842C15.82 8.88867 15.7385 8.8793 15.6575 8.86983C15.6324 8.86688 15.607 8.86599 15.5817 8.86782C15.5726 8.86847 15.5637 8.8695 15.5551 8.87147C15.518 8.87991 15.4949 8.90972 15.4984 8.93977C15.5021 8.97188 15.5277 8.99072 15.5686 8.99203C15.5953 8.99288 15.6223 8.9926 15.6487 8.99602C15.7266 9.0061 15.8044 9.0165 15.8822 9.027C15.8896 8.98435 15.896 8.9415 15.9016 8.89842Z" fill="#FFBB43"/>
<path d="M13.6515 10.2909C13.6462 10.2814 13.6431 10.2674 13.6351 10.2636C13.6148 10.2538 13.5897 10.239 13.5714 10.2441C13.5532 10.2491 13.541 10.2758 13.5293 10.2893C13.5347 10.3122 13.5353 10.3267 13.5414 10.3383C13.586 10.4243 13.6301 10.5106 13.675 10.5965C13.7255 10.6025 13.7761 10.6065 13.8269 10.6086C13.7683 10.5027 13.71 10.3968 13.6515 10.2909Z" fill="#FFBB43"/>
<path d="M14.8899 6.76735C14.7989 6.8259 14.7079 6.88468 14.6174 6.94397C14.5698 6.9751 14.56 7.00482 14.5803 7.03665C14.6001 7.06758 14.6312 7.07035 14.6811 7.04522C14.6907 7.04035 14.7 7.03482 14.7093 7.02915C14.8099 6.96769 14.9107 6.90638 15.0111 6.84465C14.9727 6.81615 14.9317 6.7906 14.8899 6.76735Z" fill="#FFBB43"/>
<path d="M15.1189 9.76191C15.0925 9.74565 15.0684 9.74265 15.0451 9.76407C15.0192 9.78788 15.016 9.81746 15.0382 9.84371C15.0606 9.87029 15.0852 9.89733 15.1142 9.91562C15.1929 9.96516 15.2725 10.0133 15.3523 10.0613C15.3859 10.0301 15.418 9.99751 15.4487 9.96347C15.3387 9.8963 15.2286 9.82951 15.1189 9.76191Z" fill="#FFBB43"/>
<path d="M15.7971 7.7805C15.7818 7.73906 15.7649 7.69833 15.7465 7.65829C15.6495 7.69978 15.5527 7.74169 15.4559 7.78345C15.4211 7.79845 15.3854 7.81158 15.352 7.8292C15.3262 7.84284 15.3085 7.86867 15.3244 7.89637C15.336 7.91667 15.3612 7.92919 15.3764 7.94189C15.4053 7.93308 15.4238 7.92881 15.4413 7.92192C15.56 7.87509 15.6786 7.82798 15.7971 7.7805Z" fill="#FFBB43"/>
<path d="M15.1108 10.2425C15.0196 10.175 14.9277 10.1082 14.8362 10.041C14.8275 10.0347 14.8182 10.0238 14.8095 10.024C14.7871 10.0246 14.7604 10.0238 14.7436 10.0354C14.7185 10.0526 14.7208 10.0827 14.736 10.1082C14.7426 10.1195 14.7531 10.1292 14.7636 10.1373C14.8379 10.1952 14.9123 10.253 14.9867 10.3106C15.0296 10.2895 15.071 10.2668 15.1108 10.2425Z" fill="#FFBB43"/>
<path d="M14.5156 10.1652C14.5013 10.1509 14.4809 10.1428 14.4717 10.1371C14.4224 10.1398 14.3952 10.1777 14.4105 10.2128C14.421 10.2369 14.4391 10.2585 14.4571 10.2781C14.5148 10.3409 14.5728 10.4034 14.6309 10.4658C14.631 10.4658 14.631 10.4658 14.631 10.4658C14.6409 10.4621 14.6508 10.4583 14.6606 10.4544C14.6627 10.4536 14.6649 10.4528 14.667 10.452C14.6769 10.4481 14.6868 10.4442 14.6967 10.4402C14.6968 10.4401 14.697 10.4401 14.6971 10.44C14.7071 10.436 14.7171 10.4319 14.727 10.4278C14.7285 10.4272 14.73 10.4266 14.7314 10.426C14.7416 10.4218 14.7519 10.4175 14.7621 10.4131C14.6806 10.3299 14.5982 10.2474 14.5156 10.1652Z" fill="#FFBB43"/>
<path d="M13.4057 10.5462C13.3514 10.4339 13.2964 10.3217 13.2412 10.2098C13.2129 10.1524 13.1869 10.1363 13.1512 10.1515C13.114 10.1674 13.108 10.1966 13.1298 10.2562C13.1317 10.2613 13.1331 10.2666 13.1354 10.2715C13.1701 10.3469 13.2048 10.4222 13.2396 10.4976C13.2948 10.5159 13.3502 10.5322 13.4057 10.5462Z" fill="#FFBB43"/>
<path d="M15.8676 8.0468C15.7543 8.07624 15.641 8.10577 15.5276 8.13521C15.4892 8.14519 15.4669 8.16539 15.4712 8.20074C15.4753 8.23425 15.5036 8.2501 15.56 8.24972C15.5689 8.24892 15.5821 8.24921 15.5944 8.24639C15.6943 8.22333 15.7941 8.20017 15.8939 8.17683C15.8868 8.13291 15.8781 8.08955 15.8676 8.0468Z" fill="#FFBB43"/>
<path d="M12.916 10.0762C12.9022 10.0286 12.8818 10.0056 12.8486 10.0097C12.8154 10.0138 12.7943 10.0449 12.7949 10.0938C12.8075 10.171 12.8207 10.2497 12.8418 10.3269C12.8986 10.3575 12.9569 10.3858 13.0166 10.4119C12.9829 10.3 12.9486 10.1883 12.916 10.0762Z" fill="#FFBB43"/>
<path d="M15.6012 8.55867C15.5863 8.8897 15.5425 9.21272 15.3905 9.51183C15.2398 9.80836 15.0192 10.0376 14.7179 10.1821C14.5128 10.2804 14.3026 10.3677 14.0784 10.4145C13.7414 10.485 13.4136 10.448 13.0902 10.3354C12.7502 10.217 12.4544 10.0316 12.2159 9.76191C11.8685 9.36895 11.7138 8.91141 11.7716 8.38566C11.8022 8.10708 11.8922 7.85086 12.045 7.61592C12.1964 7.38309 12.3903 7.19241 12.6329 7.05989C12.7966 6.97045 12.9707 6.89784 13.1455 6.83166C13.3807 6.74259 13.6284 6.73092 13.8773 6.74625C13.9695 6.75192 14.0614 6.76233 14.1535 6.77034C14.3168 6.7845 14.4742 6.8213 14.6197 6.89869C14.6745 6.92789 14.7285 6.96098 14.7767 6.99984C14.905 7.10316 15.0422 7.19916 15.1537 7.31869C15.3883 7.57003 15.5242 7.87392 15.5694 8.21573C15.5845 8.32941 15.5909 8.4443 15.6012 8.55867Z" fill="#FFBB43"/>
<path d="M15.4362 8.56223C15.4226 8.86523 15.3825 9.16092 15.2433 9.43467C15.1054 9.70612 14.9035 9.91594 14.6276 10.0482C14.4399 10.1382 14.2475 10.218 14.0423 10.2609C13.7338 10.3254 13.4337 10.2915 13.1377 10.1885C12.8265 10.0801 12.5557 9.91041 12.3375 9.66352C12.0195 9.30384 11.8779 8.88502 11.9307 8.40375C11.9587 8.14875 12.0411 7.91423 12.181 7.69917C12.3196 7.48603 12.4971 7.31152 12.7191 7.1902C12.869 7.10831 13.0284 7.04184 13.1884 6.98128C13.4036 6.89977 13.6303 6.88908 13.8582 6.90309C13.9426 6.9083 14.0268 6.91781 14.111 6.92512C14.2605 6.93806 14.4046 6.97177 14.5377 7.04259C14.5879 7.06931 14.6373 7.09959 14.6815 7.13517C14.799 7.22972 14.9245 7.31761 15.0266 7.42701C15.2414 7.65708 15.3657 7.93523 15.4072 8.24812C15.421 8.35242 15.4268 8.45756 15.4362 8.56223Z" fill="#FFCC66"/>
<path d="M13.8286 9.60328C13.8286 9.66178 13.829 9.7275 13.8285 9.79322C13.8282 9.84713 13.8212 9.85608 13.7664 9.85603C13.693 9.85594 13.6195 9.8528 13.5461 9.84914C13.5025 9.84699 13.4912 9.83391 13.4906 9.78844C13.4897 9.72839 13.4904 9.6683 13.4904 9.60492C13.4647 9.59869 13.4434 9.59292 13.4218 9.58833C13.2517 9.552 13.1256 9.45492 13.0351 9.30853C12.9956 9.24474 12.9827 9.1717 12.9638 9.10102C12.9543 9.06525 12.9685 9.04458 13.0049 9.03225C13.0225 9.02635 13.0416 9.02269 13.0601 9.0225C13.1316 9.0217 13.2032 9.02302 13.2748 9.02283C13.3081 9.02274 13.3248 9.0397 13.336 9.07017C13.3528 9.11592 13.3719 9.1612 13.3942 9.20447C13.4352 9.28392 13.508 9.31805 13.592 9.32742C13.6856 9.33788 13.7799 9.32442 13.8609 9.27909C14.0548 9.17072 14.0742 8.97811 13.9214 8.82385C13.8558 8.75761 13.7677 8.72367 13.6807 8.69147C13.5236 8.63335 13.3651 8.57714 13.2229 8.48667C13.1709 8.45363 13.1218 8.41369 13.0787 8.36981C12.9804 8.26978 12.9567 8.14688 12.9906 8.0138C13.0446 7.8015 13.1807 7.66819 13.3914 7.61058C13.4185 7.60317 13.4461 7.59764 13.4794 7.58991C13.4804 7.56113 13.482 7.53174 13.4825 7.50235C13.483 7.46653 13.4822 7.43072 13.4826 7.39495C13.483 7.35549 13.4927 7.33992 13.5293 7.33842C13.6082 7.33519 13.6872 7.3358 13.7662 7.33584C13.7975 7.33584 13.8148 7.35549 13.8198 7.38427C13.8253 7.41572 13.8289 7.44769 13.8305 7.47956C13.8323 7.51509 13.8309 7.55077 13.8309 7.58841C13.858 7.59624 13.8791 7.60261 13.9004 7.60842C14.1527 7.67738 14.2549 7.86033 14.3241 8.09405C14.3345 8.12916 14.3203 8.1525 14.285 8.16375C14.2657 8.16989 14.2444 8.17247 14.2241 8.17242C14.1751 8.17233 14.1262 8.16863 14.0772 8.16844C14.0368 8.1683 14.0121 8.15292 13.9958 8.11331C13.9804 8.07567 13.9557 8.04136 13.9321 8.00766C13.8218 7.85025 13.5541 7.87495 13.442 8.00349C13.3864 8.06714 13.3833 8.16089 13.4374 8.22652C13.4742 8.27109 13.5208 8.30325 13.5753 8.32153C13.6359 8.34183 13.6978 8.35777 13.7589 8.37675C13.8415 8.40244 13.9252 8.42527 14.0059 8.45625C14.2384 8.54559 14.4048 8.78288 14.3973 9.01931C14.394 9.12356 14.3655 9.22031 14.3038 9.30488C14.2407 9.39127 14.1629 9.46214 14.064 9.50592C13.9903 9.53859 13.9151 9.5677 13.8286 9.60328Z" fill="#FFB031"/>
<path d="M13.8315 7.58836C13.8315 7.55072 13.8328 7.51505 13.831 7.47952C13.8294 7.44764 13.8258 7.41567 13.8204 7.38422C13.8153 7.35544 13.798 7.3358 13.7667 7.3358C13.6877 7.33575 13.6087 7.33514 13.5298 7.33838C13.4933 7.33988 13.4836 7.35544 13.4831 7.39491C13.4828 7.43072 13.4835 7.46653 13.483 7.5023C13.4826 7.53169 13.481 7.56108 13.4799 7.58986C13.4467 7.59764 13.419 7.60313 13.3919 7.61053C13.1813 7.66819 13.0451 7.80146 12.9911 8.01375C12.9572 8.14678 12.9809 8.26974 13.0792 8.36977C13.1223 8.41369 13.1715 8.45363 13.2234 8.48663C13.3657 8.5771 13.5241 8.6333 13.6812 8.69142C13.702 8.69911 13.7229 8.70694 13.7435 8.71524L13.8328 8.39892C13.8083 8.39157 13.7838 8.38421 13.7594 8.37661C13.6983 8.35763 13.6364 8.34169 13.5758 8.32139C13.5213 8.30311 13.4747 8.27096 13.4379 8.22638C13.3838 8.16075 13.3869 8.067 13.4424 8.00335C13.5546 7.87482 13.8223 7.85011 13.9326 8.00752C13.9351 8.01113 13.9376 8.01474 13.9402 8.01835L14.0397 7.66547C13.9992 7.64185 13.9533 7.62258 13.9009 7.60828C13.8797 7.60256 13.8585 7.59614 13.8315 7.58836Z" fill="#FFBB43"/>
<path d="M13.571 9.32457C13.496 9.31205 13.4317 9.27732 13.3942 9.20452C13.3719 9.16121 13.3528 9.11593 13.336 9.07022C13.3247 9.03976 13.3081 9.02283 13.2748 9.02288C13.2032 9.02307 13.1317 9.02176 13.0601 9.02255C13.0416 9.02274 13.0225 9.0264 13.0049 9.0323C12.9686 9.04458 12.9543 9.0653 12.9638 9.10107C12.9827 9.17176 12.9956 9.24479 13.0351 9.30858C13.1256 9.45502 13.2517 9.55205 13.4218 9.58838C13.4434 9.59297 13.4647 9.59869 13.4904 9.60497V9.61036L13.571 9.32457Z" fill="#FFBB43"/>
<path d="M6.33145 5.63695C6.45609 5.97441 6.54844 6.31608 6.52242 6.67945C6.49664 7.03973 6.37256 7.36214 6.13195 7.63383C5.96822 7.81875 5.79474 7.99472 5.59022 8.13619C5.28272 8.34886 4.93913 8.4502 4.56816 8.47402C4.17806 8.49905 3.804 8.43839 3.45178 8.26917C2.93859 8.02261 2.59097 7.63013 2.42709 7.07981C2.34028 6.7882 2.32228 6.49388 2.37614 6.19439C2.42953 5.89753 2.54316 5.62495 2.72995 5.39006C2.856 5.23148 2.99967 5.08538 3.14667 4.94541C3.34439 4.75711 3.58725 4.64091 3.84272 4.55119C3.93736 4.51795 4.03374 4.48959 4.12922 4.4587C4.29858 4.40395 4.47159 4.37438 4.64972 4.39041C4.71689 4.39645 4.78486 4.40681 4.84955 4.42533C5.02144 4.47455 5.19909 4.51275 5.36109 4.58527C5.70174 4.7377 5.96578 4.98445 6.15511 5.30728C6.21811 5.41467 6.27291 5.52689 6.33145 5.63695Z" fill="#FFCC66"/>
<path d="M3.84156 4.55115C3.81194 4.56156 3.7825 4.57234 3.75325 4.58349C3.72831 4.63299 3.70347 4.68249 3.67867 4.73204C3.63264 4.82406 3.58638 4.91602 3.54321 5.0094C3.52066 5.05824 3.53111 5.09204 3.56524 5.10699C3.59678 5.12082 3.62566 5.10816 3.64905 5.06448C3.74631 4.88284 3.84325 4.70101 3.93902 4.51852C3.90639 4.52902 3.87386 4.53981 3.84156 4.55115Z" fill="#FFBB43"/>
<path d="M2.77146 5.33828C2.76082 5.497 2.75084 5.65581 2.74095 5.81458C2.73964 5.8359 2.73968 5.8584 2.74503 5.87889C2.75421 5.91428 2.78839 5.93078 2.8205 5.9192C2.85537 5.90748 2.85912 5.87992 2.8616 5.848C2.87932 5.62347 2.89817 5.39903 2.91682 5.17459C2.86671 5.22784 2.81806 5.28231 2.77146 5.33828Z" fill="#FFBB43"/>
<path d="M4.43799 4.39163C4.38123 4.39721 4.32493 4.40673 4.26906 4.41957C4.18103 4.56479 4.09393 4.71062 4.00679 4.8564C3.99596 4.87454 3.98659 4.89587 3.98467 4.91649C3.98031 4.96266 4.02549 4.99477 4.07429 4.97265C4.08151 4.96224 4.09435 4.94537 4.10551 4.92741C4.21543 4.7506 4.32512 4.57365 4.43485 4.39674C4.43589 4.39501 4.43692 4.39332 4.43799 4.39163Z" fill="#FFBB43"/>
<path d="M3.40878 4.74722C3.34775 4.78369 3.28901 4.82396 3.23309 4.86886C3.18837 5.01291 3.14384 5.15705 3.09964 5.30129C3.0934 5.32168 3.089 5.34385 3.08998 5.36489C3.09143 5.39513 3.11051 5.41946 3.14084 5.41758C3.16133 5.41632 3.182 5.39916 3.20004 5.38571C3.20712 5.38046 3.20722 5.36588 3.21059 5.35561C3.27467 5.15949 3.33917 4.9635 3.40259 4.76719C3.40479 4.76054 3.40681 4.75388 3.40878 4.74722Z" fill="#FFBB43"/>
<path d="M5.05988 4.48294C5.00354 4.55588 4.94738 4.629 4.89179 4.7025C4.86085 4.74347 4.83315 4.78725 4.80774 4.83193C4.78566 4.87078 4.79331 4.90721 4.82143 4.9261C4.8496 4.94508 4.87965 4.93392 4.90946 4.8953C5.00504 4.77122 5.10099 4.64738 5.19667 4.52335C5.15152 4.50882 5.10582 4.4956 5.05988 4.48294Z" fill="#FFBB43"/>
<path d="M5.91631 5.81541C5.90548 5.83045 5.89849 5.85717 5.90464 5.87306C5.91087 5.88919 5.93365 5.90405 5.95198 5.90883C5.96801 5.913 5.98887 5.9048 6.00588 5.89786C6.09603 5.86088 6.27115 5.77449 6.26899 5.76938C6.30082 5.75597 6.3327 5.7427 6.36453 5.72935C6.35379 5.6985 6.34268 5.6677 6.33134 5.63695C6.32646 5.62777 6.32159 5.61853 6.31676 5.6093C6.20084 5.66569 6.08496 5.72217 5.96923 5.77899C5.94992 5.78846 5.92812 5.79905 5.91631 5.81541Z" fill="#FFBB43"/>
<path d="M6.51609 6.74237C6.35545 6.74912 6.19476 6.75615 6.03412 6.76304C6.02062 6.7636 6.00693 6.76262 5.99357 6.76426C5.96245 6.7682 5.94539 6.78746 5.94187 6.81775C5.93803 6.85075 5.95851 6.86767 5.9865 6.87676C5.99925 6.88089 6.01312 6.88164 6.02653 6.88351C6.18356 6.90559 6.33975 6.89903 6.4957 6.88318C6.50428 6.83701 6.51107 6.79004 6.51609 6.74237Z" fill="#FFBB43"/>
<path d="M6.51349 6.3362C6.40498 6.34604 6.29665 6.35823 6.18842 6.37079C6.14567 6.37576 6.10371 6.38729 6.06795 6.39451C6.02496 6.41279 6.00743 6.44148 6.01563 6.47256C6.02417 6.5049 6.05023 6.51821 6.09251 6.51432C6.23656 6.50096 6.38065 6.48788 6.52474 6.47481C6.52273 6.42826 6.51888 6.38209 6.51349 6.3362Z" fill="#FFBB43"/>
<path d="M5.5717 8.11927C5.47626 8.06827 5.38059 8.01764 5.28543 7.96618C5.25492 7.94968 5.22628 7.95075 5.20588 7.9786C5.18601 8.00569 5.19032 8.03513 5.21503 8.05927C5.22459 8.06864 5.23504 8.07778 5.24662 8.0843C5.32185 8.12672 5.39704 8.16924 5.47232 8.21147C5.51226 8.18813 5.55163 8.16305 5.59045 8.13619C5.59232 8.13488 5.5942 8.13357 5.59607 8.13225C5.58801 8.12789 5.57985 8.12358 5.5717 8.11927Z" fill="#FFBB43"/>
<path d="M5.51932 4.66641C5.45243 4.74933 5.38568 4.83235 5.31931 4.91569C5.3044 4.93444 5.2887 4.95601 5.2841 4.97846C5.28049 4.99604 5.28809 5.02238 5.3006 5.03504C5.31293 5.04746 5.33773 5.04746 5.3547 5.05229C5.37288 5.03583 5.3862 5.02632 5.39642 5.01418C5.47437 4.9216 5.55218 4.82893 5.62976 4.73602C5.59404 4.71146 5.55724 4.6883 5.51932 4.66641Z" fill="#FFBB43"/>
<path d="M6.43849 5.96321C6.35951 5.98595 6.2808 6.00896 6.20252 6.0317C6.17819 6.03877 6.15447 6.04782 6.13188 6.05926C6.12372 6.06338 6.11594 6.06779 6.10872 6.07299C6.07783 6.09521 6.06818 6.13163 6.08299 6.15793C6.09883 6.1861 6.12982 6.19351 6.16793 6.17884C6.19291 6.16923 6.21761 6.15849 6.24335 6.15137C6.31901 6.13041 6.39476 6.10974 6.47055 6.08921C6.4609 6.04702 6.45011 6.00502 6.43849 5.96321Z" fill="#FFBB43"/>
<path d="M4.90427 8.12087C4.89578 8.11416 4.88744 8.10249 4.87858 8.10202C4.85603 8.1009 4.82716 8.0971 4.81225 8.10887C4.79744 8.12059 4.79655 8.14993 4.79102 8.1669C4.80494 8.18588 4.81108 8.19896 4.82116 8.20735C4.89564 8.26923 4.9698 8.33162 5.04447 8.39331C5.09331 8.37924 5.14155 8.36326 5.18917 8.3454C5.09411 8.27068 4.99928 8.19568 4.90427 8.12087Z" fill="#FFBB43"/>
<path d="M4.6779 4.39313C4.61673 4.48247 4.55575 4.57196 4.49532 4.66182C4.46359 4.70902 4.46607 4.74019 4.49715 4.76161C4.52739 4.78242 4.55711 4.77286 4.59329 4.73035C4.60032 4.7221 4.60675 4.71333 4.61307 4.70456C4.68193 4.60885 4.75093 4.51322 4.81947 4.41727C4.77311 4.40592 4.72548 4.39833 4.6779 4.39313Z" fill="#FFBB43"/>
<path d="M6.05068 7.06356C6.02002 7.05883 5.99663 7.06543 5.9835 7.09426C5.96893 7.12628 5.97741 7.15473 6.00802 7.17034C6.039 7.18609 6.07214 7.20151 6.10599 7.20704C6.19777 7.22209 6.28983 7.23559 6.38194 7.24867C6.40083 7.20695 6.41775 7.16439 6.43285 7.12112C6.30544 7.1019 6.17799 7.0832 6.05068 7.06356Z" fill="#FFBB43"/>
<path d="M5.90742 4.97392C5.87718 4.94167 5.84582 4.91068 5.81334 4.88101C5.74012 4.95695 5.66718 5.03317 5.59415 5.10929C5.56795 5.13662 5.54011 5.16264 5.5162 5.19184C5.49773 5.21443 5.49145 5.24514 5.51681 5.2645C5.53537 5.27865 5.56345 5.28043 5.58243 5.28625C5.60564 5.26693 5.62106 5.25578 5.63446 5.24261C5.72564 5.15326 5.81667 5.06373 5.90742 4.97392Z" fill="#FFBB43"/>
<path d="M6.23062 7.50896C6.12032 7.48219 6.00974 7.45632 5.8993 7.43002C5.88885 7.42754 5.8761 7.42116 5.86808 7.42477C5.84769 7.43401 5.8228 7.44362 5.81183 7.46082C5.79547 7.48646 5.80916 7.51327 5.83307 7.53094C5.84357 7.53873 5.85697 7.5436 5.86982 7.54707C5.96076 7.57149 6.05174 7.59587 6.14277 7.62001C6.17404 7.58387 6.20333 7.54683 6.23062 7.50896Z" fill="#FFBB43"/>
<path d="M5.65224 7.66889C5.63353 7.66135 5.61159 7.66177 5.60091 7.66003C5.55656 7.68169 5.5462 7.72725 5.57395 7.7536C5.59294 7.77164 5.61802 7.78458 5.64225 7.79564C5.71978 7.83113 5.7975 7.86614 5.87531 7.90111L5.87536 7.90107C5.883 7.8938 5.89064 7.88649 5.89819 7.87913C5.89983 7.87753 5.90147 7.87594 5.90311 7.87435C5.91075 7.86694 5.91834 7.85949 5.92594 7.85199C5.92603 7.85189 5.92617 7.85175 5.92627 7.85166C5.93391 7.84407 5.9415 7.83647 5.94909 7.82878C5.95022 7.82766 5.95134 7.82653 5.95242 7.82541C5.9602 7.81753 5.96799 7.80961 5.97567 7.80169C5.86824 7.7565 5.76028 7.71253 5.65224 7.66889Z" fill="#FFBB43"/>
<path d="M4.77807 8.45148C4.68432 8.36908 4.59015 8.28714 4.49579 8.20543C4.44741 8.16353 4.41718 8.15875 4.39027 8.18664C4.36215 8.21579 4.36801 8.24504 4.41122 8.29145C4.41493 8.29544 4.4183 8.2997 4.42229 8.30336C4.48355 8.35933 4.54472 8.41534 4.60604 8.47122C4.66407 8.46662 4.7214 8.46011 4.77807 8.45148Z" fill="#FFBB43"/>
<path d="M6.07524 5.19156C5.98224 5.26272 5.88928 5.33397 5.79628 5.40517C5.76474 5.42931 5.75208 5.45659 5.76975 5.48748C5.78653 5.51678 5.81874 5.52039 5.87053 5.49812C5.87841 5.49395 5.89078 5.48903 5.901 5.48167C5.98406 5.42157 6.06708 5.36143 6.14995 5.30115C6.12633 5.26342 6.10144 5.22686 6.07524 5.19156Z" fill="#FFBB43"/>
<path d="M4.14301 8.20885C4.11179 8.17041 4.08404 8.15714 4.05512 8.17378C4.02606 8.19047 4.0187 8.22727 4.03829 8.27217C4.07982 8.33841 4.12253 8.40577 4.17198 8.46867C4.23615 8.47481 4.30089 8.47824 4.36609 8.47913C4.29161 8.38913 4.21661 8.29955 4.14301 8.20885Z" fill="#FFBB43"/>
<path d="M6.02853 5.76712C6.14333 6.07795 6.22836 6.39262 6.20441 6.72731C6.18064 7.05913 6.06636 7.35613 5.84478 7.60635C5.69399 7.77665 5.53419 7.93879 5.3458 8.06906C5.06258 8.26495 4.74613 8.35827 4.40441 8.38021C4.04511 8.40323 3.70058 8.3474 3.37616 8.19154C2.90347 7.96448 2.58332 7.60293 2.43238 7.09607C2.35241 6.82748 2.33586 6.5564 2.38546 6.28054C2.43463 6.00712 2.5393 5.75606 2.71133 5.53968C2.82744 5.39362 2.95977 5.25904 3.09514 5.13013C3.27725 4.9567 3.50094 4.84963 3.73625 4.76704C3.82344 4.73643 3.91218 4.71032 4.00016 4.68187C4.15611 4.63143 4.31549 4.6042 4.47955 4.61896C4.54143 4.62454 4.604 4.63406 4.66358 4.65112C4.82188 4.69645 4.98557 4.73165 5.13477 4.7984C5.44855 4.93879 5.69174 5.16604 5.86611 5.46341C5.92419 5.56237 5.97463 5.66577 6.02853 5.76712Z" fill="#FFBB43"/>
<path d="M5.87985 5.83425C5.98495 6.11878 6.06276 6.40683 6.04087 6.71315C6.01912 7.0169 5.91454 7.28873 5.71167 7.51781C5.57362 7.67372 5.42737 7.82207 5.25496 7.94132C4.9957 8.12062 4.70606 8.20607 4.39326 8.22614C4.06439 8.24723 3.74901 8.19609 3.45206 8.05345C3.0194 7.84561 2.72634 7.51467 2.58815 7.0507C2.51493 6.80484 2.49979 6.55673 2.54521 6.30422C2.59021 6.05395 2.68603 5.82412 2.84353 5.62607C2.94979 5.49239 3.07092 5.3692 3.19485 5.25117C3.36154 5.0924 3.56629 4.99443 3.78168 4.91882C3.86151 4.89079 3.94274 4.86689 4.02323 4.84087C4.16601 4.7947 4.31189 4.76976 4.46203 4.78331C4.51865 4.78842 4.57593 4.79714 4.6305 4.81275C4.77539 4.85423 4.9252 4.88643 5.06179 4.94756C5.34899 5.07609 5.5716 5.28407 5.73121 5.55628C5.78432 5.64684 5.8305 5.74148 5.87985 5.83425Z" fill="#FFCC66"/>
<path d="M4.80121 7.41881C4.82395 7.47272 4.84977 7.53314 4.87485 7.59389C4.89543 7.64372 4.89252 7.65469 4.84199 7.67592C4.7743 7.70437 4.7054 7.73001 4.63635 7.75519C4.59534 7.77014 4.57982 7.76245 4.56159 7.72083C4.53749 7.6658 4.51476 7.6102 4.49015 7.5518C4.46404 7.55601 4.4422 7.55901 4.42059 7.56314C4.24968 7.59581 4.09584 7.55536 3.95554 7.45565C3.89441 7.4122 3.85415 7.3499 3.80934 7.29211C3.78665 7.26286 3.79176 7.23825 3.82049 7.2128C3.83437 7.20051 3.85059 7.18973 3.86755 7.18237C3.93318 7.15383 3.99965 7.12725 4.06551 7.09926C4.09616 7.08623 4.1181 7.09537 4.14027 7.11909C4.17355 7.15467 4.20871 7.18903 4.24607 7.2202C4.3147 7.27748 4.39499 7.28062 4.47604 7.25667C4.56641 7.2299 4.64802 7.18083 4.70512 7.10761C4.84171 6.93239 4.7848 6.74737 4.58409 6.66459C4.49793 6.62906 4.40362 6.63201 4.3109 6.63619C4.14355 6.64369 3.97574 6.65348 3.80952 6.6254C3.74882 6.61514 3.68807 6.59742 3.63126 6.57375C3.50188 6.51975 3.43227 6.41573 3.41184 6.27994C3.37921 6.06333 3.4529 5.88759 3.62465 5.75259C3.64677 5.7352 3.67007 5.7194 3.69773 5.69934C3.68751 5.67244 3.67757 5.64473 3.66655 5.61745C3.65315 5.58426 3.63852 5.55155 3.62498 5.5184C3.61002 5.48189 3.61293 5.46375 3.64602 5.44819C3.71746 5.41458 3.79054 5.38439 3.86329 5.35373C3.89212 5.34159 3.91574 5.35294 3.93149 5.3775C3.94874 5.40436 3.96449 5.43239 3.97832 5.46117C3.99374 5.49319 4.00635 5.52661 4.02093 5.5613C4.04887 5.55797 4.07085 5.55567 4.09269 5.55276C4.35191 5.51826 4.5172 5.64712 4.6717 5.83556C4.6949 5.86387 4.69091 5.89087 4.66274 5.91497C4.64732 5.92814 4.62876 5.93878 4.60996 5.94665C4.56482 5.96559 4.51827 5.9812 4.47309 6.00005C4.43577 6.01561 4.40709 6.01101 4.37671 5.98087C4.34784 5.95223 4.31179 5.9302 4.27696 5.90831C4.11426 5.80612 3.87712 5.93292 3.82373 6.09497C3.79729 6.17522 3.83076 6.26283 3.90613 6.3023C3.95732 6.32911 4.01277 6.34059 4.0701 6.33628C4.13376 6.33145 4.19709 6.32208 4.26069 6.31584C4.34676 6.3074 4.43282 6.29587 4.51912 6.29311C4.76807 6.28509 5.01351 6.43903 5.09844 6.65981C5.1359 6.75717 5.1472 6.85739 5.1231 6.95934C5.09849 7.0635 5.05438 7.15903 4.98027 7.23778C4.92501 7.29633 4.86702 7.35239 4.80121 7.41881Z" fill="#FFB031"/>
<path d="M4.02093 5.5612C4.0063 5.52652 3.99374 5.49309 3.97832 5.46108C3.96445 5.43234 3.94874 5.40427 3.93149 5.37741C3.9157 5.35284 3.89207 5.3415 3.86329 5.35364C3.79049 5.3843 3.71741 5.41444 3.64602 5.44809C3.61293 5.46366 3.61002 5.4818 3.62498 5.51831C3.63852 5.55145 3.65315 5.58417 3.66655 5.61736C3.67757 5.64464 3.68755 5.67234 3.69773 5.69925C3.67007 5.71931 3.64673 5.73516 3.62465 5.7525C3.4529 5.8875 3.37921 6.06323 3.41184 6.27984C3.43227 6.41559 3.50188 6.51966 3.63126 6.57366C3.68807 6.59738 3.74882 6.61505 3.80952 6.62531C3.97574 6.65339 4.14355 6.64359 4.3109 6.63609C4.33307 6.63511 4.35534 6.63417 4.37755 6.63384L4.33701 6.30769C4.31155 6.31041 4.28615 6.31317 4.26069 6.31566C4.19709 6.32189 4.1338 6.33131 4.0701 6.33609C4.01282 6.34045 3.95732 6.32892 3.90613 6.30211C3.8308 6.26264 3.79729 6.17503 3.82373 6.09478C3.87716 5.93278 4.11426 5.80594 4.27696 5.90813C4.28066 5.91047 4.28441 5.91281 4.28816 5.91516L4.24293 5.55131C4.19643 5.54531 4.14665 5.54541 4.09279 5.55258C4.07085 5.55558 4.04887 5.55788 4.02093 5.5612Z" fill="#FFBB43"/>
<path d="M4.45537 7.26206C4.38136 7.27968 4.30865 7.27265 4.24584 7.22015C4.20844 7.18893 4.17333 7.15462 4.14004 7.11904C4.11787 7.09532 4.09594 7.08618 4.06528 7.09921C3.99942 7.1272 3.93295 7.15378 3.86733 7.18232C3.8504 7.18968 3.83414 7.20051 3.82026 7.21275C3.79153 7.23825 3.78642 7.26281 3.80911 7.29206C3.85397 7.34986 3.89419 7.41215 3.95531 7.45561C4.09561 7.55531 4.24945 7.59576 4.42036 7.56309C4.44197 7.55896 4.46386 7.55597 4.48992 7.55175C4.49062 7.55343 4.49133 7.55507 4.49198 7.55672L4.45537 7.26206Z" fill="#FFBB43"/>
</svg>
