<svg width="24" height="24" viewBox="0 0 24 24" fill="none" xmlns="http://www.w3.org/2000/svg">
<g clip-path="url(#clip0_8213_5251)">
<path d="M19.5707 4.9129C17.6776 3.01978 15.1608 1.97736 12.4836 1.97736C9.80658 1.97736 7.28961 3.01978 5.39648 4.9129C3.50354 6.80603 2.46094 9.32281 2.46094 12C2.46094 14.677 3.50354 17.194 5.39648 19.0871C7.28961 20.98 9.80658 22.0226 12.4836 22.0226C15.1608 22.0226 17.6776 20.98 19.5707 19.0871C21.4638 17.194 22.5062 14.677 22.5062 12C22.5064 9.32281 21.4638 6.80603 19.5707 4.9129ZM15.0304 15.0504H9.93695C9.65881 15.0504 9.43323 14.8248 9.43323 14.5466V9.45319C9.43323 9.17505 9.65881 8.94965 9.93695 8.94965H15.0304C15.3085 8.94965 15.5341 9.17505 15.5341 9.45319V14.5466C15.5341 14.8248 15.3085 15.0504 15.0304 15.0504Z" fill="#FFF692"/>
<path d="M19.5709 4.9129C19.4542 4.79626 19.3352 4.68292 19.2138 4.57269C20.8912 6.41968 21.8093 8.79071 21.8093 11.3027C21.8093 13.9799 20.7667 16.4967 18.8738 18.3898C16.9807 20.283 14.4637 21.3254 11.7867 21.3254C9.27448 21.3254 6.90344 20.4073 5.05664 18.73C5.16669 18.8513 5.28003 18.9705 5.39667 19.0871C7.28979 20.98 9.80676 22.0226 12.4838 22.0226C15.1609 22.0226 17.6777 20.98 19.5709 19.0871C21.464 17.194 22.5066 14.677 22.5066 12C22.5066 9.32281 21.464 6.80603 19.5709 4.9129Z" fill="#FFF263"/>
<path d="M12.4828 3.98181C8.05463 3.98181 4.46484 7.57178 4.46484 12C4.46484 16.4282 8.05463 20.0182 12.4828 20.0182C16.9113 20.0182 20.501 16.4282 20.501 12C20.501 7.57178 16.9113 3.98181 12.4828 3.98181ZM15.0297 15.0504H9.93622C9.65808 15.0504 9.4325 14.8248 9.4325 14.5466V9.45319C9.4325 9.17505 9.65808 8.94965 9.93622 8.94965H15.0297C15.3078 8.94965 15.5334 9.17505 15.5334 9.45319V14.5466C15.5334 14.8248 15.3078 15.0504 15.0297 15.0504Z" fill="#FFE046"/>
<path d="M5.18372 12.7191C5.18372 8.29065 8.77368 4.70087 13.2019 4.70087C15.2331 4.70087 17.0876 5.45654 18.5004 6.70148C17.0312 5.03412 14.8801 3.98181 12.4828 3.98181C8.05463 3.98181 4.46484 7.57178 4.46484 12C4.46484 14.397 5.51697 16.5482 7.18451 18.0174C5.93939 16.6046 5.18372 14.7502 5.18372 12.7191Z" fill="#FFD508"/>
<path d="M23.0423 2.26501L23.4118 2.11322C23.5783 2.04474 23.5783 1.80908 23.4118 1.7406L23.0423 1.58881C22.6115 1.41174 22.2755 1.0611 22.1167 0.623108L21.9391 0.132751C21.875 -0.0443115 21.6245 -0.0443115 21.5603 0.132751L21.3826 0.623108C21.2241 1.06091 20.8879 1.41174 20.457 1.58881L20.0877 1.7406C19.9213 1.80908 19.9213 2.04474 20.0877 2.11322L20.457 2.26501C20.8879 2.44208 21.2241 2.79272 21.3826 3.23071L21.5603 3.72107C21.6245 3.89813 21.875 3.89813 21.9391 3.72107L22.1167 3.23071C22.2755 2.79291 22.6115 2.44208 23.0423 2.26501Z" fill="#FFF692"/>
<path d="M3.5013 22.4112L3.8708 22.2594C4.03725 22.1909 4.03725 21.9553 3.8708 21.8868L3.5013 21.735C3.07063 21.5579 2.73445 21.2073 2.5757 20.7693L2.39809 20.2791C2.334 20.1019 2.08351 20.1019 2.01924 20.2791L1.84163 20.7693C1.68306 21.2073 1.34688 21.5579 0.916031 21.735L0.546707 21.8868C0.380264 21.9553 0.380264 22.1909 0.546707 22.2594L0.916031 22.4112C1.34688 22.5883 1.68288 22.9389 1.84163 23.3769L2.01924 23.8672C2.08351 24.0443 2.334 24.0443 2.39809 23.8672L2.5757 23.3769C2.73445 22.9389 3.07063 22.5883 3.5013 22.4112Z" fill="#FFF692"/>
<path d="M13.7469 6.27686H11.2195C11.0108 6.27686 10.8418 6.10785 10.8418 5.89911C10.8418 5.69055 11.0108 5.52155 11.2195 5.52155H13.7469C13.9555 5.52155 14.1247 5.69055 14.1247 5.89911C14.1247 6.10785 13.9555 6.27686 13.7469 6.27686Z" fill="#FFD508"/>
<path d="M13.7469 7.80212H11.2195C11.0108 7.80212 10.8418 7.63312 10.8418 7.42438C10.8418 7.21582 11.0108 7.04663 11.2195 7.04663H13.7469C13.9555 7.04663 14.1247 7.21582 14.1247 7.42438C14.1247 7.63312 13.9555 7.80212 13.7469 7.80212Z" fill="#FFD508"/>
<path d="M18.5828 13.6414C18.3741 13.6414 18.2051 13.4724 18.2051 13.2638V10.7364C18.2051 10.5276 18.3741 10.3586 18.5828 10.3586C18.7914 10.3586 18.9606 10.5276 18.9606 10.7364V13.2638C18.9606 13.4724 18.7914 13.6414 18.5828 13.6414Z" fill="#FFD508"/>
<path d="M17.0574 13.6414C16.8489 13.6414 16.6797 13.4724 16.6797 13.2638V10.7364C16.6797 10.5276 16.8489 10.3586 17.0574 10.3586C17.266 10.3586 17.4352 10.5276 17.4352 10.7364V13.2638C17.4352 13.4724 17.266 13.6414 17.0574 13.6414Z" fill="#FFD508"/>
<path d="M13.7469 18.4785H11.2195C11.0108 18.4785 10.8418 18.3094 10.8418 18.1009C10.8418 17.8922 11.0108 17.7231 11.2195 17.7231H13.7469C13.9555 17.7231 14.1247 17.8922 14.1247 18.1009C14.1247 18.3094 13.9555 18.4785 13.7469 18.4785Z" fill="#FFD508"/>
<path d="M13.7469 16.9534H11.2195C11.0108 16.9534 10.8418 16.7842 10.8418 16.5756C10.8418 16.3669 11.0108 16.1979 11.2195 16.1979H13.7469C13.9555 16.1979 14.1247 16.3669 14.1247 16.5756C14.1247 16.7842 13.9555 16.9534 13.7469 16.9534Z" fill="#FFD508"/>
<path d="M6.38165 13.6414C6.17291 13.6414 6.00391 13.4724 6.00391 13.2638V10.7364C6.00391 10.5276 6.17291 10.3586 6.38165 10.3586C6.59021 10.3586 6.7594 10.5276 6.7594 10.7364V13.2638C6.7594 13.4724 6.59021 13.6414 6.38165 13.6414Z" fill="#FFD508"/>
<path d="M7.90686 13.6414C7.6983 13.6414 7.5293 13.4724 7.5293 13.2638V10.7364C7.5293 10.5276 7.6983 10.3586 7.90686 10.3586C8.1156 10.3586 8.28461 10.5276 8.28461 10.7364V13.2638C8.28479 13.4724 8.1156 13.6414 7.90686 13.6414Z" fill="#FFD508"/>
</g>
<defs>
<clipPath id="clip0_8213_5251">
<rect width="24" height="24" fill="white"/>
</clipPath>
</defs>
</svg>
