<svg width="24" height="24" viewBox="0 0 24 24" fill="none" xmlns="http://www.w3.org/2000/svg">
<path d="M12 23.25C15.3137 23.25 18 20.5637 18 17.25C18 13.9363 15.3137 11.25 12 11.25C8.68629 11.25 6 13.9363 6 17.25C6 20.5637 8.68629 23.25 12 23.25Z" fill="#F19436"/>
<path d="M12.0006 22.5C15.3038 22.5 17.9817 19.9816 17.9817 16.875C17.9817 13.7684 15.3038 11.25 12.0006 11.25C8.69734 11.25 6.01953 13.7684 6.01953 16.875C6.01953 19.9816 8.69734 22.5 12.0006 22.5Z" fill="#F5B53F"/>
<path d="M12 21.75C14.4853 21.75 16.5 19.7353 16.5 17.25C16.5 14.7647 14.4853 12.75 12 12.75C9.51472 12.75 7.5 14.7647 7.5 17.25C7.5 19.7353 9.51472 21.75 12 21.75Z" fill="#C8CDED"/>
<path d="M12.0006 21C14.4754 21 16.4817 19.1532 16.4817 16.875C16.4817 14.5968 14.4754 12.75 12.0006 12.75C9.52577 12.75 7.51953 14.5968 7.51953 16.875C7.51953 19.1532 9.52577 21 12.0006 21Z" fill="#E2E7F6"/>
<path d="M11.9997 11.25C12.447 11.2512 12.8928 11.3024 13.3287 11.4027L12.7497 9.375H11.2497L10.6699 11.4029C11.1061 11.3025 11.5521 11.2512 11.9997 11.25Z" fill="#C8CDED"/>
<path d="M16.875 0.75L12 7.875L15 7.87537L21.75 0.75H16.875Z" fill="#469C65"/>
<path d="M16.875 0.75H7.125L8.92106 3.375H15.0789L16.875 0.75Z" fill="#66DD90"/>
<path d="M15.0001 7.87523L21.75 0.75H18L13.125 7.875L15.0001 7.87523Z" fill="#58C17E"/>
<path d="M7.125 0.75H2.25L9 7.87537L12 7.875L7.125 0.75Z" fill="#469C65"/>
<path d="M12 7.875L7.125 0.75H3.375L10.1249 7.87523L12 7.875Z" fill="#58C17E"/>
<path d="M15.75 7.87538H8.25C7.83579 7.87538 7.5 8.21117 7.5 8.62538C7.5 9.0396 7.83579 9.37538 8.25 9.37538H15.75C16.1642 9.37538 16.5 9.0396 16.5 8.62538C16.5 8.21117 16.1642 7.87538 15.75 7.87538Z" fill="#B0322F"/>
<path d="M16.5 8.62538C16.5 8.42647 16.421 8.2357 16.2803 8.09505C16.1397 7.9544 15.9489 7.87538 15.75 7.87538H9C8.80109 7.87538 8.61032 7.9544 8.46967 8.09505C8.32902 8.2357 8.25 8.42647 8.25 8.62538C8.25 8.82429 8.32902 9.01506 8.46967 9.15571C8.61032 9.29636 8.80109 9.37538 9 9.37538H15.75C15.9489 9.37538 16.1397 9.29636 16.2803 9.15571C16.421 9.01506 16.5 8.82429 16.5 8.62538Z" fill="#D83B3E"/>
<path d="M9.75 19.125L9 16.125L10.875 16.875L12 15.375L13.125 16.875L15 16.125L14.25 19.125H9.75Z" fill="#F19436"/>
<path d="M13.1256 16.875L12.0006 15.375L10.8756 16.875L9.83398 16.4583L10.2876 18.2729C10.3484 18.5163 10.4889 18.7323 10.6867 18.8867C10.8844 19.0411 11.1281 19.125 11.379 19.125H14.2506L15.0006 16.125L13.1256 16.875Z" fill="#F5B53F"/>
<path d="M12.0007 18.3739C11.9015 18.3739 11.8065 18.3345 11.7364 18.2644C11.6663 18.1942 11.6269 18.0991 11.627 18V17.6254C11.627 17.5263 11.6663 17.4312 11.7364 17.3611C11.8065 17.291 11.9016 17.2516 12.0007 17.2516C12.0998 17.2516 12.1949 17.291 12.265 17.3611C12.335 17.4312 12.3744 17.5263 12.3744 17.6254V18C12.3744 18.0991 12.3351 18.1942 12.265 18.2644C12.1949 18.3345 12.0998 18.3739 12.0007 18.3739Z" fill="#F3D16E"/>
</svg>
