<svg width="23" height="25" viewBox="0 0 23 25" fill="none" xmlns="http://www.w3.org/2000/svg">
<path d="M14.4865 12.74H14.6055C16.8115 12.74 18.6055 10.946 18.6055 8.73999V4.73999C18.6055 2.53399 16.8115 0.73999 14.6055 0.73999H8.60547C6.40047 0.73999 4.60547 2.53399 4.60547 4.73999V8.73999C4.60547 10.946 6.39947 12.74 8.60547 12.74H8.75947L10.5945 14.357C10.8845 14.613 11.2465 14.741 11.6085 14.741C11.9675 14.741 12.3255 14.615 12.6075 14.365L14.4865 12.74ZM9.79847 10.99C9.61547 10.829 9.38147 10.74 9.13747 10.74H8.60547C7.50247 10.74 6.60547 9.84299 6.60547 8.73999V4.73999C6.60547 3.63699 7.50247 2.73999 8.60547 2.73999H14.6055C15.7085 2.73999 16.6055 3.63699 16.6055 4.73999V8.73999C16.6055 9.84299 15.7085 10.74 14.6055 10.74H14.1135C13.8735 10.74 13.6415 10.827 13.4595 10.983L11.6075 12.585L9.79847 10.99ZM14.8395 6.41999L12.3075 9.15399C11.9165 9.54099 11.4125 9.73199 10.9135 9.73199C10.4295 9.73199 9.94947 9.55099 9.58147 9.19199L8.37947 7.92799C7.99947 7.52799 8.01547 6.89499 8.41547 6.51499C8.81547 6.13399 9.44847 6.15099 9.82947 6.55099L10.9245 7.70299L13.3705 5.05899C13.7455 4.65299 14.3785 4.62899 14.7835 5.00499C15.1885 5.37999 15.2135 6.01299 14.8385 6.41799L14.8395 6.41999ZM5.60547 14.74C2.84447 14.74 0.605469 16.979 0.605469 19.74C0.605469 22.501 2.84447 24.74 5.60547 24.74C8.36647 24.74 10.6055 22.501 10.6055 19.74C10.6055 16.979 8.36647 14.74 5.60547 14.74ZM7.64647 22.518C7.41447 22.518 7.20747 22.37 7.13247 22.15L6.87847 21.407H4.33447L4.08047 22.15C4.00547 22.37 3.79847 22.518 3.56547 22.518C3.19347 22.518 2.93147 22.153 3.05047 21.801L4.40447 17.767C4.69747 17.1 5.09747 16.963 5.60647 16.963C6.11547 16.963 6.51547 17.1 6.80047 17.747L8.16247 21.802C8.28047 22.154 8.01847 22.519 7.64747 22.519L7.64647 22.518ZM5.76547 18.156L6.49747 20.295H4.71347L5.43847 18.174C5.46147 18.127 5.55047 18.072 5.60547 18.072C5.66247 18.072 5.74747 18.12 5.76547 18.156ZM18.1615 19.184H16.4945V18.628C16.4945 18.321 16.7435 18.072 17.0505 18.072H18.1365C18.4265 18.072 18.6855 18.283 18.7145 18.571C18.7475 18.902 18.4865 19.184 18.1615 19.184ZM19.2695 20.907C19.2405 21.195 18.9825 21.406 18.6925 21.406H17.0495C16.7425 21.406 16.4945 21.157 16.4945 20.85V20.294H18.7165C19.0415 20.294 19.3025 20.576 19.2695 20.907ZM17.6055 14.74C14.8445 14.74 12.6055 16.979 12.6055 19.74C12.6055 22.501 14.8445 24.74 17.6055 24.74C20.3665 24.74 22.6055 22.501 22.6055 19.74C22.6055 16.979 20.3665 14.74 17.6055 14.74ZM18.6725 22.518H17.1605C16.1785 22.518 15.3825 21.722 15.3825 20.74V18.74C15.3825 17.758 16.1785 16.962 17.2655 16.962H18.1135C19.0245 16.962 19.8025 17.673 19.8265 18.584C19.8345 18.898 19.7555 19.193 19.6125 19.447C20.1105 19.766 20.4295 20.343 20.3775 20.988C20.3075 21.861 19.5475 22.518 18.6725 22.518Z" fill="white"/>
</svg>
