<svg width="430" height="141" viewBox="0 0 430 141" fill="none" xmlns="http://www.w3.org/2000/svg">
<path d="M55.4688 118.7C53.2688 118.7 51.5688 118.033 50.3688 116.7C49.1688 115.3 48.3021 113.067 47.7688 110C47.3021 106.867 47.0687 102.7 47.0687 97.5C47.0687 87.4333 47.6354 78.8 48.7688 71.6C49.9021 64.3333 51.8354 58.7 54.5688 54.7C57.2354 50.8333 60.6021 48.1 64.6688 46.5C68.8021 44.9 73.2688 44.1 78.0688 44.1C86.2021 44.1 92.2021 46 96.0688 49.8C99.9354 53.6 101.869 58.5667 101.869 64.7C101.869 70.1667 100.435 74.6333 97.5688 78.1C94.7021 81.5667 90.8354 84 85.9688 85.4C81.1688 86.7333 75.8021 87.0667 69.8687 86.4V86.8C81.0688 91.6 89.1021 96.1333 93.9688 100.4C98.9021 104.6 101.369 108.233 101.369 111.3C101.369 113.167 100.735 114.667 99.4688 115.8C98.2688 116.933 96.5688 117.5 94.3688 117.5C91.7021 117.5 88.7021 116.6 85.3688 114.8C82.0354 113 78.3354 110 74.2688 105.8C70.2688 101.6 65.8354 95.9333 60.9688 88.8H60.5688C60.9021 90.2667 61.1688 92.1 61.3688 94.3C61.6354 96.4333 61.8354 98.6333 61.9688 100.9C62.1688 103.167 62.2688 105.3 62.2688 107.3C62.2688 110.967 61.7354 113.8 60.6688 115.8C59.6688 117.733 57.9354 118.7 55.4688 118.7ZM72.8688 77.3C75.7354 77.3 78.3354 76.8333 80.6688 75.9C83.0021 74.9 84.8688 73.5333 86.2688 71.8C87.6688 70 88.3688 67.9 88.3688 65.5C88.3688 62.3667 87.3021 59.8667 85.1688 58C83.0354 56.1333 79.8354 55.2 75.5688 55.2C72.7021 55.2 70.2688 55.8333 68.2688 57.1C66.2688 58.3 64.7354 59.9 63.6688 61.9C62.6688 63.9 62.1688 66.0667 62.1688 68.4C62.1688 71 63.0354 73.1333 64.7688 74.8C66.5021 76.4667 69.2021 77.3 72.8688 77.3ZM114.315 122.7C112.382 122.7 110.882 121.967 109.815 120.5C108.748 119.033 108.215 116.367 108.215 112.5C108.215 109.633 108.548 106.433 109.215 102.9C109.882 99.3 110.848 95.5333 112.115 91.6C113.382 87.6 114.915 83.5333 116.715 79.4C118.515 75.2 120.548 71.0667 122.815 67C125.148 62.8 127.315 59.4 129.315 56.8C131.315 54.1333 133.282 52.2 135.215 51C137.215 49.7333 139.282 49.1 141.415 49.1C144.615 49.1 147.515 50.5 150.115 53.3C152.782 56.0333 155.148 60.4333 157.215 66.5C158.748 70.7667 160.048 75.2667 161.115 80C162.248 84.6667 163.115 89.4333 163.715 94.3C164.315 99.1667 164.615 104.033 164.615 108.9C164.615 112.967 163.915 115.967 162.515 117.9C161.182 119.767 159.315 120.7 156.915 120.7C154.582 120.7 152.782 119.667 151.515 117.6C150.248 115.533 149.348 112.1 148.815 107.3C148.615 105.167 148.482 102.967 148.415 100.7C148.415 98.3667 148.482 96.1667 148.615 94.1L150.515 101.8C148.182 102.6 145.248 103.133 141.715 103.4C138.248 103.6 134.615 103.533 130.815 103.2C127.082 102.8 123.582 102.1 120.315 101.1L125.615 94.3C125.482 96.9667 125.215 99.5667 124.815 102.1C124.482 104.567 124.115 106.867 123.715 109C123.182 111.933 122.548 114.433 121.815 116.5C121.082 118.567 120.115 120.1 118.915 121.1C117.782 122.167 116.248 122.7 114.315 122.7ZM136.815 91.6C141.215 91.6 144.315 90.8 146.115 89.2C147.982 87.5333 148.915 84.5 148.915 80.1C148.915 77.8333 148.682 75.5667 148.215 73.3C147.748 71.0333 147.115 68.9667 146.315 67.1C145.515 65.1667 144.548 63.6333 143.415 62.5C142.348 61.3667 141.215 60.8 140.015 60.8C138.282 60.8 136.648 61.6333 135.115 63.3C133.582 64.9 132.215 66.9333 131.015 69.4C129.815 71.8667 128.848 74.3667 128.115 76.9C127.448 79.4333 127.115 81.6 127.115 83.4C127.115 86.0667 127.915 88.1 129.515 89.5C131.115 90.9 133.548 91.6 136.815 91.6ZM185.417 42.9C187.484 42.9 189.584 44.1333 191.717 46.6C193.917 49.0667 196.217 52.7667 198.617 57.7C201.017 62.5667 203.617 68.6 206.417 75.8C209.284 83 212.417 91.3667 215.817 100.9H216.217C215.884 97.5667 215.551 93.9 215.217 89.9C214.951 85.9 214.717 81.9 214.517 77.9C214.317 73.8333 214.151 70.0333 214.017 66.5C213.884 62.9 213.817 59.8667 213.817 57.4C213.817 52.6 214.251 49.2 215.117 47.2C215.984 45.2 217.351 44.2 219.217 44.2C221.151 44.2 222.817 45.6667 224.217 48.6C225.617 51.5333 226.684 55.7333 227.417 61.2C228.217 66.6 228.617 73.1 228.617 80.7C228.617 88.0333 228.351 94.2667 227.817 99.4C227.351 104.533 226.451 108.433 225.117 111.1C223.851 113.7 221.951 115 219.417 115C217.551 115 215.651 114.2 213.717 112.6C211.784 111 209.817 108.6 207.817 105.4C205.884 102.2 203.851 98.2 201.717 93.4C199.651 88.6 197.451 83.0333 195.117 76.7C192.851 70.3 190.451 63.1333 187.917 55.2H187.517C187.851 57.9333 188.151 61.0667 188.417 64.6C188.751 68.1333 189.017 71.8333 189.217 75.7C189.417 79.5 189.551 83.3 189.617 87.1C189.751 90.9 189.817 94.4 189.817 97.6C189.817 103.8 189.184 108.2 187.917 110.8C186.717 113.4 184.817 114.7 182.217 114.7C179.351 114.7 177.284 112.3 176.017 107.5C174.817 102.633 174.217 95.1667 174.217 85.1C174.217 78.3 174.417 72.3 174.817 67.1C175.217 61.8333 175.851 57.4 176.717 53.8C177.584 50.2 178.717 47.5 180.117 45.7C181.584 43.8333 183.351 42.9 185.417 42.9ZM288.295 90.2C286.295 90.4667 284.429 90.6333 282.695 90.7C281.029 90.7667 279.429 90.8 277.895 90.8C273.429 90.8 270.429 90.4667 268.895 89.8C267.362 89.0667 266.595 87.8333 266.595 86.1C266.595 84.9667 266.962 83.9333 267.695 83C268.495 82.0667 269.629 81.2667 271.095 80.6C272.829 79.8667 275.362 79.2 278.695 78.6C282.095 77.9333 285.595 77.6 289.195 77.6C293.862 77.6 297.462 78 299.995 78.8C302.595 79.5333 303.895 80.9667 303.895 83.1C303.895 84.7667 303.229 86.2 301.895 87.4C300.562 88.5333 298.362 89.2667 295.295 89.6L288.295 90.2ZM295.695 88.2C297.429 90.4 298.662 92.6333 299.395 94.9C300.129 97.1667 300.495 99.2 300.495 101C300.495 104 299.595 106.9 297.795 109.7C296.062 112.433 293.329 114.7 289.595 116.5C285.862 118.233 280.962 119.1 274.895 119.1C267.095 119.1 260.595 117.667 255.395 114.8C250.262 111.867 246.429 107.767 243.895 102.5C241.362 97.1667 240.095 90.9667 240.095 83.9C240.095 76.3 241.695 69.5667 244.895 63.7C248.095 57.8333 252.629 53.2667 258.495 50C264.362 46.6667 271.229 45 279.095 45C285.629 45 290.629 46.1667 294.095 48.5C297.629 50.7667 299.395 53.4333 299.395 56.5C299.395 58.3667 298.762 59.8333 297.495 60.9C296.295 61.9 294.529 62.4 292.195 62.4C290.795 62.4 289.329 62.1667 287.795 61.7C286.329 61.2333 284.662 60.8 282.795 60.4C280.995 59.9333 278.929 59.7 276.595 59.7C272.329 59.7 268.395 60.5 264.795 62.1C261.195 63.6333 258.295 66.2 256.095 69.8C253.962 73.3333 252.895 78.1 252.895 84.1C252.895 89.2333 253.862 93.4333 255.795 96.7C257.795 99.9 260.562 102.267 264.095 103.8C267.629 105.267 271.662 106 276.195 106C279.262 106 281.662 105.667 283.395 105C285.195 104.333 286.462 103.333 287.195 102C287.995 100.667 288.395 98.9667 288.395 96.9C288.395 95.7667 288.229 94.3667 287.895 92.7C287.629 91.0333 287.195 89.3667 286.595 87.7L295.695 88.2ZM342.305 114.4C335.905 114.4 330.305 113.267 325.505 111C320.772 108.667 317.072 105.2 314.405 100.6C311.805 96 310.505 90.2 310.505 83.2C310.505 77.4667 311.339 72.2667 313.005 67.6C314.672 62.9333 316.972 58.9333 319.905 55.6C322.905 52.2667 326.339 49.7333 330.205 48C334.072 46.2 338.205 45.3 342.605 45.3C346.939 45.3 351.039 46.1667 354.905 47.9C358.772 49.5667 362.172 51.9667 365.105 55.1C368.105 58.2333 370.439 62 372.105 66.4C373.772 70.8 374.605 75.7 374.605 81.1C374.605 88.5 373.272 94.6667 370.605 99.6C367.939 104.533 364.172 108.233 359.305 110.7C354.505 113.167 348.839 114.4 342.305 114.4ZM342.405 100C347.739 100 352.005 98.3667 355.205 95.1C358.405 91.7667 360.005 86.8667 360.005 80.4C360.005 75.9333 359.139 72.0333 357.405 68.7C355.672 65.3 353.439 62.6667 350.705 60.8C348.039 58.9333 345.272 58 342.405 58C339.539 58 336.739 58.9333 334.005 60.8C331.339 62.6667 329.139 65.3 327.405 68.7C325.672 72.0333 324.805 75.9333 324.805 80.4C324.805 86.8667 326.405 91.7667 329.605 95.1C332.872 98.3667 337.139 100 342.405 100Z" fill="#007A3D"/>
<path d="M51.9536 45.4461C51.9523 45.7294 51.8871 46.0023 51.7703 46.2526C54.4201 54.2364 55.3936 64.2954 51.8175 76.1361C51.7092 76.4961 51.5031 76.801 51.2401 77.0319C50.9227 77.31 50.5235 77.4773 50.1026 77.5084C49.6818 77.5396 49.2623 77.4329 48.9074 77.2046C48.5525 76.9764 48.2815 76.6388 48.1354 76.2429C47.9892 75.847 47.9759 75.4144 48.0973 75.0102C51.515 63.6907 50.5329 54.2341 47.9913 46.8342C40.9859 44.4413 33.8077 38.8421 28.0727 31.2524C21.9291 23.1113 18.4426 13.9977 18.5035 6.24972C18.5077 5.95179 18.5794 5.65869 18.7134 5.39253C18.8474 5.12638 19.04 4.89411 19.2768 4.71326C19.515 4.5336 19.7913 4.41106 20.0844 4.35509C20.3775 4.29912 20.6795 4.31122 20.9672 4.39046C28.4365 6.45702 36.2439 12.3102 42.3885 20.4465C48.5282 28.5817 52.0155 37.6932 51.9536 45.4461ZM22.539 9.03923C23.2376 15.2896 26.3481 22.5159 31.1748 28.9109C35.434 34.5492 40.6788 39.073 45.8499 41.7021C41.6333 33.1727 35.8716 28.4468 35.4005 28.0727C34.9974 27.752 34.7378 27.2845 34.6788 26.7728C34.6197 26.261 34.766 25.7467 35.0855 25.3426C35.2436 25.142 35.4397 24.9746 35.6627 24.85C35.8857 24.7254 36.1311 24.6462 36.3848 24.6168C36.6385 24.5874 36.8955 24.6084 37.1411 24.6787C37.3866 24.7489 37.6159 24.867 37.8156 25.0262C37.9107 25.1011 41.6755 28.1643 45.5634 33.8254C44.0645 30.0961 41.9474 26.3176 39.2847 22.7908C34.4572 16.3978 28.3609 11.4229 22.539 9.03923Z" fill="#007A3D"/>
<path d="M386.096 73.6065C385.92 73.8283 385.7 74.0024 385.453 74.1269C382.597 82.039 377.14 90.5451 367.006 97.6367C366.698 97.8526 366.348 97.9646 365.998 97.9834C365.577 98.0056 365.16 97.89 364.81 97.6542C364.46 97.4184 364.196 97.0751 364.058 96.6762C363.921 96.2773 363.917 95.8444 364.047 95.443C364.177 95.0415 364.434 94.6933 364.779 94.4509C374.466 87.6708 379.544 79.6329 382.124 72.2463C378.1 66.0328 375.923 57.1932 376.112 47.6823C376.32 37.4853 379.218 28.1678 384.059 22.1176C384.246 21.8861 384.484 21.7002 384.754 21.5739C385.024 21.4476 385.319 21.3843 385.617 21.3887C385.915 21.3948 386.208 21.4695 386.473 21.6068C386.738 21.7441 386.967 21.9404 387.144 22.1806C391.735 28.4246 394.249 37.853 394.044 48.0468C393.837 58.2367 390.941 67.5531 386.096 73.6065ZM385.504 26.8056C382.187 32.1488 380.161 39.7509 379.998 47.7613C379.857 54.8261 381.179 61.6248 383.616 66.8892C385.579 57.5791 383.975 50.3019 383.837 49.7165C383.718 49.2152 383.803 48.6873 384.073 48.2487C384.344 47.81 384.777 47.4964 385.278 47.3766C385.526 47.3167 385.784 47.3065 386.036 47.3465C386.288 47.3865 386.53 47.4761 386.748 47.6099C386.965 47.7437 387.154 47.9192 387.304 48.1263C387.453 48.3334 387.56 48.5681 387.619 48.8167C387.647 48.9343 388.71 53.67 388.263 60.5229C389.393 56.6656 390.066 52.3871 390.156 47.9689C390.317 39.9596 388.604 32.2797 385.504 26.8056Z" fill="#007A3D"/>
<path fill-rule="evenodd" clip-rule="evenodd" d="M355.364 103.203C362.807 98.0248 369.876 94.1322 376.451 91.1962L376.473 91.1574C376.513 91.088 376.553 91.0182 376.605 90.9575C381.54 84.9752 390.063 80.229 399.994 77.9358C409.924 75.6418 419.665 76.1708 426.725 79.3857C426.997 79.5091 427.236 79.6933 427.425 79.9241C427.614 80.155 427.747 80.4262 427.814 80.7169C427.881 81.0075 427.881 81.3096 427.812 81.5999C427.744 81.8902 427.609 82.1609 427.419 82.3908C422.489 88.3687 413.963 93.1158 404.028 95.4103C394.711 97.5583 385.56 97.2266 378.64 94.5265C372.088 97.383 365.017 101.219 357.585 106.393C357.376 106.539 357.14 106.642 356.89 106.697C356.641 106.751 356.383 106.756 356.132 106.711C355.881 106.666 355.641 106.572 355.426 106.434C355.211 106.297 355.026 106.118 354.88 105.908C354.734 105.699 354.63 105.463 354.576 105.214C354.521 104.964 354.516 104.706 354.561 104.455C354.606 104.204 354.7 103.964 354.838 103.749C354.976 103.534 355.155 103.348 355.364 103.203ZM415.951 86.7114C412.202 88.8324 407.823 90.5426 403.152 91.6219C396.596 93.135 390.01 93.2876 384.512 92.1698C398.677 86.9803 409.84 86.4392 415.951 86.7114ZM422.535 81.9338C416.538 80.0244 408.673 79.9208 400.871 81.7237C395.962 82.8578 391.364 84.6814 387.492 86.9556C405.114 81.3215 417.539 82.6957 421.006 83.2694C421.537 82.8317 422.058 82.3908 422.535 81.9338Z" fill="#007A3D"/>
<path fill-rule="evenodd" clip-rule="evenodd" d="M225.204 90.1225C229.958 82.4023 233.449 75.1258 236.013 68.3971L236.05 68.3727C236.117 68.3292 236.185 68.2854 236.243 68.2304C241.94 62.9689 246.202 54.1931 247.936 44.1499C249.671 34.1072 248.598 24.4109 244.994 17.5416C244.855 17.2774 244.658 17.0485 244.417 16.8728C244.176 16.6971 243.898 16.5793 243.604 16.5286C243.31 16.4778 243.008 16.4954 242.722 16.58C242.436 16.6646 242.174 16.814 241.955 17.0165C236.262 22.2734 231.999 31.051 230.263 41.0991C228.64 50.5214 229.483 59.6395 232.565 66.3983C230.08 73.0997 226.645 80.3734 221.895 88.0831C221.761 88.3004 221.671 88.5419 221.631 88.7939C221.59 89.0459 221.599 89.3035 221.658 89.5518C221.717 89.8002 221.825 90.0345 221.974 90.2413C222.124 90.4482 222.313 90.6236 222.53 90.7574C222.747 90.8915 222.989 90.9815 223.241 91.0222C223.493 91.0629 223.75 91.0534 223.999 90.9945C224.247 90.9355 224.481 90.8281 224.688 90.6785C224.895 90.5289 225.07 90.34 225.204 90.1225ZM238.282 28.7084C236.374 32.5696 234.911 37.0374 234.095 41.7618C232.951 48.392 233.167 54.9765 234.59 60.4032C238.979 45.9703 238.895 34.7945 238.282 28.7084ZM242.684 21.8678C244.926 27.7482 245.469 35.5952 244.105 43.4863C243.247 48.4509 241.684 53.1431 239.629 57.1362C244.269 39.2269 242.203 26.8987 241.436 23.4687C241.843 22.9146 242.254 22.3698 242.684 21.8678Z" fill="#007A3D"/>
</svg>
