<svg width="430" height="257" viewBox="0 0 430 257" fill="none" xmlns="http://www.w3.org/2000/svg">
<path d="M55.4688 234.7C53.2688 234.7 51.5688 234.033 50.3688 232.7C49.1688 231.3 48.3021 229.067 47.7688 226C47.3021 222.867 47.0687 218.7 47.0687 213.5C47.0687 203.433 47.6354 194.8 48.7688 187.6C49.9021 180.333 51.8354 174.7 54.5688 170.7C57.2354 166.833 60.6021 164.1 64.6688 162.5C68.8021 160.9 73.2688 160.1 78.0688 160.1C86.2021 160.1 92.2021 162 96.0688 165.8C99.9354 169.6 101.869 174.567 101.869 180.7C101.869 186.167 100.435 190.633 97.5688 194.1C94.7021 197.567 90.8354 200 85.9688 201.4C81.1688 202.733 75.8021 203.067 69.8687 202.4V202.8C81.0688 207.6 89.1021 212.133 93.9688 216.4C98.9021 220.6 101.369 224.233 101.369 227.3C101.369 229.167 100.735 230.667 99.4688 231.8C98.2688 232.933 96.5688 233.5 94.3688 233.5C91.7021 233.5 88.7021 232.6 85.3688 230.8C82.0354 229 78.3354 226 74.2688 221.8C70.2688 217.6 65.8354 211.933 60.9688 204.8H60.5688C60.9021 206.267 61.1688 208.1 61.3688 210.3C61.6354 212.433 61.8354 214.633 61.9688 216.9C62.1688 219.167 62.2688 221.3 62.2688 223.3C62.2688 226.967 61.7354 229.8 60.6688 231.8C59.6688 233.733 57.9354 234.7 55.4688 234.7ZM72.8688 193.3C75.7354 193.3 78.3354 192.833 80.6688 191.9C83.0021 190.9 84.8688 189.533 86.2688 187.8C87.6688 186 88.3688 183.9 88.3688 181.5C88.3688 178.367 87.3021 175.867 85.1688 174C83.0354 172.133 79.8354 171.2 75.5688 171.2C72.7021 171.2 70.2688 171.833 68.2688 173.1C66.2688 174.3 64.7354 175.9 63.6688 177.9C62.6688 179.9 62.1688 182.067 62.1688 184.4C62.1688 187 63.0354 189.133 64.7688 190.8C66.5021 192.467 69.2021 193.3 72.8688 193.3ZM114.315 238.7C112.382 238.7 110.882 237.967 109.815 236.5C108.748 235.033 108.215 232.367 108.215 228.5C108.215 225.633 108.548 222.433 109.215 218.9C109.882 215.3 110.848 211.533 112.115 207.6C113.382 203.6 114.915 199.533 116.715 195.4C118.515 191.2 120.548 187.067 122.815 183C125.148 178.8 127.315 175.4 129.315 172.8C131.315 170.133 133.282 168.2 135.215 167C137.215 165.733 139.282 165.1 141.415 165.1C144.615 165.1 147.515 166.5 150.115 169.3C152.782 172.033 155.148 176.433 157.215 182.5C158.748 186.767 160.048 191.267 161.115 196C162.248 200.667 163.115 205.433 163.715 210.3C164.315 215.167 164.615 220.033 164.615 224.9C164.615 228.967 163.915 231.967 162.515 233.9C161.182 235.767 159.315 236.7 156.915 236.7C154.582 236.7 152.782 235.667 151.515 233.6C150.248 231.533 149.348 228.1 148.815 223.3C148.615 221.167 148.482 218.967 148.415 216.7C148.415 214.367 148.482 212.167 148.615 210.1L150.515 217.8C148.182 218.6 145.248 219.133 141.715 219.4C138.248 219.6 134.615 219.533 130.815 219.2C127.082 218.8 123.582 218.1 120.315 217.1L125.615 210.3C125.482 212.967 125.215 215.567 124.815 218.1C124.482 220.567 124.115 222.867 123.715 225C123.182 227.933 122.548 230.433 121.815 232.5C121.082 234.567 120.115 236.1 118.915 237.1C117.782 238.167 116.248 238.7 114.315 238.7ZM136.815 207.6C141.215 207.6 144.315 206.8 146.115 205.2C147.982 203.533 148.915 200.5 148.915 196.1C148.915 193.833 148.682 191.567 148.215 189.3C147.748 187.033 147.115 184.967 146.315 183.1C145.515 181.167 144.548 179.633 143.415 178.5C142.348 177.367 141.215 176.8 140.015 176.8C138.282 176.8 136.648 177.633 135.115 179.3C133.582 180.9 132.215 182.933 131.015 185.4C129.815 187.867 128.848 190.367 128.115 192.9C127.448 195.433 127.115 197.6 127.115 199.4C127.115 202.067 127.915 204.1 129.515 205.5C131.115 206.9 133.548 207.6 136.815 207.6ZM185.417 158.9C187.484 158.9 189.584 160.133 191.717 162.6C193.917 165.067 196.217 168.767 198.617 173.7C201.017 178.567 203.617 184.6 206.417 191.8C209.284 199 212.417 207.367 215.817 216.9H216.217C215.884 213.567 215.551 209.9 215.217 205.9C214.951 201.9 214.717 197.9 214.517 193.9C214.317 189.833 214.151 186.033 214.017 182.5C213.884 178.9 213.817 175.867 213.817 173.4C213.817 168.6 214.251 165.2 215.117 163.2C215.984 161.2 217.351 160.2 219.217 160.2C221.151 160.2 222.817 161.667 224.217 164.6C225.617 167.533 226.684 171.733 227.417 177.2C228.217 182.6 228.617 189.1 228.617 196.7C228.617 204.033 228.351 210.267 227.817 215.4C227.351 220.533 226.451 224.433 225.117 227.1C223.851 229.7 221.951 231 219.417 231C217.551 231 215.651 230.2 213.717 228.6C211.784 227 209.817 224.6 207.817 221.4C205.884 218.2 203.851 214.2 201.717 209.4C199.651 204.6 197.451 199.033 195.117 192.7C192.851 186.3 190.451 179.133 187.917 171.2H187.517C187.851 173.933 188.151 177.067 188.417 180.6C188.751 184.133 189.017 187.833 189.217 191.7C189.417 195.5 189.551 199.3 189.617 203.1C189.751 206.9 189.817 210.4 189.817 213.6C189.817 219.8 189.184 224.2 187.917 226.8C186.717 229.4 184.817 230.7 182.217 230.7C179.351 230.7 177.284 228.3 176.017 223.5C174.817 218.633 174.217 211.167 174.217 201.1C174.217 194.3 174.417 188.3 174.817 183.1C175.217 177.833 175.851 173.4 176.717 169.8C177.584 166.2 178.717 163.5 180.117 161.7C181.584 159.833 183.351 158.9 185.417 158.9ZM288.295 206.2C286.295 206.467 284.429 206.633 282.695 206.7C281.029 206.767 279.429 206.8 277.895 206.8C273.429 206.8 270.429 206.467 268.895 205.8C267.362 205.067 266.595 203.833 266.595 202.1C266.595 200.967 266.962 199.933 267.695 199C268.495 198.067 269.629 197.267 271.095 196.6C272.829 195.867 275.362 195.2 278.695 194.6C282.095 193.933 285.595 193.6 289.195 193.6C293.862 193.6 297.462 194 299.995 194.8C302.595 195.533 303.895 196.967 303.895 199.1C303.895 200.767 303.229 202.2 301.895 203.4C300.562 204.533 298.362 205.267 295.295 205.6L288.295 206.2ZM295.695 204.2C297.429 206.4 298.662 208.633 299.395 210.9C300.129 213.167 300.495 215.2 300.495 217C300.495 220 299.595 222.9 297.795 225.7C296.062 228.433 293.329 230.7 289.595 232.5C285.862 234.233 280.962 235.1 274.895 235.1C267.095 235.1 260.595 233.667 255.395 230.8C250.262 227.867 246.429 223.767 243.895 218.5C241.362 213.167 240.095 206.967 240.095 199.9C240.095 192.3 241.695 185.567 244.895 179.7C248.095 173.833 252.629 169.267 258.495 166C264.362 162.667 271.229 161 279.095 161C285.629 161 290.629 162.167 294.095 164.5C297.629 166.767 299.395 169.433 299.395 172.5C299.395 174.367 298.762 175.833 297.495 176.9C296.295 177.9 294.529 178.4 292.195 178.4C290.795 178.4 289.329 178.167 287.795 177.7C286.329 177.233 284.662 176.8 282.795 176.4C280.995 175.933 278.929 175.7 276.595 175.7C272.329 175.7 268.395 176.5 264.795 178.1C261.195 179.633 258.295 182.2 256.095 185.8C253.962 189.333 252.895 194.1 252.895 200.1C252.895 205.233 253.862 209.433 255.795 212.7C257.795 215.9 260.562 218.267 264.095 219.8C267.629 221.267 271.662 222 276.195 222C279.262 222 281.662 221.667 283.395 221C285.195 220.333 286.462 219.333 287.195 218C287.995 216.667 288.395 214.967 288.395 212.9C288.395 211.767 288.229 210.367 287.895 208.7C287.629 207.033 287.195 205.367 286.595 203.7L295.695 204.2ZM342.305 230.4C335.905 230.4 330.305 229.267 325.505 227C320.772 224.667 317.072 221.2 314.405 216.6C311.805 212 310.505 206.2 310.505 199.2C310.505 193.467 311.339 188.267 313.005 183.6C314.672 178.933 316.972 174.933 319.905 171.6C322.905 168.267 326.339 165.733 330.205 164C334.072 162.2 338.205 161.3 342.605 161.3C346.939 161.3 351.039 162.167 354.905 163.9C358.772 165.567 362.172 167.967 365.105 171.1C368.105 174.233 370.439 178 372.105 182.4C373.772 186.8 374.605 191.7 374.605 197.1C374.605 204.5 373.272 210.667 370.605 215.6C367.939 220.533 364.172 224.233 359.305 226.7C354.505 229.167 348.839 230.4 342.305 230.4ZM342.405 216C347.739 216 352.005 214.367 355.205 211.1C358.405 207.767 360.005 202.867 360.005 196.4C360.005 191.933 359.139 188.033 357.405 184.7C355.672 181.3 353.439 178.667 350.705 176.8C348.039 174.933 345.272 174 342.405 174C339.539 174 336.739 174.933 334.005 176.8C331.339 178.667 329.139 181.3 327.405 184.7C325.672 188.033 324.805 191.933 324.805 196.4C324.805 202.867 326.405 207.767 329.605 211.1C332.872 214.367 337.139 216 342.405 216Z" fill="#007A3D"/>
<path d="M51.9536 161.446C51.9523 161.729 51.8871 162.002 51.7703 162.253C54.4201 170.236 55.3936 180.295 51.8175 192.136C51.7092 192.496 51.5031 192.801 51.2401 193.032C50.9227 193.31 50.5235 193.477 50.1026 193.508C49.6818 193.54 49.2623 193.433 48.9074 193.205C48.5525 192.976 48.2815 192.639 48.1354 192.243C47.9892 191.847 47.9759 191.414 48.0973 191.01C51.515 179.691 50.5329 170.234 47.9913 162.834C40.9859 160.441 33.8077 154.842 28.0727 147.252C21.9291 139.111 18.4426 129.998 18.5035 122.25C18.5077 121.952 18.5794 121.659 18.7134 121.393C18.8474 121.126 19.04 120.894 19.2768 120.713C19.515 120.534 19.7913 120.411 20.0844 120.355C20.3775 120.299 20.6795 120.311 20.9672 120.39C28.4365 122.457 36.2439 128.31 42.3885 136.446C48.5282 144.582 52.0155 153.693 51.9536 161.446ZM22.539 125.039C23.2376 131.29 26.3481 138.516 31.1748 144.911C35.434 150.549 40.6788 155.073 45.8499 157.702C41.6333 149.173 35.8716 144.447 35.4005 144.073C34.9974 143.752 34.7378 143.285 34.6788 142.773C34.6197 142.261 34.766 141.747 35.0855 141.343C35.2436 141.142 35.4397 140.975 35.6627 140.85C35.8857 140.725 36.1311 140.646 36.3848 140.617C36.6385 140.587 36.8955 140.608 37.1411 140.679C37.3866 140.749 37.6159 140.867 37.8156 141.026C37.9107 141.101 41.6755 144.164 45.5634 149.825C44.0645 146.096 41.9474 142.318 39.2847 138.791C34.4572 132.398 28.3609 127.423 22.539 125.039Z" fill="#007A3D"/>
<path d="M386.096 189.607C385.92 189.828 385.7 190.002 385.453 190.127C382.597 198.039 377.14 206.545 367.006 213.637C366.698 213.853 366.348 213.965 365.998 213.983C365.577 214.006 365.16 213.89 364.81 213.654C364.46 213.418 364.196 213.075 364.058 212.676C363.921 212.277 363.917 211.844 364.047 211.443C364.177 211.042 364.434 210.693 364.779 210.451C374.466 203.671 379.544 195.633 382.124 188.246C378.1 182.033 375.923 173.193 376.112 163.682C376.32 153.485 379.218 144.168 384.059 138.118C384.246 137.886 384.484 137.7 384.754 137.574C385.024 137.448 385.319 137.384 385.617 137.389C385.915 137.395 386.208 137.469 386.473 137.607C386.738 137.744 386.967 137.94 387.144 138.181C391.735 144.425 394.249 153.853 394.044 164.047C393.837 174.237 390.941 183.553 386.096 189.607ZM385.504 142.806C382.187 148.149 380.161 155.751 379.998 163.761C379.857 170.826 381.179 177.625 383.616 182.889C385.579 173.579 383.975 166.302 383.837 165.717C383.718 165.215 383.803 164.687 384.073 164.249C384.344 163.81 384.777 163.496 385.278 163.377C385.526 163.317 385.784 163.306 386.036 163.347C386.288 163.387 386.53 163.476 386.748 163.61C386.965 163.744 387.154 163.919 387.304 164.126C387.453 164.333 387.56 164.568 387.619 164.817C387.647 164.934 388.71 169.67 388.263 176.523C389.393 172.666 390.066 168.387 390.156 163.969C390.317 155.96 388.604 148.28 385.504 142.806Z" fill="#007A3D"/>
<path fill-rule="evenodd" clip-rule="evenodd" d="M355.364 219.203C362.807 214.025 369.876 210.132 376.451 207.196L376.473 207.157C376.513 207.088 376.553 207.018 376.605 206.958C381.54 200.975 390.063 196.229 399.994 193.936C409.924 191.642 419.665 192.171 426.725 195.386C426.997 195.509 427.236 195.693 427.425 195.924C427.614 196.155 427.747 196.426 427.814 196.717C427.881 197.007 427.881 197.31 427.812 197.6C427.744 197.89 427.609 198.161 427.419 198.391C422.489 204.369 413.963 209.116 404.028 211.41C394.711 213.558 385.56 213.227 378.64 210.527C372.088 213.383 365.017 217.219 357.585 222.393C357.376 222.539 357.14 222.642 356.89 222.697C356.641 222.751 356.383 222.756 356.132 222.711C355.881 222.666 355.641 222.572 355.426 222.434C355.211 222.297 355.026 222.118 354.88 221.908C354.734 221.699 354.63 221.463 354.576 221.214C354.521 220.964 354.516 220.706 354.561 220.455C354.606 220.204 354.7 219.964 354.838 219.749C354.976 219.534 355.155 219.348 355.364 219.203ZM415.951 202.711C412.202 204.832 407.823 206.543 403.152 207.622C396.596 209.135 390.01 209.288 384.512 208.17C398.677 202.98 409.84 202.439 415.951 202.711ZM422.535 197.934C416.538 196.024 408.673 195.921 400.871 197.724C395.962 198.858 391.364 200.681 387.492 202.956C405.114 197.321 417.539 198.696 421.006 199.269C421.537 198.832 422.058 198.391 422.535 197.934Z" fill="#007A3D"/>
<path fill-rule="evenodd" clip-rule="evenodd" d="M225.204 206.123C229.958 198.402 233.449 191.126 236.013 184.397L236.05 184.373C236.117 184.329 236.185 184.285 236.243 184.23C241.94 178.969 246.202 170.193 247.936 160.15C249.671 150.107 248.598 140.411 244.994 133.542C244.855 133.277 244.658 133.048 244.417 132.873C244.176 132.697 243.898 132.579 243.604 132.529C243.31 132.478 243.008 132.495 242.722 132.58C242.436 132.665 242.173 132.814 241.955 133.017C236.262 138.273 231.999 147.051 230.263 157.099C228.64 166.521 229.482 175.64 232.565 182.398C230.08 189.1 226.645 196.373 221.895 204.083C221.761 204.3 221.671 204.542 221.63 204.794C221.59 205.046 221.599 205.303 221.658 205.552C221.717 205.8 221.825 206.034 221.974 206.241C222.124 206.448 222.312 206.624 222.53 206.757C222.747 206.892 222.989 206.981 223.241 207.022C223.493 207.063 223.75 207.053 223.999 206.994C224.247 206.935 224.481 206.828 224.688 206.678C224.895 206.529 225.07 206.34 225.204 206.123ZM238.282 144.708C236.374 148.57 234.911 153.037 234.095 157.762C232.951 164.392 233.167 170.977 234.59 176.403C238.979 161.97 238.895 150.795 238.282 144.708ZM242.684 137.868C244.926 143.748 245.469 151.595 244.105 159.486C243.247 164.451 241.684 169.143 239.629 173.136C244.269 155.227 242.203 142.899 241.436 139.469C241.843 138.915 242.254 138.37 242.684 137.868Z" fill="#007A3D"/>
<path d="M166.129 32.5612C166.019 32.5612 165.908 32.5505 165.795 32.5283C164.87 32.3449 164.268 31.4455 164.451 30.5197C165.605 24.695 167.705 16.7692 171.161 12.0879C177.332 3.72506 186.84 1.63448 193.043 3.89181C196.879 5.28585 200.845 3.84786 204.68 2.45748C205.687 2.09225 206.638 1.74728 207.587 1.45333C209.633 0.81417 212.62 1.18453 216.078 1.61373C220.324 2.14059 225.135 2.73775 228.534 1.48263C233.486 -0.343789 236.075 3.37105 238.358 6.64889C240.03 9.04854 241.759 11.5297 244.498 12.8064C249.209 14.999 251.493 20.4194 252.801 24.3059C253.102 25.2004 252.621 26.1696 251.727 26.4707C250.831 26.7717 249.863 26.2907 249.562 25.3962C247.802 20.1679 245.734 17.1518 243.055 15.905C239.481 14.2392 237.303 11.114 235.554 8.60299C233.063 5.02755 231.989 3.85201 229.717 4.68941C225.539 6.23214 220.289 5.58053 215.657 5.00582C212.72 4.64132 209.946 4.29708 208.603 4.717C207.728 4.98824 206.813 5.31978 205.845 5.67086C201.642 7.19503 196.879 8.92257 191.875 7.10421C186.864 5.28146 179.086 7.1047 173.911 14.1179C170.831 18.291 168.89 25.7019 167.804 31.184C167.643 31.9978 166.929 32.5612 166.129 32.5612Z" fill="#007A3D" stroke="#007A3D" stroke-width="1.5"/>
<path d="M168.243 34.3313C167.925 34.3313 167.603 34.2426 167.316 34.0569C166.523 33.5442 166.297 32.4861 166.809 31.6936C176.495 16.7217 192.911 7.78317 210.722 7.78317C225.762 7.78317 240.082 14.2705 250.012 25.5815C250.635 26.2907 250.564 27.3706 249.855 27.9934C249.146 28.6162 248.066 28.5459 247.443 27.8364C238.163 17.2646 224.778 11.2011 210.722 11.2011C194.075 11.2011 178.732 19.5559 169.679 33.5503C169.352 34.0559 168.803 34.3313 168.243 34.3313Z" fill="#007A3D" stroke="#007A3D" stroke-width="1.5"/>
<path d="M216.428 67.0461C215.572 67.0461 214.833 66.4036 214.733 65.5325C212.486 46.0083 208.128 32.1562 201.78 24.3603C201.184 23.6284 201.294 22.552 202.026 21.956C202.758 21.3598 203.834 21.4704 204.43 22.2021C211.197 30.5122 215.805 44.959 218.128 65.1413C218.236 66.0791 217.563 66.9267 216.626 67.0347C216.559 67.0425 216.493 67.0461 216.428 67.0461Z" fill="#007A3D" stroke="#007A3D" stroke-width="1.5"/>
<path d="M208.764 34.6074C208.413 34.6074 208.06 34.5002 207.756 34.2773C206.994 33.7197 206.829 32.6504 207.386 31.8889C207.657 31.5188 214.148 22.8093 225.083 21.582C226.018 21.4778 226.866 22.1518 226.972 23.0898C227.077 24.0278 226.402 24.8735 225.464 24.9787C216.003 26.0405 210.201 33.8293 210.144 33.9079C209.809 34.3652 209.29 34.6074 208.764 34.6074ZM213.102 47.8203C212.723 47.8203 212.341 47.6946 212.024 47.4365C211.292 46.8406 211.182 45.7639 211.778 45.0322C212.082 44.6584 219.392 35.8935 233.457 36.9902C234.398 37.0637 235.102 37.886 235.028 38.8269C234.955 39.7678 234.128 40.468 233.192 40.3979C220.889 39.4389 214.492 47.1128 214.429 47.1904C214.091 47.6052 213.598 47.8203 213.102 47.8203ZM203.107 56.2873C202.482 56.2873 201.879 55.9429 201.579 55.3459C201.155 54.5027 201.495 53.4753 202.338 53.0512C207.225 50.593 214.449 51.2656 214.754 51.2954C215.694 51.3872 216.38 52.2234 216.289 53.1626C216.197 54.1015 215.358 54.7876 214.423 54.6972C214.357 54.6911 207.87 54.0942 203.874 56.1047C203.627 56.2287 203.365 56.2873 203.107 56.2873Z" fill="#007A3D" stroke="#007A3D" stroke-width="1.5"/>
<path d="M192.567 38.1277C191.908 38.1277 191.281 37.7448 191.001 37.1028C190.623 36.238 191.017 35.2304 191.882 34.8523C197.486 32.4026 209.178 34.4919 210.492 34.7385C211.42 34.9123 212.031 35.8049 211.857 36.7326C211.684 37.6604 210.791 38.2719 209.864 38.0981C206.576 37.4834 197.183 36.2654 193.251 37.9843C193.028 38.0815 192.796 38.1277 192.567 38.1277ZM241.385 106.131C240.843 106.131 240.31 105.873 239.979 105.394C239.441 104.617 239.635 103.553 240.411 103.016C254.52 93.2529 262.944 77.1914 262.944 60.0512C262.944 55.5332 262.251 52.9416 261.105 48.6479C260.508 46.4126 259.764 43.6306 258.969 39.9507C257.862 34.8322 258.035 29.5766 258.174 25.3537C258.251 22.9814 258.347 20.0779 258.01 19.093C257.514 19.197 257.192 19.6538 256.411 21.1706C255.598 22.7492 254.585 24.7138 252.348 26.1289C249.646 27.8403 246.423 30.6843 246.423 34.5112C246.423 35.5388 246.485 36.7114 246.55 37.9526C246.772 42.1655 247.05 47.4084 245.151 51.9514C242.891 57.3593 237.962 60.6533 230.5 61.7417C218.998 63.4182 215.12 68.1889 212.134 72.9314C211.631 73.73 210.575 73.9699 209.777 73.467C208.979 72.9641 208.739 71.9089 209.241 71.1103C212.503 65.9301 217.066 60.2458 230.007 58.3593C236.286 57.4436 240.208 54.9162 241.997 50.6333C243.595 46.8095 243.352 42.1999 243.137 38.1325C243.069 36.8449 243.005 35.6286 243.005 34.511C243.005 30.2509 245.604 26.3537 250.521 23.2404C251.973 22.3217 252.684 20.9406 253.373 19.6047C254.281 17.8423 255.411 15.6484 258.298 15.6484C259.11 15.6484 259.833 15.9509 260.386 16.5229C261.834 18.0193 261.737 20.9814 261.59 25.4651C261.457 29.5 261.292 34.5217 262.31 39.2278C263.088 42.8271 263.789 45.4504 264.407 47.7651C265.584 52.1721 266.362 55.0837 266.362 60.0503C266.362 78.3122 257.388 95.4245 242.356 105.826C242.06 106.032 241.721 106.131 241.385 106.131Z" fill="#007A3D" stroke="#007A3D" stroke-width="1.5"/>
<path d="M232.453 92.3437C232.015 92.3437 231.577 92.176 231.243 91.841C230.576 91.1726 230.578 90.0905 231.247 89.4243C242.956 77.7531 249.778 67.1914 251.521 58.0322C251.698 57.1049 252.594 56.4961 253.52 56.6731C254.447 56.8496 255.056 57.7443 254.879 58.6716C253.004 68.5183 245.865 79.6796 233.66 91.8452C233.326 92.1777 232.889 92.3437 232.453 92.3437Z" fill="#007A3D" stroke="#007A3D" stroke-width="1.5"/>
<path d="M245.499 76.9865C245.189 76.9865 244.875 76.9021 244.592 76.7251C243.96 76.3286 240.87 73.9209 242.086 65.4292C242.22 64.4949 243.083 63.8464 244.02 63.9795C244.954 64.1135 245.603 64.9792 245.47 65.9135C244.579 72.135 246.39 73.8176 246.409 73.8296C247.209 74.3313 247.45 75.386 246.949 76.1855C246.624 76.7029 246.068 76.9865 245.499 76.9865ZM238.149 86.385C237.996 86.385 237.876 86.3767 237.793 86.3608C237.186 86.2456 236.672 85.8044 236.475 85.2182C236.279 84.6323 236.415 83.9814 236.83 83.5232C237.215 83.0979 237.767 82.9121 238.295 82.9729C240.187 82.8713 249.807 81.0559 255.582 74.1784C256.188 73.4555 257.266 73.3618 257.989 73.9685C258.712 74.5754 258.806 75.6533 258.199 76.3762C251.595 84.2412 240.602 86.385 238.149 86.385Z" fill="#007A3D" stroke="#007A3D" stroke-width="1.5"/>
<path d="M210.722 115.692C195.86 115.692 181.888 109.904 171.378 99.395C160.869 88.8857 155.082 74.9133 155.082 60.0517C155.082 56.656 155.39 53.2619 155.999 49.9626C156.001 49.948 156.003 49.9336 156.005 49.9192C156.427 47.0696 155.738 43.99 154.866 40.0913C154.679 39.2549 154.485 38.3906 154.296 37.4941C153.214 32.3796 155.12 28.8052 159.664 27.4294C159.714 27.4143 159.765 27.4013 159.816 27.3908C162.028 26.938 164.224 27.476 166.573 29.0708C168.274 30.2248 169.91 31.8139 171.642 33.4963C175.248 36.9988 179.335 40.9685 185.097 41.9653C185.214 41.9856 185.329 42.0178 185.439 42.062C190.602 44.1211 193.868 46.2151 195.718 48.6523C197.492 50.989 197.758 53.3154 198.016 55.5652C198.391 58.8464 198.78 62.2397 204.135 66.8298C206.913 69.2116 209.374 70.3696 211.657 70.3696H211.658C213.763 70.3694 215.562 69.3828 217.301 68.4287C218.947 67.5258 220.648 66.5925 222.539 66.5925C224.579 66.5925 226.432 67.666 228.205 69.8742C228.266 69.9502 228.32 70.031 228.367 70.1159C230.94 74.7612 231.287 78.2695 231.592 81.3652C232.117 86.6784 232.571 91.2671 244.857 101.338C244.916 101.385 244.97 101.437 245.022 101.492C245.35 101.843 245.517 102.317 245.48 102.796C245.442 103.275 245.206 103.717 244.826 104.012C234.998 111.653 223.204 115.692 210.722 115.692ZM159.392 50.3767C159.387 50.4245 159.381 50.4724 159.372 50.5195C158.793 53.6345 158.499 56.8418 158.499 60.0515C158.499 88.8469 181.926 112.274 210.722 112.274C221.724 112.274 232.155 108.931 241.023 102.586C229.262 92.5361 228.741 87.2656 228.191 81.7007C227.894 78.6985 227.614 75.8613 225.449 71.9016C224.058 70.2087 223.124 70.0097 222.539 70.0097C221.524 70.0097 220.329 70.6655 218.945 71.4248C217.026 72.477 214.639 73.7866 211.658 73.7871H211.657C208.523 73.7871 205.335 72.3601 201.91 69.4243C195.536 63.9612 195.028 59.5212 194.62 55.9536C194.166 51.9909 193.838 49.122 184.333 45.301C177.628 44.0752 172.992 39.5725 169.26 35.948C167.638 34.3728 166.107 32.885 164.653 31.8987C163.101 30.8447 161.863 30.4841 160.575 30.7246C158.605 31.3376 156.745 32.5586 157.639 36.7864C157.826 37.6694 158.017 38.5207 158.201 39.3447C159.11 43.4048 159.895 46.9131 159.392 50.3767Z" fill="#007A3D" stroke="#007A3D" stroke-width="1.5"/>
<path d="M221.011 114.711C220.629 114.711 220.244 114.584 219.927 114.322C218.004 112.741 172.82 75.3842 170.243 56.5713C170.115 55.636 170.769 54.7741 171.704 54.6462C172.639 54.5168 173.501 55.1723 173.629 56.1074C174.606 63.2422 183.249 75.0813 198.622 90.3454C210.383 102.024 221.982 111.587 222.098 111.682C222.827 112.282 222.932 113.359 222.332 114.088C221.994 114.498 221.504 114.711 221.011 114.711Z" fill="#007A3D" stroke="#007A3D" stroke-width="1.5"/>
<path d="M179.557 73.1733C179.269 73.1733 178.977 73.1003 178.709 72.9468C177.89 72.4775 177.606 71.4333 178.075 70.6142C178.126 70.5261 183.144 61.72 184.087 56.0581C184.243 55.1272 185.123 54.4983 186.054 54.6533C186.985 54.8086 187.614 55.6889 187.459 56.6201C186.414 62.8891 181.26 71.9321 181.041 72.3139C180.725 72.8647 180.149 73.1733 179.557 73.1733ZM196.474 92.3257C196.281 92.3257 196.084 92.2925 195.892 92.2229C195.005 91.9016 194.546 90.9214 194.867 90.0342C195.781 87.5115 198.13 80.2109 198.032 76.7668C198.005 75.8235 198.748 75.0368 199.691 75.01C200.637 74.9822 201.422 75.7261 201.448 76.6697C201.585 81.468 198.224 90.8034 198.081 91.1985C197.829 91.8935 197.173 92.3257 196.474 92.3257ZM186.762 82.2917C184.959 82.2917 174.663 82.1142 167.817 78.2024C166.998 77.7341 166.713 76.6902 167.181 75.8706C167.649 75.0508 168.693 74.7666 169.513 75.2346C176.076 78.9851 186.864 78.8713 186.971 78.8725C186.98 78.8723 186.988 78.8723 186.996 78.8723C187.929 78.8723 188.691 79.6211 188.705 80.5566C188.719 81.5002 187.964 82.2763 187.021 82.29C186.987 82.2905 186.899 82.2917 186.762 82.2917ZM200.31 99.719C195.072 99.719 185.794 99.3747 181.262 97.1174C180.417 96.6968 180.073 95.6706 180.494 94.8259C180.915 93.9804 181.94 93.6362 182.785 94.0578C187.436 96.374 199.651 96.4177 203.965 96.2385C204.907 96.1982 205.704 96.9324 205.743 97.8752C205.782 98.8183 205.049 99.6145 204.106 99.6535C203.912 99.6618 202.447 99.719 200.31 99.719ZM208.845 104.102C208.52 104.102 208.191 104.009 207.9 103.815C207.115 103.293 206.901 102.232 207.424 101.446C207.499 101.333 214.952 90.0141 214.263 82.6643C214.175 81.7246 214.865 80.8913 215.805 80.8032C216.747 80.7163 217.578 81.406 217.666 82.3452C218.468 90.8999 210.605 102.835 210.27 103.339C209.941 103.833 209.398 104.102 208.845 104.102Z" fill="#007A3D" stroke="#007A3D" stroke-width="1.5"/>
</svg>
