<svg width="247" height="252" viewBox="0 0 247 252" fill="none" xmlns="http://www.w3.org/2000/svg">
<path d="M27.4472 69.8179C27.2071 69.8179 26.9638 69.7945 26.7195 69.746C24.7008 69.3462 23.3881 67.3851 23.7879 65.3665C26.3037 52.666 30.8839 35.3841 38.4192 25.1766C51.8745 6.94187 72.6059 2.38346 86.1305 7.30546C94.4967 10.3451 103.143 7.20964 111.505 4.17797C113.701 3.38159 115.776 2.6294 117.844 1.98847C122.305 0.594806 128.818 1.40236 136.358 2.33821C145.615 3.487 156.107 4.7891 163.517 2.05235C174.317 -1.93007 179.96 6.16998 184.939 13.3171C188.585 18.5495 192.354 23.9596 198.328 26.7432C208.599 31.5242 213.579 43.3431 216.431 51.8174C217.087 53.7679 216.039 55.8813 214.089 56.5377C212.136 57.194 210.025 56.1453 209.368 54.1948C205.531 42.7948 201.023 36.2183 195.181 33.4997C187.387 29.8675 182.639 23.0531 178.824 17.578C173.393 9.78189 171.051 7.21869 166.098 9.0446C156.987 12.4084 145.54 10.9876 135.44 9.73451C129.037 8.93973 122.988 8.18914 120.059 9.10476C118.151 9.69619 116.157 10.4191 114.046 11.1846C104.882 14.508 94.4956 18.2748 83.5838 14.31C72.6586 10.3355 55.6989 14.311 44.4154 29.603C37.6984 38.7022 33.4663 54.8613 31.0985 66.815C30.7471 68.5893 29.19 69.8179 27.4472 69.8179Z" fill="#00E271" stroke="#00E271" stroke-width="1.5"/>
<path d="M32.0556 73.6773C31.3619 73.6773 30.6603 73.4841 30.0348 73.079C28.3068 71.9611 27.8123 69.6539 28.9302 67.926C50.0491 35.2804 85.8435 15.7904 124.68 15.7904C157.473 15.7904 188.699 29.9357 210.35 54.5989C211.708 56.1453 211.555 58.4999 210.008 59.8579C208.461 61.2159 206.107 61.0625 204.749 59.5156C184.513 36.4643 155.329 23.2431 124.68 23.2431C88.3822 23.2431 54.9269 41.4603 35.1873 71.9744C34.4745 73.0769 33.2773 73.6773 32.0556 73.6773Z" fill="#00E271" stroke="#00E271" stroke-width="1.5"/>
<path d="M137.122 145.011C135.255 145.011 133.644 143.61 133.425 141.71C128.526 99.1386 119.024 68.9348 105.182 51.9362C103.882 50.3402 104.122 47.9931 105.718 46.6937C107.314 45.3937 109.661 45.6349 110.961 47.2303C125.715 65.35 135.764 96.8506 140.828 140.857C141.063 142.902 139.597 144.75 137.553 144.986C137.408 145.003 137.264 145.011 137.122 145.011Z" fill="#00E271" stroke="#00E271" stroke-width="1.5"/>
<path d="M120.41 74.2795C119.646 74.2795 118.876 74.0458 118.212 73.5597C116.551 72.3439 116.191 70.0122 117.406 68.3519C117.997 67.5448 132.15 48.5542 155.993 45.8782C158.031 45.6509 159.882 47.1206 160.112 49.1659C160.341 51.2111 158.869 53.0551 156.824 53.2846C136.196 55.5997 123.545 72.5829 123.42 72.7543C122.69 73.7514 121.558 74.2795 120.41 74.2795ZM129.87 103.09C129.043 103.09 128.211 102.815 127.519 102.253C125.923 100.953 125.683 98.6057 126.983 97.0103C127.646 96.1953 143.585 77.0838 174.253 79.4751C176.305 79.6353 177.838 81.4282 177.679 83.4798C177.519 85.5315 175.715 87.0582 173.674 86.9054C146.849 84.8144 132.9 101.547 132.762 101.716C132.025 102.621 130.952 103.09 129.87 103.09ZM108.076 121.552C106.712 121.552 105.399 120.8 104.744 119.499C103.82 117.66 104.56 115.42 106.399 114.495C117.054 109.135 132.807 110.602 133.472 110.667C135.52 110.867 137.018 112.69 136.818 114.738C136.617 116.786 134.789 118.281 132.749 118.084C132.606 118.071 118.462 116.77 109.748 121.153C109.211 121.424 108.639 121.552 108.076 121.552Z" fill="#00E271" stroke="#00E271" stroke-width="1.5"/>
<path d="M85.094 81.9552C83.6577 81.9552 82.2896 81.1205 81.678 79.7204C80.8539 77.8349 81.7142 75.6379 83.5997 74.8134C95.8185 69.4719 121.313 74.0276 124.179 74.5653C126.202 74.9443 127.534 76.8905 127.156 78.9134C126.777 80.9363 124.829 82.2698 122.808 81.8908C115.64 80.5504 95.1594 77.8945 86.5851 81.6427C86.0985 81.8546 85.5923 81.9552 85.094 81.9552ZM191.54 230.233C190.358 230.233 189.196 229.671 188.472 228.626C187.301 226.933 187.724 224.612 189.416 223.442C220.18 202.153 238.547 167.132 238.547 129.759C238.547 119.907 237.037 114.256 234.537 104.894C233.235 100.02 231.615 93.9541 229.88 85.9302C227.467 74.7697 227.844 63.3101 228.146 54.1022C228.316 48.9295 228.524 42.5984 227.789 40.451C226.708 40.6777 226.006 41.6737 224.302 44.9812C222.529 48.4232 220.322 52.707 215.444 55.7924C209.551 59.5241 202.523 65.7253 202.523 74.0697C202.523 76.3103 202.659 78.8671 202.801 81.5735C203.286 90.7595 203.89 102.191 199.751 112.097C194.823 123.889 184.075 131.071 167.805 133.445C142.724 137.1 134.269 147.502 127.758 157.843C126.661 159.584 124.36 160.108 122.62 159.011C120.878 157.914 120.355 155.614 121.452 153.872C128.563 142.577 138.514 130.183 166.73 126.07C180.42 124.073 188.972 118.562 192.874 109.223C196.358 100.886 195.828 90.8346 195.359 81.9658C195.211 79.1583 195.071 76.5062 195.071 74.0692C195.071 64.7804 200.738 56.2827 211.459 49.4943C214.625 47.4911 216.177 44.4797 217.678 41.5667C219.658 37.7238 222.123 32.9402 228.416 32.9402C230.189 32.9402 231.764 33.5998 232.971 34.847C236.128 38.1097 235.916 44.5686 235.595 54.345C235.306 63.1429 234.946 74.0926 237.164 84.3539C238.861 92.2022 240.389 97.9221 241.737 102.969C244.304 112.578 246 118.927 246 129.756C246 169.576 226.432 206.888 193.657 229.568C193.011 230.018 192.271 230.233 191.54 230.233Z" fill="#00E271" stroke="#00E271" stroke-width="1.5"/>
<path d="M172.064 200.171C171.108 200.171 170.153 199.805 169.424 199.075C167.972 197.617 167.975 195.258 169.433 193.805C194.965 168.357 209.839 145.327 213.641 125.356C214.027 123.334 215.98 122.007 217.999 122.393C220.02 122.778 221.347 124.729 220.963 126.75C216.875 148.221 201.308 172.557 174.694 199.084C173.967 199.809 173.015 200.171 172.064 200.171Z" fill="#00E271" stroke="#00E271" stroke-width="1.5"/>
<path d="M200.51 166.685C199.833 166.685 199.148 166.501 198.533 166.115C197.155 165.251 190.416 160.001 193.067 141.485C193.359 139.448 195.242 138.034 197.284 138.324C199.321 138.616 200.736 140.504 200.445 142.541C198.503 156.107 202.453 159.776 202.494 159.802C204.237 160.896 204.764 163.195 203.67 164.939C202.962 166.067 201.749 166.685 200.51 166.685ZM184.484 187.178C184.15 187.178 183.888 187.16 183.706 187.125C182.382 186.874 181.262 185.912 180.833 184.634C180.405 183.357 180.703 181.937 181.607 180.938C182.447 180.011 183.65 179.606 184.801 179.738C188.927 179.517 209.902 175.558 222.494 160.562C223.818 158.986 226.168 158.782 227.744 160.105C229.32 161.428 229.525 163.778 228.202 165.354C213.803 182.504 189.833 187.178 184.484 187.178Z" fill="#00E271" stroke="#00E271" stroke-width="1.5"/>
<path d="M124.68 251.081C92.2742 251.081 61.8085 238.461 38.893 215.546C15.9779 192.631 3.35834 162.165 3.35834 129.76C3.35834 122.355 4.03122 114.955 5.35887 107.761C5.36259 107.729 5.36685 107.697 5.37165 107.666C6.29259 101.453 4.79033 94.7377 2.88829 86.2368C2.47999 84.413 2.05837 82.5285 1.64528 80.5738C-0.71404 69.4218 3.44299 61.6279 13.3509 58.6282C13.46 58.5952 13.5707 58.5669 13.682 58.5441C18.5039 57.5566 23.2928 58.7298 28.4149 62.2071C32.1232 64.7234 35.6909 68.1884 39.4679 71.8568C47.3305 79.4937 56.2418 88.1495 68.8061 90.323C69.0611 90.3672 69.3107 90.4375 69.5513 90.5338C80.8082 95.0236 87.9303 99.5894 91.9644 104.904C95.8323 109.999 96.4126 115.071 96.9742 119.977C97.7935 127.132 98.6399 134.53 110.316 144.539C116.375 149.732 121.741 152.257 126.719 152.257H126.72C131.311 152.257 135.233 150.106 139.025 148.025C142.613 146.057 146.323 144.022 150.446 144.022C154.894 144.022 158.936 146.362 162.801 151.177C162.933 151.343 163.052 151.519 163.155 151.704C168.764 161.833 169.52 169.483 170.187 176.233C171.331 187.818 172.32 197.823 199.111 219.782C199.237 219.886 199.357 219.998 199.469 220.118C200.185 220.883 200.55 221.917 200.467 222.961C200.385 224.006 199.87 224.971 199.043 225.614C177.612 242.275 151.897 251.081 124.68 251.081ZM12.7573 108.664C12.7467 108.768 12.7323 108.872 12.7131 108.975C11.4504 115.767 10.8105 122.76 10.8105 129.759C10.8105 192.546 61.8921 243.628 124.679 243.628C148.668 243.628 171.413 236.34 190.75 222.504C165.105 200.59 163.968 189.098 162.77 176.964C162.123 170.418 161.512 164.232 156.791 155.598C153.758 151.907 151.721 151.473 150.445 151.473C148.233 151.473 145.627 152.903 142.609 154.558C138.426 156.852 133.221 159.708 126.72 159.709H126.718C119.884 159.709 112.933 156.597 105.465 150.196C91.5678 138.284 90.4594 128.603 89.5694 120.824C88.5808 112.183 87.8659 105.928 67.1404 97.5964C52.5203 94.9235 42.4106 85.1056 34.2744 77.2025C30.7381 73.7679 27.3982 70.5238 24.2286 68.3731C20.8435 66.075 18.144 65.2888 15.3375 65.8131C11.0405 67.1498 6.98516 69.8121 8.93565 79.0305C9.34288 80.956 9.75811 82.8123 10.16 84.6089C12.1414 93.4617 13.8534 101.111 12.7573 108.664Z" fill="#00E271" stroke="#00E271" stroke-width="1.5"/>
<path d="M147.115 248.942C146.281 248.942 145.443 248.664 144.75 248.093C140.558 244.646 42.0353 163.192 36.4165 122.171C36.137 120.131 37.5637 118.252 39.6026 117.973C41.6414 117.691 43.5206 119.12 43.8 121.159C45.931 136.716 64.7752 162.531 98.2955 195.814C123.941 221.278 149.232 242.13 149.484 242.338C151.074 243.645 151.302 245.993 149.995 247.583C149.258 248.478 148.19 248.942 147.115 248.942Z" fill="#00E271" stroke="#00E271" stroke-width="1.5"/>
<path d="M56.7257 158.371C56.097 158.371 55.4609 158.212 54.8764 157.877C53.0909 156.854 52.4729 154.577 53.4955 152.791C53.6062 152.599 64.5468 133.397 66.6043 121.052C66.9429 119.022 68.8625 117.651 70.8928 117.989C72.9226 118.327 74.2945 120.247 73.9559 122.277C71.678 135.947 60.4393 155.664 59.9618 156.497C59.2735 157.698 58.0172 158.371 56.7257 158.371ZM93.6125 200.132C93.1909 200.132 92.7623 200.059 92.3434 199.907C90.4089 199.207 89.4081 197.07 90.1091 195.135C92.1012 189.634 97.2238 173.716 97.0098 166.206C96.9513 164.149 98.5712 162.434 100.628 162.375C102.69 162.315 104.401 163.937 104.459 165.994C104.758 176.457 97.4283 196.812 97.1163 197.674C96.5664 199.189 95.136 200.132 93.6125 200.132ZM72.4361 178.253C68.5048 178.253 46.0555 177.866 31.1272 169.336C29.3407 168.315 28.72 166.039 29.741 164.252C30.762 162.464 33.0383 161.845 34.8253 162.865C49.1362 171.043 72.6586 170.795 72.8923 170.798C72.9109 170.797 72.929 170.797 72.9471 170.797C74.9801 170.797 76.6426 172.43 76.6724 174.47C76.7022 176.527 75.0578 178.219 73.0003 178.249C72.9258 178.25 72.7342 178.253 72.4361 178.253ZM101.976 216.252C90.5558 216.252 70.3259 215.502 60.443 210.58C58.6011 209.663 57.8511 207.425 58.7683 205.583C59.686 203.74 61.9224 202.989 63.7653 203.908C73.9064 208.959 100.54 209.054 109.946 208.663C112 208.576 113.738 210.176 113.823 212.232C113.908 214.289 112.31 216.024 110.254 216.11C109.831 216.128 106.637 216.252 101.976 216.252ZM120.588 225.808C119.879 225.808 119.162 225.606 118.527 225.184C116.814 224.045 116.349 221.732 117.488 220.019C117.652 219.771 133.904 195.091 132.401 179.065C132.209 177.016 133.714 175.2 135.763 175.007C137.818 174.818 139.629 176.322 139.821 178.37C141.57 197.023 124.425 223.046 123.694 224.145C122.976 225.224 121.793 225.808 120.588 225.808Z" fill="#00E271" stroke="#00E271" stroke-width="1.5"/>
</svg>
