<svg width="24" height="24" viewBox="0 0 24 24" fill="none" xmlns="http://www.w3.org/2000/svg">
<path fill-rule="evenodd" clip-rule="evenodd" d="M20.6594 20.2083C18.0196 21.4655 15.9013 19.4369 17.0069 16.722C16.0688 17.3395 15.0104 18.5136 12.9194 18.772C7.55287 19.435 4.02961 14.3248 5.43154 10.0215C5.543 9.67901 5.75804 9.20894 5.83711 8.87575C5.08269 9.49474 4.14137 10.2631 2.66604 9.5326C1.71309 9.06081 1.14567 8.02822 1.36242 6.60204C0.694957 7.28603 0.18583 9.77045 0.0870219 10.6205C-0.120616 12.4058 0.0536136 13.9667 0.499969 15.393C1.37456 18.1892 2.84494 20.1335 4.97122 21.7093C7.66333 23.7048 11.6853 24.7335 15.7166 23.3979C16.8821 23.012 18.3649 22.2717 19.2711 21.5444C19.7282 21.1775 20.3811 20.6835 20.6594 20.2083Z" fill="#FFFF7F"/>
<path fill-rule="evenodd" clip-rule="evenodd" d="M4.06247 8.7706C1.49013 8.7706 1.92706 5.46598 3.85391 5.46598C6.1356 5.46598 5.94164 8.7706 4.06247 8.7706ZM17.6321 6.18883C15.404 6.18883 15.4458 2.88452 17.6321 2.88452C19.8021 2.88452 19.8021 6.18883 17.6321 6.18883ZM1.36237 6.60204C1.14562 8.02822 1.71305 9.06082 2.666 9.5326C4.14133 10.2631 5.08264 9.49474 5.83706 8.87575C6.15909 8.50441 6.43435 7.61722 7.59514 6.68906C9.88919 4.85439 12.7301 4.64879 15.3376 5.98083C15.8041 6.21918 16.1635 6.53674 16.5885 6.80273C19.4803 7.85877 21.2048 5.15673 19.7722 2.88452C17.2406 0.364841 12.7163 -0.571225 9.00893 0.342809C7.27584 0.770133 5.54499 1.7072 4.39878 2.70095C3.39724 3.56951 1.57365 5.37014 1.36237 6.60204Z" fill="#6699FF"/>
<path fill-rule="evenodd" clip-rule="evenodd" d="M17.6321 18.0645C17.6321 15.6468 20.9725 15.8546 20.9725 17.9611C20.9725 19.3748 19.2575 20.1131 18.1783 19.1766C17.9786 19.0033 17.6321 18.3687 17.6321 18.0645ZM16.5885 6.80273L17.4001 7.76123C19.445 10.2081 19.2203 13.7528 17.4243 16.2066C17.2636 16.4259 17.1547 16.5017 17.0069 16.722C15.9013 19.4369 18.0196 21.4655 20.6594 20.2083C21.4764 19.7929 22.7518 17.3805 23.1198 16.4714C24.7399 12.4701 24.1054 7.7437 21.3665 4.45661C21.041 4.06624 20.205 3.03604 19.7722 2.88452C21.2048 5.15673 19.4803 7.85877 16.5885 6.80273Z" fill="#FF6666"/>
</svg>
