<svg width="1366" height="768" viewBox="0 0 1366 768" fill="none" xmlns="http://www.w3.org/2000/svg">
<g opacity="0.3" clip-path="url(#clip0_7850_62382)">
<rect width="1940.62" height="1380" transform="translate(-37)" fill="#6699FF" fill-opacity="0.1"/>
<g clip-path="url(#clip1_7850_62382)">
<path d="M596.086 -55.2539H-77.7422V618.574H596.086V-55.2539Z" fill="#1A1740"/>
<path d="M117.289 58.9474L139.35 103.11C139.93 104.256 141.318 104.727 142.477 104.148L186.64 82.0732C187.785 81.4937 188.257 80.1056 187.677 78.9466L165.616 34.7839C165.037 33.6384 163.649 33.1667 162.49 33.7462L118.327 55.8208C117.181 56.4003 116.71 57.7884 117.289 58.9474ZM156.007 76.7364C152.005 78.5558 147.126 76.9386 144.997 73.0843C142.639 68.8122 144.337 63.4755 148.663 61.3192C152.881 59.2034 158.015 60.915 160.131 65.1331C162.287 69.4456 160.441 74.7284 156.007 76.7364Z" fill="#F6BB3C"/>
<path d="M177.192 157.796C172.772 148.592 176.33 137.554 185.467 132.999C185.655 132.905 185.844 132.811 186.033 132.73C201.477 125.655 217.554 142.689 208.754 157.203C208.673 157.338 208.592 157.473 208.498 157.608C204.455 164.009 206.692 168.982 209.751 171.704C211.099 172.89 210.371 175.141 208.579 175.289C204.374 175.612 198.404 174.359 193.445 166.772C192.394 165.154 189.9 165.747 189.712 167.661C189.712 167.675 189.712 167.688 189.712 167.715C189.564 169.413 187.583 170.235 186.302 169.09C183.189 166.3 179.308 162.243 177.165 157.81L177.192 157.796Z" fill="#F6BB3C"/>
<path d="M146.29 110.576C145.077 111.182 144.619 112.705 145.333 113.85C152.597 125.575 167.745 130.036 180.332 123.742C192.919 117.462 198.445 102.665 193.431 89.8216C192.946 88.5548 191.437 88.0158 190.237 88.6222L146.304 110.576H146.29Z" fill="#F6BB3C"/>
<path d="M303.994 78.3939L282.607 122.893C282.054 124.052 282.54 125.441 283.699 125.993L328.212 147.367C329.371 147.919 330.759 147.434 331.311 146.275L352.699 101.776C353.251 100.617 352.766 99.2286 351.607 98.6761L307.094 77.3023C305.935 76.7497 304.547 77.2349 303.994 78.3939ZM313.657 119.902C309.762 117.853 308.051 113.002 309.803 108.959C311.743 104.484 316.999 102.544 321.352 104.646C325.611 106.695 327.403 111.789 325.355 116.047C323.266 120.4 317.969 122.166 313.657 119.902Z" fill="#FF515C"/>
<path d="M349.25 41.9125C350.733 40.9017 352.754 41.872 352.889 43.6644L354.627 66.588L356.366 89.5117C356.5 91.3041 354.654 92.5574 353.037 91.7892L332.324 81.83L311.61 71.8709C309.993 71.0892 309.831 68.8656 311.3 67.8548L330.275 54.8904L349.25 41.9259V41.9125Z" fill="#FF515C"/>
<path d="M-24.1207 39.6087L-12.5713 87.6123C-12.2748 88.8656 -11.008 89.6337 -9.76821 89.3238L38.2353 77.7744C39.4886 77.4779 40.2568 76.2111 39.9468 74.9712L28.3974 26.9677C28.1009 25.7144 26.8341 24.9462 25.5943 25.2562L-22.4092 36.8056C-23.6625 37.1021 -24.4307 38.3689 -24.1207 39.6087ZM9.59761 65.6724C5.28511 66.5484 0.891754 63.8666 -0.307659 59.6214C-1.64184 54.9181 1.2152 50.107 5.91852 48.9884C10.514 47.8834 15.123 50.7 16.2281 55.2955C17.3601 59.9853 14.3683 64.7156 9.59761 65.6724Z" fill="#20E080"/>
<path d="M-12.0854 -17.2629C-11.5733 -18.9744 -9.40361 -19.5 -8.16376 -18.2062L7.6712 -1.53573L23.5062 15.1348C24.746 16.4285 24.0991 18.5848 22.3606 19.0025L0.0165119 24.3797L-22.3276 29.7569C-24.0661 30.1746 -25.6159 28.5574 -25.1038 26.8324L-18.5811 4.79826L-12.0585 -17.2359L-12.0854 -17.2629Z" fill="#20E080"/>
<path d="M-7.50362 96.4517C-8.82432 96.7752 -9.61944 98.1498 -9.17471 99.43C-4.72744 112.489 9.01865 120.251 22.6974 116.963C36.3761 113.675 45.0954 100.508 43.1009 86.8564C42.9122 85.5222 41.5645 84.6463 40.2573 84.9697L-7.50362 96.4517Z" fill="#20E080"/>
<path d="M494.257 -13.381L473.948 31.6173C473.423 32.7897 473.948 34.1643 475.107 34.6899L520.119 54.9991C521.291 55.5247 522.666 54.9991 523.192 53.8401L543.501 8.84186C544.026 7.6694 543.501 6.29479 542.342 5.7692L497.33 -14.54C496.158 -15.0656 494.783 -14.54 494.257 -13.381ZM504.917 27.8842C500.982 25.9301 499.149 21.119 500.807 17.0356C502.64 12.5075 507.842 10.459 512.249 12.4536C516.548 14.3942 518.461 19.4479 516.521 23.7469C514.54 28.1538 509.284 30.0405 504.917 27.8842Z" fill="#3E7AFF"/>
<path d="M514.404 79.6213C515.334 79.0688 516.533 79.3787 517.139 80.2682C523.271 89.2031 525.401 100.739 521.951 111.898C518.46 123.231 509.983 131.654 499.66 135.509C498.111 136.088 496.534 134.7 496.925 133.083L503.744 104.903C503.892 104.283 503.744 103.623 503.339 103.124L491.952 89.0818C490.887 87.7611 491.777 85.7936 493.475 85.7262C500.927 85.4836 508.11 83.3274 514.39 79.6078L514.404 79.6213Z" fill="#3E7AFF"/>
<path d="M461.833 56.859C461.604 55.7944 460.566 55.134 459.488 55.2958C448.774 56.8995 438.882 63.2065 433.06 73.3409C427.144 83.6235 426.767 95.5637 430.972 105.752C431.605 107.275 433.694 107.477 434.61 106.102L450.58 81.8985C450.93 81.3594 451.523 81.0225 452.157 80.9821L470.202 79.7422C471.9 79.621 472.735 77.6264 471.617 76.3462C466.711 70.7264 463.396 64.0016 461.846 56.8725L461.833 56.859Z" fill="#3E7AFF"/>
<path d="M472.532 41.7107C471.292 41.1582 469.823 41.7512 469.378 43.0314C464.877 56.0768 470.982 70.6314 483.812 76.4129C496.628 82.1943 511.587 77.1541 518.393 65.1465C519.066 63.974 518.541 62.4647 517.301 61.9121L472.532 41.7107Z" fill="#3E7AFF"/>
<path d="M-41.6249 280.178L-4.52393 312.751C-3.55362 313.6 -2.08467 313.506 -1.23565 312.535L31.3372 275.421C32.1862 274.451 32.0919 272.982 31.1216 272.133L-5.9794 239.56C-6.94971 238.711 -8.41866 238.805 -9.26768 239.775L-41.8405 276.89C-42.6896 277.86 -42.5952 279.329 -41.6249 280.178ZM0.947548 282.038C-2.0712 285.232 -7.20577 285.569 -10.6288 282.806C-14.4157 279.733 -14.8605 274.154 -11.68 270.529C-8.5669 266.985 -3.17628 266.621 0.381535 269.734C4.00673 272.914 4.28974 278.494 0.947548 282.038Z" fill="#FF515C"/>
<path d="M51.1593 349.11C43.5855 342.263 42.723 330.687 49.4613 323.019C49.596 322.857 49.7443 322.709 49.8925 322.547C61.5228 310.162 82.8427 319.865 80.1609 336.644C80.1339 336.792 80.107 336.954 80.08 337.115C78.7593 344.568 82.6945 348.341 86.5757 349.703C88.2603 350.295 88.449 352.654 86.8453 353.462C83.0718 355.349 77.0747 356.454 69.6222 351.293C68.0455 350.201 65.9431 351.684 66.4956 353.53C66.4956 353.543 66.4957 353.557 66.5091 353.57C67.0078 355.201 65.4849 356.71 63.8812 356.131C59.9326 354.716 54.8115 352.425 51.1593 349.123V349.11Z" fill="#FF515C"/>
<path d="M4.72202 317.037C3.83257 318.061 3.98081 319.638 5.07241 320.433C16.231 328.546 31.9312 326.956 41.2165 316.39C50.5019 305.824 50.0302 290.043 40.5427 280.03C39.6128 279.046 38.0226 279.114 37.1197 280.124L4.72202 317.037Z" fill="#FF515C"/>
<path d="M461.306 259.276L443.207 305.204C442.736 306.404 443.328 307.751 444.514 308.223L490.456 326.322C491.655 326.794 493.003 326.201 493.475 325.015L511.574 279.087C512.046 277.887 511.453 276.54 510.267 276.068L464.325 257.969C463.126 257.497 461.778 258.09 461.306 259.276ZM473.961 299.962C469.931 298.196 467.869 293.48 469.325 289.329C470.928 284.72 476.036 282.415 480.524 284.194C484.917 285.919 487.073 290.879 485.348 295.272C483.583 299.76 478.421 301.916 473.961 299.962Z" fill="#F6BB3C"/>
<path d="M503.797 219.614C505.199 218.495 507.288 219.317 507.544 221.096L510.94 243.831L514.336 266.566C514.605 268.331 512.853 269.733 511.182 269.073L489.795 260.65L468.408 252.227C466.737 251.567 466.413 249.356 467.815 248.238L485.806 233.926L503.797 219.614Z" fill="#F6BB3C"/>
<path d="M145.617 274.705L136.345 323.194C136.103 324.461 136.925 325.673 138.191 325.916L186.694 335.188C187.96 335.431 189.173 334.608 189.416 333.342L198.688 284.853C198.93 283.586 198.108 282.373 196.841 282.131L148.339 272.859C147.072 272.616 145.86 273.438 145.617 274.705ZM165.589 312.345C161.304 311.361 158.406 307.103 159.067 302.75C159.794 297.925 164.376 294.718 169.12 295.621C173.756 296.51 176.802 300.971 175.912 305.607C175.009 310.351 170.347 313.423 165.589 312.332V312.345Z" fill="#3E7AFF"/>
<path d="M180.022 227.849C181.195 226.487 183.391 226.919 183.984 228.603L191.531 250.314L199.078 272.025C199.671 273.723 198.202 275.407 196.437 275.07L173.863 270.758L151.29 266.445C149.525 266.109 148.797 263.993 149.969 262.645L164.996 245.247L180.022 227.849Z" fill="#3E7AFF"/>
<path d="M137.315 333.343C135.981 333.087 134.688 334.017 134.566 335.365C133.232 349.097 142.558 361.833 156.371 364.474C170.185 367.116 183.554 358.72 187.381 345.472C187.758 344.165 186.896 342.831 185.562 342.575L137.315 333.343Z" fill="#3E7AFF"/>
<path d="M351.715 211.056L321.312 249.963C320.516 250.973 320.705 252.442 321.716 253.224L360.623 283.627C361.633 284.422 363.102 284.233 363.884 283.223L394.287 244.316C395.082 243.305 394.894 241.836 393.883 241.055L354.976 210.651C353.965 209.856 352.496 210.045 351.715 211.056ZM352.294 253.669C348.925 250.839 348.292 245.731 350.866 242.16C353.723 238.198 359.262 237.429 363.062 240.408C366.782 243.319 367.442 248.682 364.544 252.402C361.566 256.202 356.014 256.809 352.294 253.669Z" fill="#20E080"/>
<path d="M349.248 306.184C350.285 305.861 351.377 306.454 351.754 307.465C355.595 317.599 354.921 329.31 348.938 339.337C342.86 349.525 332.631 355.697 321.688 356.991C320.044 357.18 318.845 355.455 319.613 353.986L332.914 328.232C333.211 327.666 333.224 326.979 332.941 326.399L325.206 310.052C324.478 308.516 325.812 306.804 327.483 307.155C334.774 308.691 342.267 308.3 349.248 306.157V306.184Z" fill="#20E080"/>
<path d="M303.575 271.618C303.601 270.54 302.752 269.637 301.674 269.543C290.88 268.559 279.775 272.346 271.716 280.809C263.536 289.394 260.328 300.903 262.013 311.792C262.269 313.423 264.25 314.123 265.463 312.991L286.715 293.262C287.187 292.83 287.834 292.628 288.467 292.736L306.283 295.809C307.954 296.092 309.248 294.353 308.453 292.844C305.016 286.227 303.386 278.896 303.575 271.618Z" fill="#20E080"/>
<path d="M317.55 259.437C316.486 258.601 314.909 258.844 314.181 259.976C306.715 271.579 309.208 287.171 320.286 295.823C331.377 304.489 347.105 303.114 356.552 293.074C357.481 292.09 357.333 290.5 356.255 289.665L317.55 259.423V259.437Z" fill="#20E080"/>
<path d="M424.92 455.505L466.212 482.566C467.291 483.267 468.733 482.971 469.433 481.893L496.494 440.587C497.195 439.509 496.899 438.067 495.82 437.366L454.528 410.305C453.45 409.604 452.008 409.901 451.307 410.979L424.246 452.285C423.546 453.363 423.842 454.805 424.92 455.505ZM467.331 451.395C464.784 454.98 459.757 456.031 455.984 453.78C451.793 451.274 450.58 445.802 453.235 441.773C455.822 437.824 461.118 436.719 465.067 439.307C469.11 441.948 470.161 447.433 467.345 451.409L467.331 451.395Z" fill="#20E080"/>
<path d="M526.427 510.773C517.977 505.045 515.497 493.712 521.09 485.181C521.211 485.006 521.319 484.831 521.44 484.655C531.224 470.775 553.69 477.392 553.393 494.372C553.393 494.534 553.393 494.682 553.38 494.857C553.11 502.418 557.544 505.598 561.56 506.407C563.312 506.757 563.824 509.075 562.355 510.086C558.878 512.485 553.097 514.412 544.997 510.342C543.272 509.479 541.412 511.245 542.221 512.997C542.221 513.01 542.221 513.024 542.235 513.037C542.962 514.587 541.655 516.285 539.984 515.948C535.887 515.099 530.483 513.549 526.413 510.786L526.427 510.773Z" fill="#20E080"/>
<path d="M475.956 485.53C475.215 486.662 475.579 488.212 476.778 488.846C488.961 495.314 504.284 491.554 512.006 479.776C519.714 468.011 517.046 452.445 506.251 443.861C505.187 443.012 503.623 443.295 502.882 444.427L475.969 485.517L475.956 485.53Z" fill="#20E080"/>
<path d="M-25.979 511.394L-4.56472 555.88C-4.01218 557.039 -2.61062 557.524 -1.46511 556.972L43.021 535.544C44.18 534.992 44.6652 533.59 44.1126 532.444L22.6984 487.958C22.1458 486.799 20.7443 486.314 19.5988 486.867L-24.8874 508.294C-26.0464 508.847 -26.5315 510.249 -25.979 511.394ZM12.4831 529.749C8.45363 531.515 3.5886 529.817 1.52668 525.935C-0.764332 521.623 1.01457 516.313 5.3675 514.224C9.62609 512.176 14.7202 513.955 16.7687 518.213C18.8575 522.566 16.9439 527.809 12.4831 529.763V529.749Z" fill="#3E7AFF"/>
<path d="M-26.2227 453.27C-26.088 451.477 -24.0665 450.507 -22.5975 451.518L-3.60905 464.469L15.3794 477.42C16.8619 478.431 16.6867 480.668 15.0829 481.436L-5.63053 491.409L-26.344 501.381C-27.9612 502.163 -29.8075 500.896 -29.6727 499.117L-27.9477 476.194L-26.2227 453.27Z" fill="#3E7AFF"/>
<path d="M327.16 484.065L324.788 533.376C324.721 534.656 325.718 535.748 326.999 535.815L376.323 538.173C377.603 538.241 378.695 537.243 378.762 535.963L381.134 486.652C381.201 485.372 380.204 484.281 378.924 484.213L329.6 481.855C328.319 481.787 327.228 482.785 327.16 484.065ZM352.227 518.525C347.847 518.147 344.383 514.347 344.41 509.953C344.451 505.075 348.534 501.248 353.359 501.49C358.076 501.719 361.714 505.708 361.485 510.425C361.256 515.25 357.065 518.942 352.213 518.525H352.227Z" fill="#F6BB3C"/>
<path d="M354.64 432.84C355.611 431.331 357.848 431.439 358.67 433.029L369.195 453.459L379.72 473.89C380.542 475.48 379.329 477.367 377.537 477.286L354.573 476.181L331.609 475.076C329.817 474.995 328.792 473 329.763 471.491L342.202 452.166L354.64 432.84Z" fill="#F6BB3C"/>
<path d="M327.174 543.281C325.827 543.214 324.668 544.319 324.735 545.666C325.342 559.453 336.365 570.746 350.422 571.42C364.478 572.094 376.526 561.906 378.453 548.24C378.641 546.893 377.604 545.693 376.256 545.626L327.201 543.268L327.174 543.281Z" fill="#F6BB3C"/>
<path d="M203.08 454.796L165.413 486.722C164.429 487.557 164.308 489.026 165.143 489.996L197.069 527.663C197.905 528.647 199.374 528.768 200.344 527.933L238.011 496.007C238.995 495.171 239.116 493.702 238.281 492.732L206.355 455.065C205.519 454.081 204.05 453.96 203.08 454.796ZM194.994 496.64C192.272 493.177 192.689 488.056 195.937 485.077C199.535 481.776 205.115 482.153 208.241 485.846C211.3 489.444 210.856 494.834 207.257 497.88C203.578 501.007 198.013 500.468 195.007 496.64H194.994Z" fill="#FF515C"/>
<path d="M181.358 547.447C182.436 547.352 183.393 548.134 183.554 549.212C185.252 559.912 182.234 571.246 174.323 579.858C166.304 588.591 155.038 592.566 144.054 591.623C142.41 591.475 141.588 589.547 142.626 588.267L160.887 565.748C161.291 565.249 161.439 564.589 161.291 563.969L157.032 546.395C156.628 544.738 158.286 543.35 159.849 544.024C166.682 547.002 174.094 548.147 181.358 547.474V547.447Z" fill="#FF515C"/>
<path d="M143.65 504.322C143.893 503.271 143.246 502.22 142.208 501.897C131.845 498.743 120.201 500.198 110.592 506.842C100.835 513.594 95.3636 524.214 94.7976 535.211C94.7167 536.868 96.5091 537.946 97.9241 537.084L122.734 522.084C123.287 521.748 123.961 521.694 124.554 521.936L141.373 528.567C142.949 529.187 144.567 527.731 144.108 526.1C142.087 518.931 141.979 511.424 143.637 504.322H143.65Z" fill="#FF515C"/>
<path d="M159.807 495.226C158.931 494.188 157.341 494.107 156.397 495.078C146.735 504.929 146.007 520.697 155.104 531.424C164.2 542.151 179.874 544.011 191.167 536.087C192.272 535.305 192.447 533.729 191.571 532.691L159.807 495.226Z" fill="#FF515C"/>
</g>
<g clip-path="url(#clip2_7850_62382)">
<path d="M1269.91 -55.2539H596.086V618.574H1269.91V-55.2539Z" fill="#1A1740"/>
<path d="M791.117 58.9474L813.178 103.11C813.758 104.256 815.146 104.727 816.305 104.148L860.468 82.0732C861.613 81.4937 862.085 80.1056 861.505 78.9466L839.444 34.7839C838.865 33.6384 837.477 33.1667 836.318 33.7462L792.155 55.8208C791.009 56.4003 790.538 57.7884 791.117 58.9474ZM829.835 76.7364C825.833 78.5558 820.954 76.9386 818.825 73.0843C816.467 68.8122 818.165 63.4755 822.491 61.3192C826.709 59.2034 831.843 60.915 833.959 65.1331C836.116 69.4456 834.269 74.7284 829.835 76.7364Z" fill="#F6BB3C"/>
<path d="M851.02 157.796C846.6 148.592 850.158 137.554 859.295 132.999C859.483 132.905 859.672 132.811 859.861 132.73C875.305 125.655 891.383 142.689 882.582 157.203C882.501 157.338 882.421 157.473 882.326 157.608C878.283 164.009 880.52 168.982 883.58 171.704C884.927 172.89 884.2 175.141 882.407 175.289C878.202 175.612 872.232 174.359 867.273 166.772C866.222 165.154 863.729 165.747 863.54 167.661C863.54 167.675 863.54 167.688 863.54 167.715C863.392 169.413 861.411 170.235 860.13 169.09C857.017 166.3 853.136 162.243 850.993 157.81L851.02 157.796Z" fill="#F6BB3C"/>
<path d="M820.118 110.576C818.905 111.182 818.447 112.705 819.161 113.85C826.425 125.575 841.573 130.036 854.16 123.742C866.747 117.462 872.273 102.665 867.259 89.8216C866.774 88.5548 865.265 88.0158 864.065 88.6222L820.132 110.576H820.118Z" fill="#F6BB3C"/>
<path d="M977.822 78.3939L956.435 122.893C955.883 124.052 956.368 125.441 957.527 125.993L1002.04 147.367C1003.2 147.919 1004.59 147.434 1005.14 146.275L1026.53 101.776C1027.08 100.617 1026.59 99.2286 1025.44 98.6761L980.922 77.3023C979.763 76.7497 978.375 77.2349 977.822 78.3939ZM987.485 119.902C983.59 117.853 981.879 113.002 983.631 108.959C985.571 104.484 990.827 102.544 995.18 104.646C999.439 106.695 1001.23 111.789 999.183 116.047C997.094 120.4 991.798 122.166 987.485 119.902Z" fill="#FF515C"/>
<path d="M1023.08 41.9125C1024.56 40.9017 1026.58 41.872 1026.72 43.6644L1028.46 66.588L1030.19 89.5117C1030.33 91.3041 1028.48 92.5574 1026.87 91.7892L1006.15 81.83L985.438 71.8709C983.821 71.0892 983.659 68.8656 985.128 67.8548L1004.1 54.8904L1023.08 41.9259V41.9125Z" fill="#FF515C"/>
<path d="M649.707 39.6087L661.257 87.6123C661.553 88.8656 662.82 89.6337 664.06 89.3238L712.063 77.7744C713.317 77.4779 714.085 76.2111 713.775 74.9712L702.226 26.9677C701.929 25.7144 700.662 24.9462 699.422 25.2562L651.419 36.8056C650.166 37.1021 649.397 38.3689 649.707 39.6087ZM683.426 65.6724C679.113 66.5484 674.72 63.8666 673.52 59.6214C672.186 54.9181 675.043 50.107 679.747 48.9884C684.342 47.8834 688.951 50.7 690.056 55.2955C691.188 59.9853 688.196 64.7156 683.426 65.6724Z" fill="#20E080"/>
<path d="M661.743 -17.2629C662.255 -18.9744 664.425 -19.5 665.664 -18.2062L681.499 -1.53573L697.334 15.1348C698.574 16.4285 697.927 18.5848 696.189 19.0025L673.845 24.3797L651.5 29.7569C649.762 30.1746 648.212 28.5574 648.724 26.8324L655.247 4.79826L661.77 -17.2359L661.743 -17.2629Z" fill="#20E080"/>
<path d="M666.325 96.4517C665.004 96.7752 664.209 98.1498 664.653 99.43C669.101 112.489 682.847 120.251 696.525 116.963C710.204 113.675 718.924 100.508 716.929 86.8564C716.74 85.5222 715.393 84.6463 714.085 84.9697L666.325 96.4517Z" fill="#20E080"/>
<path d="M1168.09 -13.381L1147.78 31.6173C1147.25 32.7897 1147.78 34.1643 1148.94 34.6899L1193.95 54.9991C1195.12 55.5247 1196.49 54.9991 1197.02 53.8401L1217.33 8.84186C1217.85 7.6694 1217.33 6.29479 1216.17 5.7692L1171.16 -14.54C1169.99 -15.0656 1168.61 -14.54 1168.09 -13.381ZM1178.75 27.8842C1174.81 25.9301 1172.98 21.119 1174.64 17.0356C1176.47 12.5075 1181.67 10.459 1186.08 12.4536C1190.38 14.3942 1192.29 19.4479 1190.35 23.7469C1188.37 28.1538 1183.11 30.0405 1178.75 27.8842Z" fill="#3E7AFF"/>
<path d="M1188.23 79.6213C1189.16 79.0688 1190.36 79.3787 1190.97 80.2682C1197.1 89.2031 1199.23 100.739 1195.78 111.898C1192.29 123.231 1183.81 131.654 1173.49 135.509C1171.94 136.088 1170.36 134.7 1170.75 133.083L1177.57 104.903C1177.72 104.283 1177.57 103.623 1177.17 103.124L1165.78 89.0818C1164.72 87.7611 1165.6 85.7936 1167.3 85.7262C1174.76 85.4836 1181.94 83.3274 1188.22 79.6078L1188.23 79.6213Z" fill="#3E7AFF"/>
<path d="M1135.66 56.859C1135.43 55.7944 1134.39 55.134 1133.32 55.2958C1122.6 56.8995 1112.71 63.2065 1106.89 73.3409C1100.97 83.6235 1100.59 95.5637 1104.8 105.752C1105.43 107.275 1107.52 107.477 1108.44 106.102L1124.41 81.8985C1124.76 81.3594 1125.35 81.0225 1125.98 80.9821L1144.03 79.7422C1145.73 79.621 1146.56 77.6264 1145.44 76.3462C1140.54 70.7264 1137.22 64.0016 1135.67 56.8725L1135.66 56.859Z" fill="#3E7AFF"/>
<path d="M1146.36 41.7107C1145.12 41.1582 1143.65 41.7512 1143.21 43.0314C1138.71 56.0768 1144.81 70.6314 1157.64 76.4129C1170.46 82.1943 1185.42 77.1541 1192.22 65.1465C1192.89 63.974 1192.37 62.4647 1191.13 61.9121L1146.36 41.7107Z" fill="#3E7AFF"/>
<path d="M632.203 280.178L669.304 312.751C670.275 313.6 671.743 313.506 672.592 312.535L705.165 275.421C706.014 274.451 705.92 272.982 704.95 272.133L667.849 239.56C666.878 238.711 665.409 238.805 664.56 239.775L631.988 276.89C631.139 277.86 631.233 279.329 632.203 280.178ZM674.776 282.038C671.757 285.232 666.622 285.569 663.199 282.806C659.412 279.733 658.968 274.154 662.148 270.529C665.261 266.985 670.652 266.621 674.21 269.734C677.835 272.914 678.118 278.494 674.776 282.038Z" fill="#FF515C"/>
<path d="M724.987 349.11C717.414 342.263 716.551 330.687 723.289 323.019C723.424 322.857 723.572 322.709 723.721 322.547C735.351 310.162 756.671 319.865 753.989 336.644C753.962 336.792 753.935 336.954 753.908 337.115C752.587 344.568 756.523 348.341 760.404 349.703C762.088 350.295 762.277 352.654 760.673 353.462C756.9 355.349 750.903 356.454 743.45 351.293C741.874 350.201 739.771 351.684 740.324 353.53C740.324 353.543 740.324 353.557 740.337 353.57C740.836 355.201 739.313 356.71 737.709 356.131C733.761 354.716 728.64 352.425 724.987 349.123V349.11Z" fill="#FF515C"/>
<path d="M678.55 317.037C677.661 318.061 677.809 319.638 678.901 320.433C690.059 328.546 705.759 326.956 715.045 316.39C724.33 305.824 723.858 290.043 714.371 280.03C713.441 279.046 711.851 279.114 710.948 280.124L678.55 317.037Z" fill="#FF515C"/>
<path d="M1135.13 259.276L1117.04 305.204C1116.56 306.404 1117.16 307.751 1118.34 308.223L1164.28 326.322C1165.48 326.794 1166.83 326.201 1167.3 325.015L1185.4 279.087C1185.87 277.887 1185.28 276.54 1184.09 276.068L1138.15 257.969C1136.95 257.497 1135.61 258.09 1135.13 259.276ZM1147.79 299.962C1143.76 298.196 1141.7 293.48 1143.15 289.329C1144.76 284.72 1149.86 282.415 1154.35 284.194C1158.75 285.919 1160.9 290.879 1159.18 295.272C1157.41 299.76 1152.25 301.916 1147.79 299.962Z" fill="#F6BB3C"/>
<path d="M1177.63 219.614C1179.03 218.495 1181.12 219.317 1181.37 221.096L1184.77 243.831L1188.16 266.566C1188.43 268.331 1186.68 269.733 1185.01 269.073L1163.62 260.65L1142.24 252.227C1140.56 251.567 1140.24 249.356 1141.64 248.238L1159.63 233.926L1177.63 219.614Z" fill="#F6BB3C"/>
<path d="M819.445 274.705L810.173 323.194C809.931 324.461 810.753 325.673 812.02 325.916L860.522 335.188C861.789 335.431 863.001 334.608 863.244 333.342L872.516 284.853C872.758 283.586 871.936 282.373 870.67 282.131L822.167 272.859C820.901 272.616 819.688 273.438 819.445 274.705ZM839.417 312.345C835.132 311.361 832.234 307.103 832.895 302.75C833.622 297.925 838.205 294.718 842.948 295.621C847.584 296.51 850.63 300.971 849.74 305.607C848.838 310.351 844.175 313.423 839.417 312.332V312.345Z" fill="#3E7AFF"/>
<path d="M853.85 227.849C855.023 226.487 857.219 226.919 857.812 228.603L865.359 250.314L872.906 272.025C873.499 273.723 872.03 275.407 870.265 275.07L847.692 270.758L825.118 266.445C823.353 266.109 822.625 263.993 823.798 262.645L838.824 245.247L853.85 227.849Z" fill="#3E7AFF"/>
<path d="M811.144 333.343C809.809 333.087 808.516 334.017 808.394 335.365C807.06 349.097 816.386 361.833 830.199 364.474C844.013 367.116 857.382 358.72 861.209 345.472C861.586 344.165 860.724 342.831 859.39 342.575L811.144 333.343Z" fill="#3E7AFF"/>
<path d="M1025.54 211.056L995.14 249.963C994.345 250.973 994.533 252.442 995.544 253.224L1034.45 283.627C1035.46 284.422 1036.93 284.233 1037.71 283.223L1068.12 244.316C1068.91 243.305 1068.72 241.836 1067.71 241.055L1028.8 210.651C1027.79 209.856 1026.32 210.045 1025.54 211.056ZM1026.12 253.669C1022.75 250.839 1022.12 245.731 1024.69 242.16C1027.55 238.198 1033.09 237.429 1036.89 240.408C1040.61 243.319 1041.27 248.682 1038.37 252.402C1035.39 256.202 1029.84 256.809 1026.12 253.669Z" fill="#20E080"/>
<path d="M1023.08 306.184C1024.11 305.861 1025.21 306.454 1025.58 307.465C1029.42 317.599 1028.75 329.31 1022.77 339.337C1016.69 349.525 1006.46 355.697 995.516 356.991C993.872 357.18 992.673 355.455 993.441 353.986L1006.74 328.232C1007.04 327.666 1007.05 326.979 1006.77 326.399L999.034 310.052C998.306 308.516 999.64 306.804 1001.31 307.155C1008.6 308.691 1016.09 308.3 1023.08 306.157V306.184Z" fill="#20E080"/>
<path d="M977.403 271.618C977.43 270.54 976.581 269.637 975.502 269.543C964.708 268.559 953.603 272.346 945.544 280.809C937.364 289.394 934.156 300.903 935.841 311.792C936.097 313.423 938.078 314.123 939.291 312.991L960.543 293.262C961.015 292.83 961.662 292.628 962.295 292.736L980.111 295.809C981.782 296.092 983.076 294.353 982.281 292.844C978.845 286.227 977.214 278.896 977.403 271.618Z" fill="#20E080"/>
<path d="M991.379 259.437C990.314 258.601 988.737 258.844 988.009 259.976C980.543 271.579 983.037 287.171 994.114 295.823C1005.21 304.489 1020.93 303.114 1030.38 293.074C1031.31 292.09 1031.16 290.5 1030.08 289.665L991.379 259.423V259.437Z" fill="#20E080"/>
<path d="M1098.75 455.505L1140.04 482.566C1141.12 483.267 1142.56 482.971 1143.26 481.893L1170.32 440.587C1171.02 439.509 1170.73 438.067 1169.65 437.366L1128.36 410.305C1127.28 409.604 1125.84 409.901 1125.14 410.979L1098.07 452.285C1097.37 453.363 1097.67 454.805 1098.75 455.505ZM1141.16 451.395C1138.61 454.98 1133.59 456.031 1129.81 453.78C1125.62 451.274 1124.41 445.802 1127.06 441.773C1129.65 437.824 1134.95 436.719 1138.9 439.307C1142.94 441.948 1143.99 447.433 1141.17 451.409L1141.16 451.395Z" fill="#20E080"/>
<path d="M1200.25 510.773C1191.8 505.045 1189.33 493.712 1194.92 485.181C1195.04 485.006 1195.15 484.831 1195.27 484.655C1205.05 470.775 1227.52 477.392 1227.22 494.372C1227.22 494.534 1227.22 494.682 1227.21 494.857C1226.94 502.418 1231.37 505.598 1235.39 506.407C1237.14 506.757 1237.65 509.075 1236.18 510.086C1232.71 512.485 1226.92 514.412 1218.83 510.342C1217.1 509.479 1215.24 511.245 1216.05 512.997C1216.05 513.01 1216.05 513.024 1216.06 513.037C1216.79 514.587 1215.48 516.285 1213.81 515.948C1209.72 515.099 1204.31 513.549 1200.24 510.786L1200.25 510.773Z" fill="#20E080"/>
<path d="M1149.78 485.53C1149.04 486.662 1149.41 488.212 1150.61 488.846C1162.79 495.314 1178.11 491.554 1185.83 479.776C1193.54 468.011 1190.87 452.445 1180.08 443.861C1179.01 443.012 1177.45 443.295 1176.71 444.427L1149.8 485.517L1149.78 485.53Z" fill="#20E080"/>
<path d="M647.849 511.394L669.263 555.88C669.816 557.039 671.218 557.524 672.363 556.972L716.849 535.544C718.008 534.992 718.493 533.59 717.941 532.444L696.526 487.958C695.974 486.799 694.572 486.314 693.427 486.867L648.941 508.294C647.782 508.847 647.297 510.249 647.849 511.394ZM686.311 529.749C682.282 531.515 677.417 529.817 675.355 525.935C673.064 521.623 674.843 516.313 679.196 514.224C683.454 512.176 688.548 513.955 690.597 518.213C692.686 522.566 690.772 527.809 686.311 529.763V529.749Z" fill="#3E7AFF"/>
<path d="M647.605 453.27C647.74 451.477 649.762 450.507 651.231 451.518L670.219 464.469L689.208 477.42C690.69 478.431 690.515 480.668 688.911 481.436L668.198 491.409L647.484 501.381C645.867 502.163 644.021 500.896 644.155 499.117L645.88 476.194L647.605 453.27Z" fill="#3E7AFF"/>
<path d="M1000.99 484.065L998.617 533.376C998.549 534.656 999.546 535.748 1000.83 535.815L1050.15 538.173C1051.43 538.241 1052.52 537.243 1052.59 535.963L1054.96 486.652C1055.03 485.372 1054.03 484.281 1052.75 484.213L1003.43 481.855C1002.15 481.787 1001.06 482.785 1000.99 484.065ZM1026.05 518.525C1021.67 518.147 1018.21 514.347 1018.24 509.953C1018.28 505.075 1022.36 501.248 1027.19 501.49C1031.9 501.719 1035.54 505.708 1035.31 510.425C1035.08 515.25 1030.89 518.942 1026.04 518.525H1026.05Z" fill="#F6BB3C"/>
<path d="M1028.47 432.84C1029.44 431.331 1031.68 431.439 1032.5 433.029L1043.02 453.459L1053.55 473.89C1054.37 475.48 1053.16 477.367 1051.37 477.286L1028.4 476.181L1005.44 475.076C1003.64 474.995 1002.62 473 1003.59 471.491L1016.03 452.166L1028.47 432.84Z" fill="#F6BB3C"/>
<path d="M1001 543.281C999.655 543.214 998.496 544.319 998.563 545.666C999.17 559.453 1010.19 570.746 1024.25 571.42C1038.31 572.094 1050.35 561.906 1052.28 548.24C1052.47 546.893 1051.43 545.693 1050.08 545.626L1001.03 543.268L1001 543.281Z" fill="#F6BB3C"/>
<path d="M876.908 454.796L839.241 486.722C838.257 487.557 838.136 489.026 838.971 489.996L870.897 527.663C871.733 528.647 873.202 528.768 874.172 527.933L911.839 496.007C912.823 495.171 912.944 493.702 912.109 492.732L880.183 455.065C879.347 454.081 877.878 453.96 876.908 454.796ZM868.822 496.64C866.1 493.177 866.517 488.056 869.765 485.077C873.364 481.776 878.943 482.153 882.069 485.846C885.129 489.444 884.684 494.834 881.086 497.88C877.407 501.007 871.841 500.468 868.835 496.64H868.822Z" fill="#FF515C"/>
<path d="M855.186 547.447C856.264 547.352 857.221 548.134 857.382 549.212C859.08 559.912 856.062 571.246 848.151 579.858C840.132 588.591 828.866 592.566 817.883 591.623C816.238 591.475 815.416 589.547 816.454 588.267L834.715 565.748C835.119 565.249 835.267 564.589 835.119 563.969L830.861 546.395C830.456 544.738 832.114 543.35 833.677 544.024C840.51 547.002 847.922 548.147 855.186 547.474V547.447Z" fill="#FF515C"/>
<path d="M817.478 504.322C817.721 503.271 817.074 502.22 816.036 501.897C805.673 498.743 794.029 500.198 784.42 506.842C774.663 513.594 769.192 524.214 768.626 535.211C768.545 536.868 770.337 537.946 771.752 537.084L796.563 522.084C797.115 521.748 797.789 521.694 798.382 521.936L815.201 528.567C816.777 529.187 818.395 527.731 817.936 526.1C815.915 518.931 815.807 511.424 817.465 504.322H817.478Z" fill="#FF515C"/>
<path d="M833.635 495.226C832.759 494.188 831.169 494.107 830.225 495.078C820.563 504.929 819.835 520.697 828.932 531.424C838.028 542.151 853.702 544.011 864.995 536.087C866.1 535.305 866.275 533.729 865.399 532.691L833.635 495.226Z" fill="#FF515C"/>
</g>
<g clip-path="url(#clip3_7850_62382)">
<path d="M1943.74 -55.2539H1269.91V618.574H1943.74V-55.2539Z" fill="#1A1740"/>
<path d="M1323.54 39.6087L1335.08 87.6123C1335.38 88.8656 1336.65 89.6337 1337.89 89.3238L1385.89 77.7744C1387.14 77.4779 1387.91 76.2111 1387.6 74.9712L1376.05 26.9677C1375.76 25.7144 1374.49 24.9462 1373.25 25.2562L1325.25 36.8056C1323.99 37.1021 1323.23 38.3689 1323.54 39.6087ZM1357.25 65.6724C1352.94 66.5484 1348.55 63.8666 1347.35 59.6214C1346.01 54.9181 1348.87 50.107 1353.57 48.9884C1358.17 47.8834 1362.78 50.7 1363.88 55.2955C1365.02 59.9853 1362.02 64.7156 1357.25 65.6724Z" fill="#20E080"/>
<path d="M1335.57 -17.2629C1336.08 -18.9744 1338.25 -19.5 1339.49 -18.2062L1355.33 -1.53573L1371.16 15.1348C1372.4 16.4285 1371.76 18.5848 1370.02 19.0025L1347.67 24.3797L1325.33 29.7569C1323.59 30.1746 1322.04 28.5574 1322.55 26.8324L1329.08 4.79826L1335.6 -17.2359L1335.57 -17.2629Z" fill="#20E080"/>
<path d="M1340.15 96.4517C1338.83 96.7752 1338.04 98.1498 1338.48 99.43C1342.93 112.489 1356.67 120.251 1370.35 116.963C1384.03 113.675 1392.75 100.508 1390.76 86.8564C1390.57 85.5222 1389.22 84.6463 1387.91 84.9697L1340.15 96.4517Z" fill="#20E080"/>
<path d="M1306.03 280.178L1343.13 312.751C1344.1 313.6 1345.57 313.506 1346.42 312.535L1378.99 275.421C1379.84 274.451 1379.75 272.982 1378.78 272.133L1341.68 239.56C1340.71 238.711 1339.24 238.805 1338.39 239.775L1305.82 276.89C1304.97 277.86 1305.06 279.329 1306.03 280.178ZM1348.6 282.038C1345.59 285.232 1340.45 285.569 1337.03 282.806C1333.24 279.733 1332.8 274.154 1335.98 270.529C1339.09 266.985 1344.48 266.621 1348.04 269.734C1351.66 272.914 1351.95 278.494 1348.6 282.038Z" fill="#FF515C"/>
<path d="M1352.38 317.037C1351.49 318.061 1351.64 319.638 1352.73 320.433C1363.89 328.546 1379.59 326.956 1388.87 316.39C1398.16 305.824 1397.69 290.043 1388.2 280.03C1387.27 279.046 1385.68 279.114 1384.78 280.124L1352.38 317.037Z" fill="#FF515C"/>
<path d="M1321.68 511.394L1343.09 555.88C1343.64 557.039 1345.05 557.524 1346.19 556.972L1390.68 535.544C1391.84 534.992 1392.32 533.59 1391.77 532.444L1370.35 487.958C1369.8 486.799 1368.4 486.314 1367.26 486.867L1322.77 508.294C1321.61 508.847 1321.12 510.249 1321.68 511.394ZM1360.14 529.749C1356.11 531.515 1351.24 529.817 1349.18 525.935C1346.89 521.623 1348.67 516.313 1353.02 514.224C1357.28 512.176 1362.38 513.955 1364.42 518.213C1366.51 522.566 1364.6 527.809 1360.14 529.763V529.749Z" fill="#3E7AFF"/>
<path d="M1321.43 453.27C1321.57 451.477 1323.59 450.507 1325.06 451.518L1344.05 464.469L1363.04 477.42C1364.52 478.431 1364.34 480.668 1362.74 481.436L1342.03 491.409L1321.31 501.381C1319.7 502.163 1317.85 500.896 1317.98 499.117L1319.71 476.194L1321.43 453.27Z" fill="#3E7AFF"/>
</g>
<g clip-path="url(#clip4_7850_62382)">
<path d="M596.086 618.574H-77.7422V1292.4H596.086V618.574Z" fill="#1A1740"/>
<path d="M117.289 732.775L139.35 776.938C139.93 778.084 141.318 778.555 142.477 777.976L186.64 755.901C187.785 755.322 188.257 753.934 187.677 752.775L165.616 708.612C165.037 707.467 163.649 706.995 162.49 707.574L118.327 729.649C117.181 730.228 116.71 731.617 117.289 732.775ZM156.007 750.565C152.005 752.384 147.126 750.767 144.997 746.912C142.639 742.64 144.337 737.304 148.663 735.147C152.881 733.032 158.015 734.743 160.131 738.961C162.287 743.274 160.441 748.557 156.007 750.565Z" fill="#F6BB3C"/>
<path d="M146.29 784.404C145.077 785.01 144.619 786.533 145.333 787.678C152.597 799.403 167.745 803.864 180.332 797.57C192.919 791.29 198.445 776.493 193.431 763.65C192.946 762.383 191.437 761.844 190.237 762.45L146.304 784.404H146.29Z" fill="#F6BB3C"/>
<path d="M303.994 752.222L282.607 796.722C282.054 797.881 282.54 799.269 283.699 799.821L328.212 821.195C329.371 821.748 330.759 821.262 331.311 820.103L352.699 775.604C353.251 774.445 352.766 773.057 351.607 772.504L307.094 751.13C305.935 750.578 304.547 751.063 303.994 752.222ZM313.657 793.73C309.762 791.681 308.051 786.83 309.803 782.787C311.743 778.313 316.999 776.372 321.352 778.474C325.611 780.523 327.403 785.617 325.355 789.876C323.266 794.228 317.969 795.994 313.657 793.73Z" fill="#FF515C"/>
<path d="M349.25 715.741C350.733 714.73 352.754 715.7 352.889 717.493L354.627 740.416L356.366 763.34C356.5 765.132 354.654 766.386 353.037 765.617L332.324 755.658L311.61 745.699C309.993 744.917 309.831 742.694 311.3 741.683L330.275 728.719L349.25 715.754V715.741Z" fill="#FF515C"/>
<path d="M-24.1207 713.437L-12.5713 761.44C-12.2748 762.694 -11.008 763.462 -9.76821 763.152L38.2353 751.602C39.4886 751.306 40.2568 750.039 39.9468 748.799L28.3974 700.796C28.1009 699.543 26.8341 698.774 25.5943 699.084L-22.4092 710.634C-23.6625 710.93 -24.4307 712.197 -24.1207 713.437ZM9.59761 739.501C5.28511 740.377 0.891754 737.695 -0.307659 733.45C-1.64184 728.746 1.2152 723.935 5.91852 722.817C10.514 721.711 15.123 724.528 16.2281 729.124C17.3601 733.813 14.3683 738.544 9.59761 739.501Z" fill="#20E080"/>
<path d="M-12.0854 656.565C-11.5733 654.854 -9.40361 654.328 -8.16376 655.622L7.6712 672.292L23.5062 688.963C24.746 690.257 24.0991 692.413 22.3606 692.831L0.0165119 698.208L-22.3276 703.585C-24.0661 704.003 -25.6159 702.386 -25.1038 700.661L-18.5811 678.626L-12.0585 656.592L-12.0854 656.565Z" fill="#20E080"/>
<path d="M-7.50362 770.28C-8.82432 770.603 -9.61944 771.978 -9.17471 773.258C-4.72744 786.317 9.01865 794.079 22.6974 790.791C36.3761 787.503 45.0954 774.336 43.1009 760.685C42.9122 759.35 41.5645 758.474 40.2573 758.798L-7.50362 770.28Z" fill="#20E080"/>
<path d="M494.257 660.447L473.948 705.445C473.423 706.618 473.948 707.992 475.107 708.518L520.119 728.827C521.291 729.353 522.666 728.827 523.192 727.668L543.501 682.67C544.026 681.498 543.501 680.123 542.342 679.597L497.33 659.288C496.158 658.763 494.783 659.288 494.257 660.447ZM504.917 701.712C500.982 699.758 499.149 694.947 500.807 690.864C502.64 686.336 507.842 684.287 512.249 686.282C516.548 688.222 518.461 693.276 516.521 697.575C514.54 701.982 509.284 703.869 504.917 701.712Z" fill="#3E7AFF"/>
<path d="M514.404 753.449C515.334 752.897 516.533 753.207 517.139 754.096C523.271 763.031 525.401 774.567 521.951 785.726C518.46 797.06 509.983 805.482 499.66 809.337C498.111 809.916 496.534 808.528 496.925 806.911L503.744 778.731C503.892 778.112 503.744 777.451 503.339 776.953L491.952 762.91C490.887 761.589 491.777 759.622 493.475 759.554C500.927 759.312 508.11 757.155 514.39 753.436L514.404 753.449Z" fill="#3E7AFF"/>
<path d="M461.833 730.687C461.604 729.623 460.566 728.962 459.488 729.124C448.774 730.728 438.882 737.035 433.06 747.169C427.144 757.452 426.767 769.392 430.972 779.58C431.605 781.103 433.694 781.305 434.61 779.931L450.58 755.727C450.93 755.188 451.523 754.851 452.157 754.81L470.202 753.57C471.9 753.449 472.735 751.455 471.617 750.174C466.711 744.555 463.396 737.83 461.846 730.701L461.833 730.687Z" fill="#3E7AFF"/>
<path d="M472.532 715.539C471.292 714.986 469.823 715.579 469.378 716.86C464.877 729.905 470.982 744.46 483.812 750.241C496.628 756.022 511.587 750.982 518.393 738.975C519.066 737.802 518.541 736.293 517.301 735.74L472.532 715.539Z" fill="#3E7AFF"/>
</g>
<g clip-path="url(#clip5_7850_62382)">
<path d="M1269.91 618.574H596.086V1292.4H1269.91V618.574Z" fill="#1A1740"/>
<path d="M791.117 732.775L813.178 776.938C813.758 778.084 815.146 778.555 816.305 777.976L860.468 755.901C861.613 755.322 862.085 753.934 861.505 752.775L839.444 708.612C838.865 707.467 837.477 706.995 836.318 707.574L792.155 729.649C791.009 730.228 790.538 731.617 791.117 732.775ZM829.835 750.565C825.833 752.384 820.954 750.767 818.825 746.912C816.467 742.64 818.165 737.304 822.491 735.147C826.709 733.032 831.843 734.743 833.959 738.961C836.116 743.274 834.269 748.557 829.835 750.565Z" fill="#F6BB3C"/>
<path d="M820.118 784.404C818.905 785.01 818.447 786.533 819.161 787.678C826.425 799.403 841.573 803.864 854.16 797.57C866.747 791.29 872.273 776.493 867.259 763.65C866.774 762.383 865.265 761.844 864.065 762.45L820.132 784.404H820.118Z" fill="#F6BB3C"/>
<path d="M977.822 752.222L956.435 796.722C955.883 797.881 956.368 799.269 957.527 799.821L1002.04 821.195C1003.2 821.748 1004.59 821.262 1005.14 820.103L1026.53 775.604C1027.08 774.445 1026.59 773.057 1025.44 772.504L980.922 751.13C979.763 750.578 978.375 751.063 977.822 752.222ZM987.485 793.73C983.59 791.681 981.879 786.83 983.631 782.787C985.571 778.313 990.827 776.372 995.18 778.474C999.439 780.523 1001.23 785.617 999.183 789.876C997.094 794.228 991.798 795.994 987.485 793.73Z" fill="#FF515C"/>
<path d="M1023.08 715.741C1024.56 714.73 1026.58 715.7 1026.72 717.493L1028.46 740.416L1030.19 763.34C1030.33 765.132 1028.48 766.386 1026.87 765.617L1006.15 755.658L985.438 745.699C983.821 744.917 983.659 742.694 985.128 741.683L1004.1 728.719L1023.08 715.754V715.741Z" fill="#FF515C"/>
<path d="M649.707 713.437L661.257 761.44C661.553 762.694 662.82 763.462 664.06 763.152L712.063 751.602C713.317 751.306 714.085 750.039 713.775 748.799L702.226 700.796C701.929 699.543 700.662 698.774 699.422 699.084L651.419 710.634C650.166 710.93 649.397 712.197 649.707 713.437ZM683.426 739.501C679.113 740.377 674.72 737.695 673.52 733.45C672.186 728.746 675.043 723.935 679.747 722.817C684.342 721.711 688.951 724.528 690.056 729.124C691.188 733.813 688.196 738.544 683.426 739.501Z" fill="#20E080"/>
<path d="M661.743 656.565C662.255 654.854 664.425 654.328 665.664 655.622L681.499 672.292L697.334 688.963C698.574 690.257 697.927 692.413 696.189 692.831L673.845 698.208L651.5 703.585C649.762 704.003 648.212 702.386 648.724 700.661L655.247 678.626L661.77 656.592L661.743 656.565Z" fill="#20E080"/>
<path d="M666.325 770.28C665.004 770.603 664.209 771.978 664.653 773.258C669.101 786.317 682.847 794.079 696.525 790.791C710.204 787.503 718.924 774.336 716.929 760.685C716.74 759.35 715.393 758.474 714.085 758.798L666.325 770.28Z" fill="#20E080"/>
<path d="M1168.09 660.447L1147.78 705.445C1147.25 706.618 1147.78 707.992 1148.94 708.518L1193.95 728.827C1195.12 729.353 1196.49 728.827 1197.02 727.668L1217.33 682.67C1217.85 681.498 1217.33 680.123 1216.17 679.597L1171.16 659.288C1169.99 658.763 1168.61 659.288 1168.09 660.447ZM1178.75 701.712C1174.81 699.758 1172.98 694.947 1174.64 690.864C1176.47 686.336 1181.67 684.287 1186.08 686.282C1190.38 688.222 1192.29 693.276 1190.35 697.575C1188.37 701.982 1183.11 703.869 1178.75 701.712Z" fill="#3E7AFF"/>
<path d="M1188.23 753.449C1189.16 752.897 1190.36 753.207 1190.97 754.096C1197.1 763.031 1199.23 774.567 1195.78 785.726C1192.29 797.06 1183.81 805.482 1173.49 809.337C1171.94 809.916 1170.36 808.528 1170.75 806.911L1177.57 778.731C1177.72 778.112 1177.57 777.451 1177.17 776.953L1165.78 762.91C1164.72 761.589 1165.6 759.622 1167.3 759.554C1174.76 759.312 1181.94 757.155 1188.22 753.436L1188.23 753.449Z" fill="#3E7AFF"/>
<path d="M1135.66 730.687C1135.43 729.623 1134.39 728.962 1133.32 729.124C1122.6 730.728 1112.71 737.035 1106.89 747.169C1100.97 757.452 1100.59 769.392 1104.8 779.58C1105.43 781.103 1107.52 781.305 1108.44 779.931L1124.41 755.727C1124.76 755.188 1125.35 754.851 1125.98 754.81L1144.03 753.57C1145.73 753.449 1146.56 751.455 1145.44 750.174C1140.54 744.555 1137.22 737.83 1135.67 730.701L1135.66 730.687Z" fill="#3E7AFF"/>
<path d="M1146.36 715.539C1145.12 714.986 1143.65 715.579 1143.21 716.86C1138.71 729.905 1144.81 744.46 1157.64 750.241C1170.46 756.022 1185.42 750.982 1192.22 738.975C1192.89 737.802 1192.37 736.293 1191.13 735.74L1146.36 715.539Z" fill="#3E7AFF"/>
</g>
<g clip-path="url(#clip6_7850_62382)">
<path d="M1943.74 618.574H1269.91V1292.4H1943.74V618.574Z" fill="#1A1740"/>
<path d="M1323.54 713.437L1335.08 761.44C1335.38 762.694 1336.65 763.462 1337.89 763.152L1385.89 751.602C1387.14 751.306 1387.91 750.039 1387.6 748.799L1376.05 700.796C1375.76 699.543 1374.49 698.774 1373.25 699.084L1325.25 710.634C1323.99 710.93 1323.23 712.197 1323.54 713.437ZM1357.25 739.501C1352.94 740.377 1348.55 737.695 1347.35 733.45C1346.01 728.746 1348.87 723.935 1353.57 722.817C1358.17 721.711 1362.78 724.528 1363.88 729.124C1365.02 733.813 1362.02 738.544 1357.25 739.501Z" fill="#20E080"/>
<path d="M1335.57 656.565C1336.08 654.854 1338.25 654.328 1339.49 655.622L1355.33 672.292L1371.16 688.963C1372.4 690.257 1371.76 692.413 1370.02 692.831L1347.67 698.208L1325.33 703.585C1323.59 704.003 1322.04 702.386 1322.55 700.661L1329.08 678.626L1335.6 656.592L1335.57 656.565Z" fill="#20E080"/>
<path d="M1340.15 770.28C1338.83 770.603 1338.04 771.978 1338.48 773.258C1342.93 786.317 1356.67 794.079 1370.35 790.791C1384.03 787.503 1392.75 774.336 1390.76 760.685C1390.57 759.35 1389.22 758.474 1387.91 758.798L1340.15 770.28Z" fill="#20E080"/>
</g>
</g>
<defs>
<clipPath id="clip0_7850_62382">
<rect width="1940.62" height="1380" fill="white" transform="translate(-37)"/>
</clipPath>
<clipPath id="clip1_7850_62382">
<rect width="673.828" height="673.828" fill="white" transform="translate(-77.7422 -55.2539)"/>
</clipPath>
<clipPath id="clip2_7850_62382">
<rect width="673.828" height="673.828" fill="white" transform="translate(596.086 -55.2539)"/>
</clipPath>
<clipPath id="clip3_7850_62382">
<rect width="673.828" height="673.828" fill="white" transform="translate(1269.91 -55.2539)"/>
</clipPath>
<clipPath id="clip4_7850_62382">
<rect width="673.828" height="673.828" fill="white" transform="translate(-77.7422 618.574)"/>
</clipPath>
<clipPath id="clip5_7850_62382">
<rect width="673.828" height="673.828" fill="white" transform="translate(596.086 618.574)"/>
</clipPath>
<clipPath id="clip6_7850_62382">
<rect width="673.828" height="673.828" fill="white" transform="translate(1269.91 618.574)"/>
</clipPath>
</defs>
</svg>
