<svg width="1366" height="768" viewBox="0 0 1366 768" fill="none" xmlns="http://www.w3.org/2000/svg">
<g opacity="0.5" clip-path="url(#clip0_7488_20370)">
<g clip-path="url(#clip1_7488_20370)">
<path d="M283.866 -272H-392V403.866H283.866V-272Z" fill="white"/>
<path d="M148.679 43.4808L130.526 89.5478C130.052 90.7508 130.647 92.1026 131.837 92.5757L177.917 110.729C179.12 111.203 180.472 110.608 180.945 109.418L199.099 63.3512C199.572 62.1482 198.977 60.7965 197.788 60.3234L151.707 42.1696C150.504 41.6965 149.152 42.2913 148.679 43.4808ZM161.372 84.2895C157.33 82.5188 155.262 77.7877 156.722 73.6244C158.331 69.0015 163.454 66.69 167.955 68.4743C172.362 70.2045 174.524 75.1789 172.794 79.5855C171.023 84.0868 165.846 86.2495 161.372 84.2895Z" fill="#F6BB3C"/>
<path d="M191.3 3.69942C192.705 2.57748 194.801 3.40202 195.057 5.18631L198.464 27.99L201.87 50.7937C202.14 52.5645 200.383 53.9703 198.707 53.308L177.255 44.8596L155.803 36.4113C154.127 35.749 153.803 33.5321 155.208 32.4102L173.254 18.0548L191.3 3.69942Z" fill="#F6BB3C"/>
<path d="M38.7569 -4.88432L8.26179 34.1402C7.46426 35.154 7.65353 36.6273 8.66733 37.4114L47.6918 67.9064C48.7056 68.7039 50.179 68.5147 50.963 67.5009L81.4581 28.4764C82.2556 27.4626 82.0663 25.9892 81.0525 25.2052L42.0281 -5.28984C41.0143 -6.08736 39.5409 -5.89812 38.7569 -4.88432ZM39.3381 37.8574C35.9588 35.0188 35.3235 29.8957 37.9053 26.3136C40.771 22.3396 46.3266 21.5691 50.1384 24.5564C53.8692 27.4761 54.5316 32.856 51.6254 36.5868C48.638 40.3987 43.0689 41.007 39.3381 37.8574Z" fill="#20E080"/>
<path d="M36.2837 90.5343C37.3246 90.2099 38.4195 90.8047 38.798 91.8185C42.6504 101.983 41.9745 113.73 35.9728 123.787C29.8765 134.006 19.6169 140.197 8.64085 141.495C6.99173 141.684 5.78868 139.954 6.55917 138.48L19.9008 112.649C20.1981 112.081 20.2116 111.392 19.9278 110.81L12.1688 94.4138C11.4389 92.8728 12.7771 91.1561 14.4533 91.5076C21.7661 93.0486 29.2818 92.6565 36.2837 90.5073V90.5343Z" fill="#20E080"/>
<path d="M4.49017 43.6429C3.42231 42.8048 1.84078 43.0482 1.11085 44.1836C-6.37775 55.822 -3.87705 71.4616 7.23419 80.1397C18.3589 88.8313 34.1336 87.4525 43.6093 77.3821C44.542 76.3954 44.3933 74.8003 43.3119 73.9623L4.49017 43.6294V43.6429Z" fill="#20E080"/>
</g>
<g clip-path="url(#clip2_7488_20370)">
<path d="M959.731 -272H283.866V403.866H959.731V-272Z" fill="white"/>
<path d="M335.786 296.362L357.265 340.983C357.819 342.146 359.225 342.632 360.374 342.078L404.995 320.585C406.157 320.031 406.644 318.625 406.09 317.476L384.611 272.856C384.056 271.693 382.651 271.207 381.502 271.761L336.881 293.253C335.718 293.808 335.232 295.213 335.786 296.362ZM374.364 314.773C370.323 316.544 365.443 314.841 363.375 310.948C361.077 306.622 362.861 301.296 367.227 299.201C371.499 297.146 376.608 298.931 378.663 303.202C380.758 307.568 378.839 312.827 374.364 314.787V314.773Z" fill="#3E7AFF"/>
<path d="M335.543 238.062C335.678 236.264 337.706 235.291 339.179 236.305L358.225 249.295L377.271 262.285C378.758 263.299 378.582 265.543 376.973 266.313L356.197 276.316L335.421 286.319C333.799 287.103 331.947 285.832 332.082 284.048L333.813 261.055L335.543 238.062Z" fill="#3E7AFF"/>
<path d="M765.438 118.453L763.059 167.913C762.991 169.197 763.991 170.292 765.275 170.36L814.749 172.725C816.033 172.793 817.128 171.793 817.195 170.508L819.574 121.048C819.642 119.764 818.642 118.669 817.358 118.602L767.884 116.236C766.6 116.169 765.505 117.169 765.438 118.453ZM790.58 153.017C786.187 152.638 782.713 148.827 782.74 144.42C782.78 139.527 786.876 135.688 791.715 135.931C796.446 136.161 800.096 140.162 799.866 144.893C799.636 149.732 795.433 153.436 790.566 153.017H790.58Z" fill="#F6BB3C"/>
<path d="M792.998 67.0738C793.971 65.5599 796.215 65.6681 797.039 67.2631L807.596 87.7554L818.153 108.248C818.978 109.843 817.761 111.735 815.964 111.654L792.93 110.546L769.897 109.437C768.099 109.356 767.072 107.355 768.045 105.841L780.521 86.4577L792.998 67.0738Z" fill="#F6BB3C"/>
<path d="M765.45 177.848C764.098 177.781 762.936 178.889 763.003 180.241C763.612 194.069 774.669 205.396 788.767 206.072C802.866 206.748 814.951 196.529 816.884 182.823C817.073 181.471 816.032 180.268 814.68 180.2L765.477 177.835L765.45 177.848Z" fill="#F6BB3C"/>
<path d="M565.541 239.59L527.76 271.612C526.773 272.45 526.652 273.924 527.49 274.897L559.512 312.678C560.35 313.665 561.824 313.786 562.797 312.948L600.578 280.926C601.565 280.088 601.686 278.614 600.848 277.641L568.826 239.86C567.988 238.873 566.514 238.752 565.541 239.59ZM557.431 281.561C554.7 278.087 555.119 272.951 558.377 269.963C561.986 266.652 567.582 267.03 570.718 270.734C573.787 274.343 573.34 279.75 569.731 282.805C566.041 285.941 560.458 285.4 557.444 281.561H557.431Z" fill="#FF515C"/>
<path d="M543.75 332.521C544.832 332.427 545.791 333.211 545.954 334.292C547.657 345.025 544.629 356.393 536.694 365.031C528.651 373.79 517.351 377.777 506.334 376.831C504.685 376.683 503.861 374.75 504.901 373.465L523.217 350.878C523.623 350.378 523.772 349.715 523.623 349.094L519.351 331.467C518.946 329.804 520.609 328.412 522.177 329.088C529.03 332.075 536.464 333.224 543.75 332.548V332.521Z" fill="#FF515C"/>
<path d="M505.929 289.266C506.172 288.212 505.523 287.157 504.482 286.833C494.087 283.67 482.408 285.13 472.771 291.794C462.984 298.566 457.496 309.218 456.928 320.248C456.847 321.91 458.645 322.992 460.064 322.127L484.95 307.082C485.504 306.744 486.18 306.69 486.774 306.933L503.644 313.584C505.226 314.205 506.848 312.746 506.388 311.11C504.36 303.919 504.252 296.39 505.915 289.266H505.929Z" fill="#FF515C"/>
<path d="M522.137 280.142C521.258 279.101 519.663 279.02 518.717 279.993C509.025 289.874 508.295 305.69 517.419 316.449C526.544 327.209 542.264 329.075 553.592 321.126C554.7 320.342 554.876 318.761 553.997 317.72L522.137 280.142Z" fill="#FF515C"/>
</g>
<g clip-path="url(#clip3_7488_20370)">
<path d="M1635.6 -272H959.732V403.866H1635.6V-272Z" fill="white"/>
<path d="M995.957 64.4459L1033.17 97.1173C1034.14 97.9689 1035.62 97.8742 1036.47 96.901L1069.14 59.6743C1069.99 58.7011 1069.9 57.2277 1068.92 56.3761L1031.71 23.7047C1030.74 22.8531 1029.26 22.9478 1028.41 23.921L995.741 61.1477C994.89 62.121 994.984 63.5943 995.957 64.4459ZM1038.66 66.3113C1035.63 69.5149 1030.48 69.8529 1027.05 67.0818C1023.25 63.9999 1022.8 58.4037 1025.99 54.7675C1029.12 51.2125 1034.52 50.8475 1038.09 53.97C1041.73 57.1601 1042.01 62.7563 1038.66 66.3113Z" fill="#FF515C"/>
<path d="M1089.02 133.587C1081.43 126.72 1080.56 115.109 1087.32 107.417C1087.46 107.255 1087.61 107.107 1087.75 106.944C1099.42 94.5219 1120.8 104.254 1118.11 121.083C1118.09 121.232 1118.06 121.394 1118.03 121.557C1116.71 129.032 1120.65 132.816 1124.55 134.182C1126.24 134.776 1126.43 137.142 1124.82 137.953C1121.03 139.845 1115.02 140.954 1107.54 135.777C1105.96 134.682 1103.85 136.169 1104.41 138.021C1104.41 138.034 1104.41 138.048 1104.42 138.061C1104.92 139.697 1103.39 141.211 1101.78 140.629C1097.82 139.21 1092.69 136.912 1089.02 133.6V133.587Z" fill="#FF515C"/>
<path d="M1042.44 101.416C1041.55 102.443 1041.7 104.024 1042.79 104.822C1053.99 112.959 1069.73 111.364 1079.05 100.767C1088.36 90.1692 1087.89 74.3404 1078.37 64.297C1077.44 63.3103 1075.84 63.3779 1074.94 64.3917L1042.44 101.416Z" fill="#FF515C"/>
<path d="M1390.49 -4.88432L1359.99 34.1402C1359.2 35.154 1359.38 36.6273 1360.4 37.4114L1399.42 67.9064C1400.44 68.7039 1401.91 68.5147 1402.69 67.5009L1433.19 28.4764C1433.99 27.4626 1433.8 25.9892 1432.78 25.2052L1393.76 -5.28984C1392.75 -6.08736 1391.27 -5.89812 1390.49 -4.88432ZM1391.07 37.8574C1387.69 35.0188 1387.05 29.8957 1389.64 26.3136C1392.5 22.3396 1398.06 21.5691 1401.87 24.5564C1405.6 27.4761 1406.26 32.856 1403.36 36.5868C1400.37 40.3987 1394.8 41.007 1391.07 37.8574Z" fill="#20E080"/>
<path d="M1388.01 90.5343C1389.06 90.2099 1390.15 90.8047 1390.53 91.8185C1394.38 101.983 1393.71 113.73 1387.7 123.787C1381.61 134.006 1371.35 140.197 1360.37 141.495C1358.72 141.684 1357.52 139.954 1358.29 138.48L1371.63 112.649C1371.93 112.081 1371.94 111.392 1371.66 110.81L1363.9 94.4138C1363.17 92.8728 1364.51 91.1561 1366.18 91.5076C1373.5 93.0486 1381.01 92.6565 1388.01 90.5073V90.5343Z" fill="#20E080"/>
<path d="M1342.2 55.8623C1342.23 54.7809 1341.38 53.8752 1340.3 53.7806C1329.47 52.7938 1318.33 56.5922 1310.25 65.0811C1302.17 73.5699 1298.83 85.2354 1300.52 96.1574C1300.77 97.7929 1302.76 98.4959 1303.98 97.3604L1325.29 77.571C1325.77 77.1385 1326.42 76.9358 1327.05 77.0439L1344.92 80.1258C1346.6 80.4097 1347.89 78.666 1347.1 77.152C1343.65 70.515 1342.01 63.1616 1342.2 55.8623Z" fill="#20E080"/>
<path d="M1356.22 43.6429C1355.15 42.8048 1353.57 43.0482 1352.84 44.1836C1345.35 55.822 1347.85 71.4616 1358.97 80.1397C1370.09 88.8313 1385.87 87.4525 1395.34 77.3821C1396.27 76.3954 1396.13 74.8003 1395.04 73.9623L1356.22 43.6294V43.6429Z" fill="#20E080"/>
<path d="M1365.86 268.949L1363.48 318.409C1363.41 319.693 1364.41 320.788 1365.7 320.856L1415.17 323.221C1416.45 323.289 1417.55 322.289 1417.62 321.005L1420 271.545C1420.06 270.261 1419.06 269.166 1417.78 269.098L1368.31 266.733C1367.02 266.665 1365.93 267.665 1365.86 268.949ZM1391 303.513C1386.61 303.135 1383.13 299.323 1383.16 294.916C1383.2 290.023 1387.3 286.184 1392.14 286.427C1396.87 286.657 1400.52 290.658 1400.29 295.389C1400.06 300.229 1395.85 303.932 1390.99 303.513H1391Z" fill="#F6BB3C"/>
<path d="M1365.87 328.344C1364.52 328.277 1363.36 329.385 1363.43 330.737C1364.03 344.565 1375.09 355.893 1389.19 356.568C1403.29 357.244 1415.37 347.025 1417.31 333.319C1417.49 331.967 1416.45 330.764 1415.1 330.696L1365.9 328.331L1365.87 328.344Z" fill="#F6BB3C"/>
</g>
<g clip-path="url(#clip4_7488_20370)">
<path d="M283.866 403.866H-392V1079.73H283.866V403.866Z" fill="white"/>
<path d="M-9.10908 537.917L-30.5611 582.551C-31.1153 583.714 -30.6286 585.106 -29.4662 585.66L15.1815 607.098C16.344 607.653 17.7363 607.166 18.2905 606.004L39.7425 561.369C40.2967 560.207 39.8101 558.815 38.6476 558.26L-6.00011 536.822C-7.1626 536.268 -8.55487 536.754 -9.10908 537.917ZM0.582815 579.55C-3.32369 577.496 -5.04037 572.629 -3.28312 568.574C-1.33662 564.086 3.93514 562.14 8.30123 564.249C12.5727 566.303 14.3705 571.413 12.3158 575.684C10.2206 580.05 4.90836 581.821 0.582815 579.55Z" fill="#FF515C"/>
<path d="M36.2824 501.325C37.7693 500.312 39.797 501.285 39.9321 503.083L41.6758 526.076L43.4196 549.068C43.5548 550.866 41.7029 552.123 40.0808 551.353L19.3047 541.364L-1.47141 531.374C-3.09349 530.59 -3.25571 528.36 -1.78232 527.346L17.2501 514.343L36.2824 501.339V501.325Z" fill="#FF515C"/>
</g>
<g clip-path="url(#clip5_7488_20370)">
<path d="M959.731 403.866H283.866V1079.73H959.731V403.866Z" fill="white"/>
<path d="M479.489 518.411L501.617 562.708C502.198 563.857 503.591 564.33 504.753 563.748L549.049 541.607C550.198 541.026 550.671 539.634 550.09 538.471L527.962 494.175C527.381 493.026 525.989 492.553 524.826 493.134L480.53 515.275C479.381 515.857 478.908 517.249 479.489 518.411ZM518.324 536.254C514.31 538.079 509.416 536.457 507.281 532.591C504.915 528.306 506.618 522.953 510.957 520.79C515.188 518.668 520.338 520.385 522.461 524.616C524.623 528.941 522.772 534.24 518.324 536.254Z" fill="#F6BB3C"/>
<path d="M539.573 617.561C535.14 608.329 538.708 597.258 547.873 592.689C548.062 592.595 548.252 592.5 548.441 592.419C563.932 585.322 580.058 602.408 571.231 616.966C571.15 617.102 571.069 617.237 570.974 617.372C566.919 623.793 569.163 628.781 572.231 631.511C573.583 632.701 572.853 634.958 571.055 635.107C566.838 635.431 560.85 634.174 555.875 626.564C554.821 624.942 552.32 625.536 552.131 627.456C552.131 627.469 552.131 627.483 552.131 627.51C551.982 629.213 549.995 630.038 548.711 628.889C545.589 626.091 541.696 622.022 539.546 617.575L539.573 617.561Z" fill="#F6BB3C"/>
<path d="M508.578 570.196C507.362 570.805 506.902 572.332 507.619 573.481C514.904 585.241 530.098 589.715 542.723 583.403C555.348 577.104 560.89 562.262 555.862 549.38C555.375 548.109 553.861 547.568 552.658 548.177L508.592 570.196H508.578Z" fill="#F6BB3C"/>
<path d="M857.594 445.864L837.223 490.998C836.696 492.174 837.223 493.553 838.386 494.08L883.534 514.451C884.71 514.978 886.088 514.451 886.616 513.288L906.986 468.154C907.513 466.978 906.986 465.599 905.824 465.072L860.676 444.701C859.5 444.174 858.121 444.701 857.594 445.864ZM868.286 487.254C864.339 485.294 862.501 480.468 864.163 476.373C866.002 471.831 871.219 469.776 875.64 471.777C879.952 473.723 881.871 478.792 879.925 483.104C877.937 487.524 872.666 489.417 868.286 487.254Z" fill="#3E7AFF"/>
<path d="M877.804 539.147C878.736 538.593 879.939 538.904 880.548 539.796C886.698 548.758 888.834 560.329 885.373 571.521C881.872 582.889 873.37 591.337 863.016 595.203C861.461 595.785 859.88 594.392 860.272 592.77L867.111 564.505C867.26 563.884 867.111 563.221 866.706 562.721L855.284 548.636C854.216 547.311 855.108 545.338 856.811 545.27C864.286 545.027 871.491 542.864 877.79 539.133L877.804 539.147Z" fill="#3E7AFF"/>
<path d="M825.072 516.316C824.843 515.248 823.802 514.586 822.72 514.748C811.974 516.357 802.052 522.683 796.213 532.848C790.279 543.161 789.9 555.138 794.118 565.357C794.753 566.884 796.848 567.087 797.767 565.708L813.785 541.431C814.137 540.891 814.732 540.553 815.367 540.512L833.467 539.268C835.17 539.147 836.008 537.146 834.886 535.862C829.966 530.225 826.64 523.48 825.086 516.33L825.072 516.316Z" fill="#3E7AFF"/>
<path d="M835.805 501.123C834.562 500.569 833.088 501.163 832.642 502.448C828.128 515.532 834.251 530.131 847.119 535.93C859.974 541.729 874.979 536.673 881.805 524.63C882.481 523.454 881.954 521.94 880.71 521.385L835.805 501.123Z" fill="#3E7AFF"/>
<path d="M320.092 740.312L357.306 772.983C358.279 773.835 359.752 773.74 360.604 772.767L393.275 735.54C394.127 734.567 394.032 733.093 393.059 732.242L355.846 699.57C354.873 698.719 353.399 698.813 352.548 699.787L319.876 737.013C319.025 737.987 319.119 739.46 320.092 740.312ZM362.794 742.177C359.766 745.381 354.616 745.719 351.182 742.948C347.384 739.866 346.938 734.269 350.128 730.633C353.25 727.078 358.657 726.713 362.226 729.836C365.862 733.026 366.146 738.622 362.794 742.177Z" fill="#FF515C"/>
<path d="M366.578 777.281C365.686 778.309 365.835 779.89 366.93 780.688C378.122 788.825 393.87 787.23 403.183 776.632C412.497 766.035 412.023 750.206 402.507 740.163C401.575 739.176 399.98 739.244 399.074 740.257L366.578 777.281Z" fill="#FF515C"/>
<path d="M824.544 719.346L806.39 765.413C805.917 766.616 806.512 767.968 807.702 768.441L853.782 786.595C854.985 787.068 856.337 786.473 856.81 785.284L874.964 739.217C875.437 738.014 874.842 736.662 873.653 736.189L827.572 718.035C826.369 717.562 825.017 718.157 824.544 719.346ZM837.237 760.155C833.195 758.384 831.127 753.653 832.587 749.49C834.195 744.867 839.319 742.555 843.82 744.34C848.226 746.07 850.389 751.044 848.659 755.451C846.888 759.952 841.711 762.115 837.237 760.155Z" fill="#F6BB3C"/>
<path d="M867.164 679.565C868.57 678.443 870.665 679.268 870.922 681.052L874.328 703.855L877.735 726.659C878.005 728.43 876.248 729.836 874.572 729.173L853.12 720.725L831.668 712.277C829.992 711.614 829.667 709.398 831.073 708.276L849.119 693.92L867.164 679.565Z" fill="#F6BB3C"/>
<path d="M714.622 670.981L684.127 710.006C683.329 711.02 683.518 712.493 684.532 713.277L723.557 743.772C724.57 744.57 726.044 744.38 726.828 743.367L757.323 704.342C758.12 703.328 757.931 701.855 756.917 701.071L717.893 670.576C716.879 669.778 715.406 669.968 714.622 670.981ZM715.203 713.723C711.824 710.884 711.188 705.761 713.77 702.179C716.636 698.205 722.191 697.435 726.003 700.422C729.734 703.342 730.396 708.722 727.49 712.453C724.503 716.264 718.934 716.873 715.203 713.723Z" fill="#20E080"/>
<path d="M712.149 766.4C713.189 766.076 714.284 766.671 714.663 767.684C718.515 777.849 717.839 789.596 711.838 799.653C705.741 809.872 695.482 816.063 684.506 817.36C682.857 817.55 681.653 815.82 682.424 814.346L695.766 788.515C696.063 787.947 696.076 787.257 695.793 786.676L688.034 770.28C687.304 768.739 688.642 767.022 690.318 767.373C697.631 768.914 705.147 768.522 712.149 766.373V766.4Z" fill="#20E080"/>
<path d="M666.338 731.728C666.365 730.647 665.513 729.741 664.432 729.647C653.604 728.66 642.466 732.458 634.383 740.947C626.299 749.436 622.961 761.101 624.65 772.023C624.907 773.659 626.894 774.362 628.111 773.226L649.428 753.437C649.901 753.004 650.549 752.802 651.185 752.91L669.055 755.992C670.731 756.276 672.029 754.532 671.231 753.018C667.784 746.381 666.148 739.028 666.338 731.728Z" fill="#20E080"/>
<path d="M680.355 719.508C679.287 718.67 677.706 718.914 676.976 720.049C669.487 731.687 671.988 747.327 683.099 756.005C694.224 764.697 709.998 763.318 719.474 753.248C720.407 752.261 720.258 750.666 719.177 749.828L680.355 719.495V719.508Z" fill="#20E080"/>
</g>
<g clip-path="url(#clip6_7488_20370)">
<path d="M1635.6 403.866H959.732V1079.73H1635.6V403.866Z" fill="white"/>
<path d="M1342.62 537.917L1321.17 582.551C1320.62 583.714 1321.1 585.106 1322.26 585.66L1366.91 607.099C1368.07 607.653 1369.47 607.166 1370.02 606.004L1391.47 561.37C1392.03 560.207 1391.54 558.815 1390.38 558.261L1345.73 536.822C1344.57 536.268 1343.18 536.755 1342.62 537.917ZM1352.31 579.551C1348.41 577.496 1346.69 572.63 1348.45 568.574C1350.39 564.087 1355.67 562.14 1360.03 564.249C1364.3 566.304 1366.1 571.413 1364.05 575.685C1361.95 580.051 1356.64 581.821 1352.31 579.551Z" fill="#FF515C"/>
<path d="M1388.01 501.326C1389.5 500.312 1391.53 501.285 1391.66 503.083L1393.41 526.076L1395.15 549.069C1395.29 550.867 1393.43 552.124 1391.81 551.353L1371.04 541.364L1350.26 531.375C1348.64 530.591 1348.48 528.36 1349.95 527.347L1368.98 514.343L1388.01 501.339V501.326Z" fill="#FF515C"/>
<path d="M1013.52 499.014L1025.1 547.163C1025.4 548.42 1026.67 549.19 1027.91 548.879L1076.06 537.295C1077.32 536.998 1078.09 535.727 1077.78 534.483L1066.19 486.335C1065.9 485.078 1064.63 484.307 1063.38 484.618L1015.23 496.202C1013.98 496.5 1013.21 497.77 1013.52 499.014ZM1047.34 525.157C1043.01 526.035 1038.6 523.345 1037.4 519.087C1036.06 514.37 1038.93 509.544 1043.65 508.422C1048.26 507.314 1052.88 510.139 1053.99 514.748C1055.12 519.452 1052.12 524.197 1047.34 525.157Z" fill="#20E080"/>
<path d="M1025.59 441.971C1026.1 440.254 1028.28 439.727 1029.52 441.025L1045.4 457.746L1061.29 474.467C1062.53 475.764 1061.88 477.927 1060.14 478.346L1037.73 483.739L1015.31 489.133C1013.57 489.552 1012.02 487.93 1012.53 486.2L1019.07 464.099L1025.61 441.998L1025.59 441.971Z" fill="#20E080"/>
<path d="M1030.18 556.03C1028.86 556.355 1028.06 557.733 1028.51 559.018C1032.97 572.116 1046.76 579.902 1060.48 576.604C1074.2 573.305 1082.94 560.099 1080.94 546.406C1080.75 545.068 1079.4 544.189 1078.09 544.513L1030.18 556.03Z" fill="#20E080"/>
<path d="M1183.77 734.823L1174.47 783.459C1174.22 784.729 1175.05 785.946 1176.32 786.189L1224.97 795.489C1226.24 795.732 1227.46 794.908 1227.7 793.637L1237 745.002C1237.24 743.731 1236.42 742.515 1235.15 742.271L1186.5 732.972C1185.23 732.728 1184.01 733.553 1183.77 734.823ZM1203.8 772.577C1199.5 771.591 1196.6 767.319 1197.26 762.953C1197.99 758.114 1202.58 754.897 1207.34 755.802C1211.99 756.694 1215.05 761.169 1214.15 765.819C1213.25 770.577 1208.57 773.659 1203.8 772.564V772.577Z" fill="#3E7AFF"/>
<path d="M1218.28 687.824C1219.45 686.458 1221.66 686.891 1222.25 688.581L1229.82 710.357L1237.39 732.133C1237.99 733.837 1236.51 735.526 1234.74 735.188L1212.1 730.863L1189.46 726.537C1187.69 726.199 1186.96 724.077 1188.13 722.725L1203.21 705.275L1218.28 687.824Z" fill="#3E7AFF"/>
<path d="M1390.49 670.981L1359.99 710.006C1359.2 711.02 1359.38 712.493 1360.4 713.277L1399.42 743.772C1400.44 744.57 1401.91 744.38 1402.69 743.367L1433.19 704.342C1433.99 703.328 1433.8 701.855 1432.78 701.071L1393.76 670.576C1392.75 669.778 1391.27 669.968 1390.49 670.981ZM1391.07 713.723C1387.69 710.884 1387.05 705.761 1389.64 702.179C1392.5 698.205 1398.06 697.435 1401.87 700.422C1405.6 703.342 1406.26 708.722 1403.36 712.453C1400.37 716.264 1394.8 716.873 1391.07 713.723Z" fill="#20E080"/>
<path d="M1388.01 766.4C1389.06 766.076 1390.15 766.67 1390.53 767.684C1394.38 777.849 1393.71 789.596 1387.7 799.653C1381.61 809.872 1371.35 816.063 1360.37 817.36C1358.72 817.549 1357.52 815.819 1358.29 814.346L1371.63 788.514C1371.93 787.947 1371.94 787.257 1371.66 786.676L1363.9 770.279C1363.17 768.738 1364.51 767.022 1366.18 767.373C1373.5 768.914 1381.01 768.522 1388.01 766.373V766.4Z" fill="#20E080"/>
<path d="M1342.2 731.728C1342.23 730.647 1341.38 729.741 1340.3 729.647C1329.47 728.66 1318.33 732.458 1310.25 740.947C1302.17 749.436 1298.83 761.101 1300.52 772.023C1300.77 773.659 1302.76 774.362 1303.98 773.226L1325.29 753.437C1325.77 753.004 1326.42 752.802 1327.05 752.91L1344.92 755.992C1346.6 756.276 1347.89 754.532 1347.1 753.018C1343.65 746.381 1342.01 739.028 1342.2 731.728Z" fill="#20E080"/>
<path d="M1356.22 719.508C1355.15 718.67 1353.57 718.913 1352.84 720.049C1345.35 731.687 1347.85 747.327 1358.97 756.005C1370.09 764.696 1385.87 763.318 1395.34 753.247C1396.27 752.261 1396.13 750.665 1395.04 749.827L1356.22 719.495V719.508Z" fill="#20E080"/>
</g>
</g>
<defs>
<clipPath id="clip0_7488_20370">
<rect width="1440" height="1024" fill="white" transform="translate(-37 -128)"/>
</clipPath>
<clipPath id="clip1_7488_20370">
<rect width="675.866" height="675.866" fill="white" transform="translate(-392 -272)"/>
</clipPath>
<clipPath id="clip2_7488_20370">
<rect width="675.866" height="675.866" fill="white" transform="translate(283.866 -272)"/>
</clipPath>
<clipPath id="clip3_7488_20370">
<rect width="675.866" height="675.866" fill="white" transform="translate(959.731 -272)"/>
</clipPath>
<clipPath id="clip4_7488_20370">
<rect width="675.866" height="675.866" fill="white" transform="translate(-392 403.866)"/>
</clipPath>
<clipPath id="clip5_7488_20370">
<rect width="675.866" height="675.866" fill="white" transform="translate(283.866 403.866)"/>
</clipPath>
<clipPath id="clip6_7488_20370">
<rect width="675.866" height="675.866" fill="white" transform="translate(959.731 403.866)"/>
</clipPath>
</defs>
</svg>
