<svg width="509" height="536" viewBox="0 0 509 536" fill="none" xmlns="http://www.w3.org/2000/svg">
<path d="M-28 8.93359C-14.6 8.93359 -14.6 17.8669 -1.2 17.8669C12.2 17.8669 12.2 8.93359 25.6 8.93359C39 8.93359 39 17.8669 52.4 17.8669C65.8 17.8669 65.8 8.93359 79.2 8.93359C92.6 8.93359 92.6 17.8669 106 17.8669C119.4 17.8669 119.4 8.93359 132.8 8.93359C146.2 8.93359 146.2 17.8669 159.6 17.8669C173 17.8669 173 8.93359 186.4 8.93359C199.8 8.93359 199.8 17.8669 213.2 17.8669C226.6 17.8669 226.6 8.93359 240 8.93359C253.4 8.93359 253.4 17.8669 266.8 17.8669C280.2 17.8669 280.2 8.93359 293.6 8.93359C304.208 8.93359 307 17.8669 320.4 17.8669C333.8 17.8669 333.8 8.93359 347.2 8.93359C360.6 8.93359 360.6 17.8669 374 17.8669C387.4 17.8669 387.4 8.93359 400.8 8.93359C414.2 8.93359 414.2 17.8669 427.6 17.8669C441 17.8669 441 8.93359 454.4 8.93359C467.8 8.93359 467.8 17.8669 481.2 17.8669C494.6 17.8669 494.6 8.93359 508 8.93359" stroke="#6699FF" stroke-opacity="0.2" stroke-width="1.52707" stroke-linecap="round"/>
<path d="M-28 35.7334C-14.6 35.7334 -14.6 44.6667 -1.2 44.6667C12.2 44.6667 12.2 35.7334 25.6 35.7334C39 35.7334 39 44.6667 52.4 44.6667C65.8 44.6667 65.8 35.7334 79.2 35.7334C92.6 35.7334 92.6 44.6667 106 44.6667C119.4 44.6667 119.4 35.7334 132.8 35.7334C146.2 35.7334 146.2 44.6667 159.6 44.6667C173 44.6667 173 35.7334 186.4 35.7334C199.8 35.7334 199.8 44.6667 213.2 44.6667C226.6 44.6667 226.6 35.7334 240 35.7334C253.4 35.7334 253.4 44.6667 266.8 44.6667C280.2 44.6667 280.2 35.7334 293.6 35.7334C304.208 35.7334 307 44.6667 320.4 44.6667C333.8 44.6667 333.8 35.7334 347.2 35.7334C360.6 35.7334 360.6 44.6667 374 44.6667C387.4 44.6667 387.4 35.7334 400.8 35.7334C414.2 35.7334 414.2 44.6667 427.6 44.6667C441 44.6667 441 35.7334 454.4 35.7334C467.8 35.7334 467.8 44.6667 481.2 44.6667C494.6 44.6667 494.6 35.7334 508 35.7334" stroke="#6699FF" stroke-opacity="0.2" stroke-width="1.52707" stroke-linecap="round"/>
<path d="M-28 62.5332C-14.6 62.5332 -14.6 71.4665 -1.2 71.4665C12.2 71.4665 12.2 62.5332 25.6 62.5332C39 62.5332 39 71.4665 52.4 71.4665C65.8 71.4665 65.8 62.5332 79.2 62.5332C92.6 62.5332 92.6 71.4665 106 71.4665C119.4 71.4665 119.4 62.5332 132.8 62.5332C146.2 62.5332 146.2 71.4665 159.6 71.4665C173 71.4665 173 62.5332 186.4 62.5332C199.8 62.5332 199.8 71.4665 213.2 71.4665C226.6 71.4665 226.6 62.5332 240 62.5332C253.4 62.5332 253.4 71.4665 266.8 71.4665C280.2 71.4665 280.2 62.5332 293.6 62.5332C304.208 62.5332 307 71.4665 320.4 71.4665C333.8 71.4665 333.8 62.5332 347.2 62.5332C360.6 62.5332 360.6 71.4665 374 71.4665C387.4 71.4665 387.4 62.5332 400.8 62.5332C414.2 62.5332 414.2 71.4665 427.6 71.4665C441 71.4665 441 62.5332 454.4 62.5332C467.8 62.5332 467.8 71.4665 481.2 71.4665C494.6 71.4665 494.6 62.5332 508 62.5332" stroke="#6699FF" stroke-opacity="0.2" stroke-width="1.52707" stroke-linecap="round"/>
<path d="M-28 89.333C-14.6 89.333 -14.6 98.2663 -1.2 98.2663C12.2 98.2663 12.2 89.333 25.6 89.333C39 89.333 39 98.2663 52.4 98.2663C65.8 98.2663 65.8 89.333 79.2 89.333C92.6 89.333 92.6 98.2663 106 98.2663C119.4 98.2663 119.4 89.333 132.8 89.333C146.2 89.333 146.2 98.2663 159.6 98.2663C173 98.2663 173 89.333 186.4 89.333C199.8 89.333 199.8 98.2663 213.2 98.2663C226.6 98.2663 226.6 89.333 240 89.333C253.4 89.333 253.4 98.2663 266.8 98.2663C280.2 98.2663 280.2 89.333 293.6 89.333C304.208 89.333 307 98.2663 320.4 98.2663C333.8 98.2663 333.8 89.333 347.2 89.333C360.6 89.333 360.6 98.2663 374 98.2663C387.4 98.2663 387.4 89.333 400.8 89.333C414.2 89.333 414.2 98.2663 427.6 98.2663C441 98.2663 441 89.333 454.4 89.333C467.8 89.333 467.8 98.2663 481.2 98.2663C494.6 98.2663 494.6 89.333 508 89.333" stroke="#6699FF" stroke-opacity="0.2" stroke-width="1.52707" stroke-linecap="round"/>
<path d="M-28 116.134C-14.6 116.134 -14.6 125.067 -1.2 125.067C12.2 125.067 12.2 116.134 25.6 116.134C39 116.134 39 125.067 52.4 125.067C65.8 125.067 65.8 116.134 79.2 116.134C92.6 116.134 92.6 125.067 106 125.067C119.4 125.067 119.4 116.134 132.8 116.134C146.2 116.134 146.2 125.067 159.6 125.067C173 125.067 173 116.134 186.4 116.134C199.8 116.134 199.8 125.067 213.2 125.067C226.6 125.067 226.6 116.134 240 116.134C253.4 116.134 253.4 125.067 266.8 125.067C280.2 125.067 280.2 116.134 293.6 116.134C304.208 116.134 307 125.067 320.4 125.067C333.8 125.067 333.8 116.134 347.2 116.134C360.6 116.134 360.6 125.067 374 125.067C387.4 125.067 387.4 116.134 400.8 116.134C414.2 116.134 414.2 125.067 427.6 125.067C441 125.067 441 116.134 454.4 116.134C467.8 116.134 467.8 125.067 481.2 125.067C494.6 125.067 494.6 116.134 508 116.134" stroke="#6699FF" stroke-opacity="0.2" stroke-width="1.52707" stroke-linecap="round"/>
<path d="M-28 142.934C-14.6 142.934 -14.6 151.867 -1.2 151.867C12.2 151.867 12.2 142.934 25.6 142.934C39 142.934 39 151.867 52.4 151.867C65.8 151.867 65.8 142.934 79.2 142.934C92.6 142.934 92.6 151.867 106 151.867C119.4 151.867 119.4 142.934 132.8 142.934C146.2 142.934 146.2 151.867 159.6 151.867C173 151.867 173 142.934 186.4 142.934C199.8 142.934 199.8 151.867 213.2 151.867C226.6 151.867 226.6 142.934 240 142.934C253.4 142.934 253.4 151.867 266.8 151.867C280.2 151.867 280.2 142.934 293.6 142.934C304.208 142.934 307 151.867 320.4 151.867C333.8 151.867 333.8 142.934 347.2 142.934C360.6 142.934 360.6 151.867 374 151.867C387.4 151.867 387.4 142.934 400.8 142.934C414.2 142.934 414.2 151.867 427.6 151.867C441 151.867 441 142.934 454.4 142.934C467.8 142.934 467.8 151.867 481.2 151.867C494.6 151.867 494.6 142.934 508 142.934" stroke="#6699FF" stroke-opacity="0.2" stroke-width="1.52707" stroke-linecap="round"/>
<path d="M-28 169.733C-14.6 169.733 -14.6 178.667 -1.2 178.667C12.2 178.667 12.2 169.733 25.6 169.733C39 169.733 39 178.667 52.4 178.667C65.8 178.667 65.8 169.733 79.2 169.733C92.6 169.733 92.6 178.667 106 178.667C119.4 178.667 119.4 169.733 132.8 169.733C146.2 169.733 146.2 178.667 159.6 178.667C173 178.667 173 169.733 186.4 169.733C199.8 169.733 199.8 178.667 213.2 178.667C226.6 178.667 226.6 169.733 240 169.733C253.4 169.733 253.4 178.667 266.8 178.667C280.2 178.667 280.2 169.733 293.6 169.733C304.208 169.733 307 178.667 320.4 178.667C333.8 178.667 333.8 169.733 347.2 169.733C360.6 169.733 360.6 178.667 374 178.667C387.4 178.667 387.4 169.733 400.8 169.733C414.2 169.733 414.2 178.667 427.6 178.667C441 178.667 441 169.733 454.4 169.733C467.8 169.733 467.8 178.667 481.2 178.667C494.6 178.667 494.6 169.733 508 169.733" stroke="#6699FF" stroke-opacity="0.2" stroke-width="1.52707" stroke-linecap="round"/>
<path d="M-28 196.533C-14.6 196.533 -14.6 205.467 -1.2 205.467C12.2 205.467 12.2 196.533 25.6 196.533C39 196.533 39 205.467 52.4 205.467C65.8 205.467 65.8 196.533 79.2 196.533C92.6 196.533 92.6 205.467 106 205.467C119.4 205.467 119.4 196.533 132.8 196.533C146.2 196.533 146.2 205.467 159.6 205.467C173 205.467 173 196.533 186.4 196.533C199.8 196.533 199.8 205.467 213.2 205.467C226.6 205.467 226.6 196.533 240 196.533C253.4 196.533 253.4 205.467 266.8 205.467C280.2 205.467 280.2 196.533 293.6 196.533C304.208 196.533 307 205.467 320.4 205.467C333.8 205.467 333.8 196.533 347.2 196.533C360.6 196.533 360.6 205.467 374 205.467C387.4 205.467 387.4 196.533 400.8 196.533C414.2 196.533 414.2 205.467 427.6 205.467C441 205.467 441 196.533 454.4 196.533C467.8 196.533 467.8 205.467 481.2 205.467C494.6 205.467 494.6 196.533 508 196.533" stroke="#6699FF" stroke-opacity="0.2" stroke-width="1.52707" stroke-linecap="round"/>
<path d="M-28 223.333C-14.6 223.333 -14.6 232.266 -1.2 232.266C12.2 232.266 12.2 223.333 25.6 223.333C39 223.333 39 232.266 52.4 232.266C65.8 232.266 65.8 223.333 79.2 223.333C92.6 223.333 92.6 232.266 106 232.266C119.4 232.266 119.4 223.333 132.8 223.333C146.2 223.333 146.2 232.266 159.6 232.266C173 232.266 173 223.333 186.4 223.333C199.8 223.333 199.8 232.266 213.2 232.266C226.6 232.266 226.6 223.333 240 223.333C253.4 223.333 253.4 232.266 266.8 232.266C280.2 232.266 280.2 223.333 293.6 223.333C304.208 223.333 307 232.266 320.4 232.266C333.8 232.266 333.8 223.333 347.2 223.333C360.6 223.333 360.6 232.266 374 232.266C387.4 232.266 387.4 223.333 400.8 223.333C414.2 223.333 414.2 232.266 427.6 232.266C441 232.266 441 223.333 454.4 223.333C467.8 223.333 467.8 232.266 481.2 232.266C494.6 232.266 494.6 223.333 508 223.333" stroke="#6699FF" stroke-opacity="0.2" stroke-width="1.52707" stroke-linecap="round"/>
<path d="M-28 250.134C-14.6 250.134 -14.6 259.067 -1.2 259.067C12.2 259.067 12.2 250.134 25.6 250.134C39 250.134 39 259.067 52.4 259.067C65.8 259.067 65.8 250.134 79.2 250.134C92.6 250.134 92.6 259.067 106 259.067C119.4 259.067 119.4 250.134 132.8 250.134C146.2 250.134 146.2 259.067 159.6 259.067C173 259.067 173 250.134 186.4 250.134C199.8 250.134 199.8 259.067 213.2 259.067C226.6 259.067 226.6 250.134 240 250.134C253.4 250.134 253.4 259.067 266.8 259.067C280.2 259.067 280.2 250.134 293.6 250.134C304.208 250.134 307 259.067 320.4 259.067C333.8 259.067 333.8 250.134 347.2 250.134C360.6 250.134 360.6 259.067 374 259.067C387.4 259.067 387.4 250.134 400.8 250.134C414.2 250.134 414.2 259.067 427.6 259.067C441 259.067 441 250.134 454.4 250.134C467.8 250.134 467.8 259.067 481.2 259.067C494.6 259.067 494.6 250.134 508 250.134" stroke="#6699FF" stroke-opacity="0.2" stroke-width="1.52707" stroke-linecap="round"/>
<path d="M-28 276.934C-14.6 276.934 -14.6 285.867 -1.2 285.867C12.2 285.867 12.2 276.934 25.6 276.934C39 276.934 39 285.867 52.4 285.867C65.8 285.867 65.8 276.934 79.2 276.934C92.6 276.934 92.6 285.867 106 285.867C119.4 285.867 119.4 276.934 132.8 276.934C146.2 276.934 146.2 285.867 159.6 285.867C173 285.867 173 276.934 186.4 276.934C199.8 276.934 199.8 285.867 213.2 285.867C226.6 285.867 226.6 276.934 240 276.934C253.4 276.934 253.4 285.867 266.8 285.867C280.2 285.867 280.2 276.934 293.6 276.934C304.208 276.934 307 285.867 320.4 285.867C333.8 285.867 333.8 276.934 347.2 276.934C360.6 276.934 360.6 285.867 374 285.867C387.4 285.867 387.4 276.934 400.8 276.934C414.2 276.934 414.2 285.867 427.6 285.867C441 285.867 441 276.934 454.4 276.934C467.8 276.934 467.8 285.867 481.2 285.867C494.6 285.867 494.6 276.934 508 276.934" stroke="#6699FF" stroke-opacity="0.2" stroke-width="1.52707" stroke-linecap="round"/>
<path d="M-28 303.733C-14.6 303.733 -14.6 312.667 -1.2 312.667C12.2 312.667 12.2 303.733 25.6 303.733C39 303.733 39 312.667 52.4 312.667C65.8 312.667 65.8 303.733 79.2 303.733C92.6 303.733 92.6 312.667 106 312.667C119.4 312.667 119.4 303.733 132.8 303.733C146.2 303.733 146.2 312.667 159.6 312.667C173 312.667 173 303.733 186.4 303.733C199.8 303.733 199.8 312.667 213.2 312.667C226.6 312.667 226.6 303.733 240 303.733C253.4 303.733 253.4 312.667 266.8 312.667C280.2 312.667 280.2 303.733 293.6 303.733C304.208 303.733 307 312.667 320.4 312.667C333.8 312.667 333.8 303.733 347.2 303.733C360.6 303.733 360.6 312.667 374 312.667C387.4 312.667 387.4 303.733 400.8 303.733C414.2 303.733 414.2 312.667 427.6 312.667C441 312.667 441 303.733 454.4 303.733C467.8 303.733 467.8 312.667 481.2 312.667C494.6 312.667 494.6 303.733 508 303.733" stroke="#6699FF" stroke-opacity="0.2" stroke-width="1.52707" stroke-linecap="round"/>
<path d="M-28 330.533C-14.6 330.533 -14.6 339.467 -1.2 339.467C12.2 339.467 12.2 330.533 25.6 330.533C39 330.533 39 339.467 52.4 339.467C65.8 339.467 65.8 330.533 79.2 330.533C92.6 330.533 92.6 339.467 106 339.467C119.4 339.467 119.4 330.533 132.8 330.533C146.2 330.533 146.2 339.467 159.6 339.467C173 339.467 173 330.533 186.4 330.533C199.8 330.533 199.8 339.467 213.2 339.467C226.6 339.467 226.6 330.533 240 330.533C253.4 330.533 253.4 339.467 266.8 339.467C280.2 339.467 280.2 330.533 293.6 330.533C304.208 330.533 307 339.467 320.4 339.467C333.8 339.467 333.8 330.533 347.2 330.533C360.6 330.533 360.6 339.467 374 339.467C387.4 339.467 387.4 330.533 400.8 330.533C414.2 330.533 414.2 339.467 427.6 339.467C441 339.467 441 330.533 454.4 330.533C467.8 330.533 467.8 339.467 481.2 339.467C494.6 339.467 494.6 330.533 508 330.533" stroke="#6699FF" stroke-opacity="0.2" stroke-width="1.52707" stroke-linecap="round"/>
<path d="M-28 357.333C-14.6 357.333 -14.6 366.266 -1.2 366.266C12.2 366.266 12.2 357.333 25.6 357.333C39 357.333 39 366.266 52.4 366.266C65.8 366.266 65.8 357.333 79.2 357.333C92.6 357.333 92.6 366.266 106 366.266C119.4 366.266 119.4 357.333 132.8 357.333C146.2 357.333 146.2 366.266 159.6 366.266C173 366.266 173 357.333 186.4 357.333C199.8 357.333 199.8 366.266 213.2 366.266C226.6 366.266 226.6 357.333 240 357.333C253.4 357.333 253.4 366.266 266.8 366.266C280.2 366.266 280.2 357.333 293.6 357.333C304.208 357.333 307 366.266 320.4 366.266C333.8 366.266 333.8 357.333 347.2 357.333C360.6 357.333 360.6 366.266 374 366.266C387.4 366.266 387.4 357.333 400.8 357.333C414.2 357.333 414.2 366.266 427.6 366.266C441 366.266 441 357.333 454.4 357.333C467.8 357.333 467.8 366.266 481.2 366.266C494.6 366.266 494.6 357.333 508 357.333" stroke="#6699FF" stroke-opacity="0.2" stroke-width="1.52707" stroke-linecap="round"/>
<path d="M-28 384.134C-14.6 384.134 -14.6 393.067 -1.2 393.067C12.2 393.067 12.2 384.134 25.6 384.134C39 384.134 39 393.067 52.4 393.067C65.8 393.067 65.8 384.134 79.2 384.134C92.6 384.134 92.6 393.067 106 393.067C119.4 393.067 119.4 384.134 132.8 384.134C146.2 384.134 146.2 393.067 159.6 393.067C173 393.067 173 384.134 186.4 384.134C199.8 384.134 199.8 393.067 213.2 393.067C226.6 393.067 226.6 384.134 240 384.134C253.4 384.134 253.4 393.067 266.8 393.067C280.2 393.067 280.2 384.134 293.6 384.134C304.208 384.134 307 393.067 320.4 393.067C333.8 393.067 333.8 384.134 347.2 384.134C360.6 384.134 360.6 393.067 374 393.067C387.4 393.067 387.4 384.134 400.8 384.134C414.2 384.134 414.2 393.067 427.6 393.067C441 393.067 441 384.134 454.4 384.134C467.8 384.134 467.8 393.067 481.2 393.067C494.6 393.067 494.6 384.134 508 384.134" stroke="#6699FF" stroke-opacity="0.2" stroke-width="1.52707" stroke-linecap="round"/>
<path d="M-28 410.934C-14.6 410.934 -14.6 419.867 -1.2 419.867C12.2 419.867 12.2 410.934 25.6 410.934C39 410.934 39 419.867 52.4 419.867C65.8 419.867 65.8 410.934 79.2 410.934C92.6 410.934 92.6 419.867 106 419.867C119.4 419.867 119.4 410.934 132.8 410.934C146.2 410.934 146.2 419.867 159.6 419.867C173 419.867 173 410.934 186.4 410.934C199.8 410.934 199.8 419.867 213.2 419.867C226.6 419.867 226.6 410.934 240 410.934C253.4 410.934 253.4 419.867 266.8 419.867C280.2 419.867 280.2 410.934 293.6 410.934C304.208 410.934 307 419.867 320.4 419.867C333.8 419.867 333.8 410.934 347.2 410.934C360.6 410.934 360.6 419.867 374 419.867C387.4 419.867 387.4 410.934 400.8 410.934C414.2 410.934 414.2 419.867 427.6 419.867C441 419.867 441 410.934 454.4 410.934C467.8 410.934 467.8 419.867 481.2 419.867C494.6 419.867 494.6 410.934 508 410.934" stroke="#6699FF" stroke-opacity="0.2" stroke-width="1.52707" stroke-linecap="round"/>
<path d="M-28 437.733C-14.6 437.733 -14.6 446.667 -1.2 446.667C12.2 446.667 12.2 437.733 25.6 437.733C39 437.733 39 446.667 52.4 446.667C65.8 446.667 65.8 437.733 79.2 437.733C92.6 437.733 92.6 446.667 106 446.667C119.4 446.667 119.4 437.733 132.8 437.733C146.2 437.733 146.2 446.667 159.6 446.667C173 446.667 173 437.733 186.4 437.733C199.8 437.733 199.8 446.667 213.2 446.667C226.6 446.667 226.6 437.733 240 437.733C253.4 437.733 253.4 446.667 266.8 446.667C280.2 446.667 280.2 437.733 293.6 437.733C304.208 437.733 307 446.667 320.4 446.667C333.8 446.667 333.8 437.733 347.2 437.733C360.6 437.733 360.6 446.667 374 446.667C387.4 446.667 387.4 437.733 400.8 437.733C414.2 437.733 414.2 446.667 427.6 446.667C441 446.667 441 437.733 454.4 437.733C467.8 437.733 467.8 446.667 481.2 446.667C494.6 446.667 494.6 437.733 508 437.733" stroke="#6699FF" stroke-opacity="0.2" stroke-width="1.52707" stroke-linecap="round"/>
<path d="M-28 464.533C-14.6 464.533 -14.6 473.466 -1.2 473.466C12.2 473.466 12.2 464.533 25.6 464.533C39 464.533 39 473.466 52.4 473.466C65.8 473.466 65.8 464.533 79.2 464.533C92.6 464.533 92.6 473.466 106 473.466C119.4 473.466 119.4 464.533 132.8 464.533C146.2 464.533 146.2 473.466 159.6 473.466C173 473.466 173 464.533 186.4 464.533C199.8 464.533 199.8 473.466 213.2 473.466C226.6 473.466 226.6 464.533 240 464.533C253.4 464.533 253.4 473.466 266.8 473.466C280.2 473.466 280.2 464.533 293.6 464.533C304.208 464.533 307 473.466 320.4 473.466C333.8 473.466 333.8 464.533 347.2 464.533C360.6 464.533 360.6 473.466 374 473.466C387.4 473.466 387.4 464.533 400.8 464.533C414.2 464.533 414.2 473.466 427.6 473.466C441 473.466 441 464.533 454.4 464.533C467.8 464.533 467.8 473.466 481.2 473.466C494.6 473.466 494.6 464.533 508 464.533" stroke="#6699FF" stroke-opacity="0.2" stroke-width="1.52707" stroke-linecap="round"/>
<path d="M-28 491.333C-14.6 491.333 -14.6 500.266 -1.2 500.266C12.2 500.266 12.2 491.333 25.6 491.333C39 491.333 39 500.266 52.4 500.266C65.8 500.266 65.8 491.333 79.2 491.333C92.6 491.333 92.6 500.266 106 500.266C119.4 500.266 119.4 491.333 132.8 491.333C146.2 491.333 146.2 500.266 159.6 500.266C173 500.266 173 491.333 186.4 491.333C199.8 491.333 199.8 500.266 213.2 500.266C226.6 500.266 226.6 491.333 240 491.333C253.4 491.333 253.4 500.266 266.8 500.266C280.2 500.266 280.2 491.333 293.6 491.333C304.208 491.333 307 500.266 320.4 500.266C333.8 500.266 333.8 491.333 347.2 491.333C360.6 491.333 360.6 500.266 374 500.266C387.4 500.266 387.4 491.333 400.8 491.333C414.2 491.333 414.2 500.266 427.6 500.266C441 500.266 441 491.333 454.4 491.333C467.8 491.333 467.8 500.266 481.2 500.266C494.6 500.266 494.6 491.333 508 491.333" stroke="#6699FF" stroke-opacity="0.2" stroke-width="1.52707" stroke-linecap="round"/>
<path d="M-28 518.134C-14.6 518.134 -14.6 527.067 -1.2 527.067C12.2 527.067 12.2 518.134 25.6 518.134C39 518.134 39 527.067 52.4 527.067C65.8 527.067 65.8 518.134 79.2 518.134C92.6 518.134 92.6 527.067 106 527.067C119.4 527.067 119.4 518.134 132.8 518.134C146.2 518.134 146.2 527.067 159.6 527.067C173 527.067 173 518.134 186.4 518.134C199.8 518.134 199.8 527.067 213.2 527.067C226.6 527.067 226.6 518.134 240 518.134C253.4 518.134 253.4 527.067 266.8 527.067C280.2 527.067 280.2 518.134 293.6 518.134C304.208 518.134 307 527.067 320.4 527.067C333.8 527.067 333.8 518.134 347.2 518.134C360.6 518.134 360.6 527.067 374 527.067C387.4 527.067 387.4 518.134 400.8 518.134C414.2 518.134 414.2 527.067 427.6 527.067C441 527.067 441 518.134 454.4 518.134C467.8 518.134 467.8 527.067 481.2 527.067C494.6 527.067 494.6 518.134 508 518.134" stroke="#6699FF" stroke-opacity="0.2" stroke-width="1.52707" stroke-linecap="round"/>
</svg>
